<?xml version="1.0" encoding="UTF-8"?><svg id="a" xmlns="http://www.w3.org/2000/svg" viewBox="0 0 324 120"><defs><style>.b{fill:#5870ff;}</style></defs><path class="b" d="M.5,92.75V1.59C.5,.71,1.21,0,2.09,0H67.29c.88,0,1.59,.71,1.59,1.59v15.72c0,.88-.71,1.59-1.59,1.59H21.07v21.24h43.79c.88,0,1.59,.71,1.59,1.59v15.85c0,.88-.71,1.59-1.59,1.59H21.07v33.57c0,.88-.71,1.59-1.59,1.59H2.09c-.88,0-1.59-.71-1.59-1.59"/><path class="b" d="M83.95,94.33h17.48c.96,0,1.73-.78,1.73-1.73V1.73c0-.96-.78-1.73-1.73-1.73h-17.48c-.96,0-1.73,.78-1.73,1.73V92.6c0,.96,.78,1.73,1.73,1.73Z"/><path class="b" d="M316.03,17.01c-12.02,0-20.3,4.48-24.7,13.35l-1.46-11.32c-.11-.79-.78-1.39-1.58-1.39h-14.57c-.88,0-1.59,.71-1.59,1.59V92.75c0,.88,.71,1.59,1.59,1.59h17.64c.88,0,1.59-.71,1.59-1.59V60.66c0-9.23,1.22-14.53,4.07-17.74,2.98-3.35,8.25-4.84,17.09-4.84h7.8c.88,0,1.59-.71,1.59-1.59V18.6c0-.88-.71-1.59-1.59-1.59h-5.88Z"/><path class="b" d="M238.34,56.96c0,13.04-6.38,19.93-18.45,19.93-14.73,0-17.66-11.34-18.09-18.09l-.02-.27c-.01-.12-1.26-11.73,4.95-18.68,3.12-3.5,7.67-5.27,13.53-5.27s10.07,1.77,13.18,5.26c3.26,3.66,4.91,9.01,4.91,15.9v1.23h0Zm-12.9-39.95c-10.94,0-19.91,4.68-25.18,13-.76-3.04-1.81-7.35-2.61-11.1-.16-.74-.81-1.26-1.56-1.26h-11.77c-.88,0-1.59,.71-1.59,1.59V118.32c0,.88,.71,1.59,1.59,1.59h17.26c.89,0,1.61-.74,1.59-1.62l-.77-33.13c5.18,6.03,12.92,9.19,22.68,9.19s17.96-3.27,23.88-9.47c6.27-6.56,9.58-16.16,9.58-27.78v-1.35c0-24.25-12.37-38.72-33.1-38.72"/><path class="b" d="M140.38,17.63h-16.23c-1.35,0-2.44,1.17-2.44,2.6v30.81c0,1.43,1.09,2.6,2.44,2.6h16.23c1.35,0,2.44-1.17,2.44-2.6V20.23c0-1.43-1.09-2.6-2.44-2.6Z"/><path class="b" d="M161.75,58.32h-16.23c-1.35,0-2.44,1.17-2.44,2.6v30.81c0,1.43,1.09,2.6,2.44,2.6h16.23c1.35,0,2.44-1.17,2.44-2.6v-30.81c0-1.43-1.09-2.6-2.44-2.6Z"/></svg>