<svg width="64" height="64" viewBox="0 0 64 64" fill="none" xmlns="http://www.w3.org/2000/svg">
<path d="M56 26.6667C56.3502 26.6668 56.697 26.5979 57.0206 26.4639C57.3442 26.33 57.6382 26.1335 57.8858 25.8859C58.1335 25.6383 58.3299 25.3442 58.4639 25.0207C58.5979 24.6971 58.6668 24.3503 58.6667 24.0001V16.0001C58.6669 15.4405 58.4909 14.8951 58.1637 14.4413C57.8365 13.9874 57.3747 13.6481 56.8438 13.4714L32.8438 5.47144C32.296 5.28914 31.704 5.28914 31.1562 5.47144L7.15625 13.4714C6.62533 13.6481 6.1635 13.9874 5.83629 14.4413C5.50909 14.8951 5.33311 15.4405 5.33334 16.0001V24.0001C5.33325 24.3503 5.40217 24.6971 5.53615 25.0207C5.67013 25.3442 5.86655 25.6383 6.11419 25.8859C6.36183 26.1335 6.65584 26.33 6.97941 26.4639C7.30299 26.5979 7.64979 26.6668 8.00001 26.6667H10.6667V45.8248C9.11131 46.3727 7.76365 47.3885 6.80872 48.7329C5.8538 50.0774 5.33842 51.6844 5.33334 53.3334V58.6667C5.33325 59.017 5.40217 59.3638 5.53615 59.6873C5.67013 60.0109 5.86655 60.3049 6.11419 60.5526C6.36183 60.8002 6.65584 60.9966 6.97941 61.1306C7.30299 61.2646 7.64979 61.3335 8.00001 61.3334H56C56.3502 61.3335 56.697 61.2646 57.0206 61.1306C57.3442 60.9966 57.6382 60.8002 57.8858 60.5526C58.1335 60.3049 58.3299 60.0109 58.4639 59.6873C58.5979 59.3638 58.6668 59.017 58.6667 58.6667V53.3334C58.6616 51.6844 58.1462 50.0774 57.1913 48.7329C56.2364 47.3885 54.8887 46.3727 53.3333 45.8248V26.6667H56ZM53.3333 56.0001H10.6667V53.3334C10.6674 52.6264 10.9486 51.9485 11.4485 51.4486C11.9484 50.9486 12.6263 50.6675 13.3333 50.6667H50.6667C51.3737 50.6675 52.0516 50.9486 52.5515 51.4486C53.0515 51.9485 53.3326 52.6264 53.3333 53.3334V56.0001ZM16 45.3334V26.6667H21.3333V45.3334H16ZM26.6667 45.3334V26.6667H37.3333V45.3334H26.6667ZM42.6667 45.3334V26.6667H48V45.3334H42.6667ZM10.6667 21.3334V17.9219L32 10.8099L53.3333 17.9219V21.3334H10.6667Z" fill="#5870FF"/>
</svg>
