<svg width="64" height="64" viewBox="0 0 64 64" fill="none" xmlns="http://www.w3.org/2000/svg">
<path d="M54.64 20.0533C54.6249 19.983 54.6249 19.9103 54.64 19.84C54.6271 19.7784 54.6271 19.7149 54.64 19.6533V19.4133L54.48 19.0133C54.415 18.9042 54.3341 18.8053 54.24 18.72L54 18.5066H53.8667L43.36 11.8666L33.44 5.7333C33.2105 5.55125 32.9479 5.41541 32.6667 5.3333H32.4533C32.215 5.29352 31.9717 5.29352 31.7333 5.3333H31.4667C31.1569 5.40182 30.8599 5.51881 30.5867 5.67997L10.6667 18.08L10.4267 18.2666L10.1867 18.48L9.92 18.6666L9.78667 18.8266L9.62666 19.2266V19.4666V19.6266C9.60076 19.8035 9.60076 19.9831 9.62666 20.16V43.44C9.62576 43.8932 9.74036 44.3391 9.95966 44.7357C10.1789 45.1323 10.4957 45.4664 10.88 45.7066L30.88 58.08L31.28 58.24H31.4933C31.9445 58.3831 32.4289 58.3831 32.88 58.24H33.0933L33.4933 58.08L53.3333 45.8933C53.7176 45.6531 54.0344 45.319 54.2537 44.9224C54.473 44.5258 54.5876 44.0798 54.5867 43.6266V20.3466C54.5867 20.3466 54.64 20.16 54.64 20.0533ZM32 11.12L36.7467 14.0533L21.84 23.28L17.0667 20.3466L32 11.12ZM29.3333 51.12L14.6667 42.16V25.12L29.3333 34.1866V51.12ZM32 29.4933L26.9067 26.4266L41.8133 17.1733L46.9333 20.3466L32 29.4933ZM49.3333 42.08L34.6667 51.2V34.1866L49.3333 25.12V42.08Z" fill="#5870FF"/>
</svg>
