<svg width="64" height="64" viewBox="0 0 64 64" fill="none" xmlns="http://www.w3.org/2000/svg">
<g clip-path="url(#clip0_1679_15147)">
<path d="M43.6239 61.6098H20.7487C17.0369 61.6098 14 58.8682 14 55.4938V6.11599C14 2.74165 17.0228 0 20.7487 0H43.6239C47.3357 0 50.3726 2.74165 50.3726 6.11599V55.4938C50.3726 58.8682 47.3497 61.6098 43.6239 61.6098ZM20.7487 4.17575C18.5554 4.17575 18.1898 4.27417 18.1898 6.11599V55.4938C18.1898 57.3357 18.5694 57.4341 20.7487 57.4341H43.6239C45.8172 57.4341 46.1828 57.3357 46.1828 55.4938V6.11599C46.1828 4.27417 45.8032 4.17575 43.6239 4.17575H20.7487Z" fill="#5870FF"/>
<path d="M41.0228 31.6203H23.6028C22.1547 31.6203 20.9877 30.4814 20.9877 29.0755V21.4691C20.9877 20.0632 22.1547 18.9243 23.6028 18.9243H41.0228C42.471 18.9243 43.638 20.0632 43.638 21.4691V29.0755C43.638 30.4814 42.471 31.6203 41.0228 31.6203Z" fill="#5870FF"/>
<path d="M41.051 16.9701H23.5747C22.1828 16.9701 21.0439 15.8453 21.0439 14.4674C21.3392 12.3303 19.8348 6.52367 23.5747 6.62209H41.051C44.7627 6.52367 43.3146 12.3444 43.5817 14.4674C43.5817 15.8593 42.4429 16.9701 41.051 16.9701Z" fill="#5870FF"/>
<path d="M32.3199 44.5413C28.594 44.5413 24.7276 44.5131 23.6028 44.3866C21.0721 44.1195 21.3111 42.2214 21.0158 41.1247L20.9736 40.942V33.5325H43.4692L43.4974 34.8963C43.4974 34.8963 43.5958 39.9859 43.6239 40.8154C43.6661 41.7012 43.3708 42.5026 42.7663 43.1353C41.4868 44.4569 40.7135 44.4991 40.2636 44.4991C39.9824 44.4991 36.2144 44.5413 32.3058 44.5413H32.3199ZM22.3515 40.8295C22.478 41.1388 22.9701 42.123 23.9824 42.2214C25.768 42.4042 36.4112 42.3479 40.362 42.3198C40.9666 42.3198 41.4306 41.9964 41.754 41.659C41.7961 41.6168 42.2601 41.1247 42.2601 40.956C42.232 40.3655 42.1757 37.9051 42.1476 36.3304H22.3515V40.8295Z" fill="#5870FF"/>
<path d="M29.3392 37.1177H23.4341V38.0737H29.3392V37.1177Z" fill="#5870FF"/>
<path d="M29.3392 39.0439H23.4341V41.1248H29.3392V39.0439Z" fill="#5870FF"/>
<path d="M41.1353 36.6819H32.3058V41.406H41.1353V36.6819Z" fill="#5870FF"/>
<path d="M48.9807 61.0757H15.3919V64.0001H48.9807V61.0757Z" fill="#5870FF"/>
</g>
<defs>
<clipPath id="clip0_1679_15147">
<rect width="36.3585" height="64" fill="white" transform="translate(14)"/>
</clipPath>
</defs>
</svg>
