<svg width="25" height="24" viewBox="0 0 25 24" fill="none" xmlns="http://www.w3.org/2000/svg">
<path d="M15.5 6.00002L13.7 4.28573L15.5 2.57145L14.3 1.42859L12.5 3.14287L10.7 1.42859L9.5 2.57145L11.3 4.28573L9.5 6.00002L10.7 7.14287L12.5 5.42859L14.3 7.14287L15.5 6.00002Z" fill="white"/>
<path d="M15.5 13.7143L13.7 12L15.5 10.2857L14.3 9.14287L12.5 10.8572L10.7 9.14287L9.5 10.2857L11.3 12L9.5 13.7143L10.7 14.8572L12.5 13.1429L14.3 14.8572L15.5 13.7143Z" fill="white"/>
<path d="M15.5 21.4286L13.7 19.7143L15.5 18L14.3 16.8572L12.5 18.5714L10.7 16.8572L9.5 18L11.3 19.7143L9.5 21.4286L10.7 22.5714L12.5 20.8572L14.3 22.5714L15.5 21.4286Z" fill="white"/>
</svg> 