<svg width="80" height="34" viewBox="0 0 80 34" fill="none" xmlns="http://www.w3.org/2000/svg">
<path d="M26.4268 33.5H0.358793V27.7144L8.36408 19.6814C10.0234 17.9606 11.3091 16.5809 12.221 15.5425C13.1478 14.504 13.7981 13.6214 14.1718 12.8945C14.5456 12.1676 14.7324 11.411 14.7324 10.6247C14.7324 9.66049 14.4185 8.96325 13.7906 8.53304C13.1628 8.10283 12.4228 7.88773 11.5707 7.88773C10.5392 7.88773 9.49274 8.18442 8.43135 8.77782C7.38491 9.35637 6.19645 10.2168 4.86597 11.3591L1.31237e-05 5.70701C0.986659 4.83176 2.0331 4.00101 3.13934 3.21477C4.24558 2.41369 5.55363 1.76096 7.0635 1.25657C8.57337 0.752192 10.4121 0.5 12.5797 0.5C14.8072 0.5 16.7356 0.885705 18.3651 1.65711C20.0095 2.42852 21.2802 3.48921 22.1771 4.83918C23.0741 6.17431 23.5225 7.69488 23.5225 9.40088C23.5225 11.2849 23.1712 12.9686 22.4686 14.4521C21.781 15.9208 20.742 17.3968 19.3517 18.8803C17.9614 20.349 16.2273 22.0179 14.1494 23.8871L11.7501 26.0233V26.2458L26.4268 26.0233V33.5Z" fill="white"/>
<path d="M48.7861 33.5H24.3827V27.7144L32.388 19.6814C34.0473 17.9606 35.333 16.5809 36.2449 15.5425C37.1717 14.504 37.822 13.6214 38.1957 12.8945C38.5695 12.1676 38.7563 11.411 38.7563 10.6247C38.7563 9.66049 38.4424 8.96325 37.8145 8.53304C37.1867 8.10283 36.4467 7.88773 35.5946 7.88773C34.5631 7.88773 33.5167 8.18442 32.4553 8.77782C31.4088 9.35637 30.2204 10.2168 28.8899 11.3591L24.0239 5.70701C25.0106 4.83176 26.057 4.00101 27.1632 3.21477C28.2695 2.41369 29.5775 1.76096 31.0874 1.25657C32.5973 0.752192 34.436 0.5 36.6037 0.5C38.8311 0.5 40.7595 0.885705 42.389 1.65711C44.0334 2.42852 45.3041 3.48921 46.201 4.83918C47.098 6.17431 47.5465 7.69488 47.5465 9.40088C47.5465 11.2849 47.1951 12.9686 46.4925 14.4521C45.8049 15.9208 44.7659 17.3968 43.3756 18.8803C41.9854 20.349 40.2513 22.0179 38.1733 23.8871L35.774 26.0233V26.2458H50.9405L48.7861 33.5Z" fill="white"/>
<path d="M80 33.5H68.3845L56.4102 10.5802H56.2084C56.2831 11.2775 56.3504 12.1156 56.4102 13.0947C56.47 14.0738 56.5223 15.0752 56.5672 16.0988C56.612 17.1076 56.6344 18.0199 56.6344 18.8358V33.5H48.7861V0.967296H60.3568L72.2862 23.5755H72.4208C72.3759 22.8635 72.3311 22.0401 72.2862 21.1055C72.2414 20.1561 72.1965 19.1993 72.1517 18.235C72.1218 17.2707 72.1068 16.4177 72.1068 15.676V0.967296H80V33.5Z" fill="white"/>
</svg> 