<svg width="24" height="24" viewBox="0 0 24 24" fill="none" xmlns="http://www.w3.org/2000/svg">
<path d="M6.375 4.5C5.13412 4.5 4.125 5.50912 4.125 6.75V17.25C4.125 18.4909 5.13412 19.5 6.375 19.5H17.625C18.8659 19.5 19.875 18.4909 19.875 17.25V6.75C19.875 5.50912 18.8659 4.5 17.625 4.5H6.375ZM6.375 8.625H17.625C18.0386 8.625 18.375 8.96137 18.375 9.375V17.25C18.375 17.6636 18.0386 18 17.625 18H6.375C5.96137 18 5.625 17.6636 5.625 17.25V9.375C5.625 8.96137 5.96137 8.625 6.375 8.625ZM10.125 9.75C9.918 9.75 9.75 9.918 9.75 10.125V10.875C9.75 11.082 9.918 11.25 10.125 11.25H10.875C11.082 11.25 11.25 11.082 11.25 10.875V10.125C11.25 9.918 11.082 9.75 10.875 9.75H10.125ZM13.125 9.75C12.918 9.75 12.75 9.918 12.75 10.125V10.875C12.75 11.082 12.918 11.25 13.125 11.25H13.875C14.082 11.25 14.25 11.082 14.25 10.875V10.125C14.25 9.918 14.082 9.75 13.875 9.75H13.125ZM16.125 9.75C15.918 9.75 15.75 9.918 15.75 10.125V10.875C15.75 11.082 15.918 11.25 16.125 11.25H16.875C17.082 11.25 17.25 11.082 17.25 10.875V10.125C17.25 9.918 17.082 9.75 16.875 9.75H16.125ZM12.9331 12C12.6249 12 12.375 12.2502 12.375 12.5588V13.6919C12.375 14.0001 12.6252 14.25 12.9338 14.25H14.0669C14.3751 14.25 14.625 13.9998 14.625 13.6912V12.5581C14.625 12.2499 14.3748 12 14.0662 12H12.9331ZM7.125 12.375C6.918 12.375 6.75 12.543 6.75 12.75V13.5C6.75 13.707 6.918 13.875 7.125 13.875H7.875C8.082 13.875 8.25 13.707 8.25 13.5V12.75C8.25 12.543 8.082 12.375 7.875 12.375H7.125ZM10.125 12.375C9.918 12.375 9.75 12.543 9.75 12.75V13.5C9.75 13.707 9.918 13.875 10.125 13.875H10.875C11.082 13.875 11.25 13.707 11.25 13.5V12.75C11.25 12.543 11.082 12.375 10.875 12.375H10.125ZM16.125 12.375C15.918 12.375 15.75 12.543 15.75 12.75V13.5C15.75 13.707 15.918 13.875 16.125 13.875H16.875C17.082 13.875 17.25 13.707 17.25 13.5V12.75C17.25 12.543 17.082 12.375 16.875 12.375H16.125ZM7.125 15C6.918 15 6.75 15.168 6.75 15.375V16.125C6.75 16.332 6.918 16.5 7.125 16.5H7.875C8.082 16.5 8.25 16.332 8.25 16.125V15.375C8.25 15.168 8.082 15 7.875 15H7.125ZM10.125 15C9.918 15 9.75 15.168 9.75 15.375V16.125C9.75 16.332 9.918 16.5 10.125 16.5H10.875C11.082 16.5 11.25 16.332 11.25 16.125V15.375C11.25 15.168 11.082 15 10.875 15H10.125ZM13.125 15C12.918 15 12.75 15.168 12.75 15.375V16.125C12.75 16.332 12.918 16.5 13.125 16.5H13.875C14.082 16.5 14.25 16.332 14.25 16.125V15.375C14.25 15.168 14.082 15 13.875 15H13.125Z" fill="#F2EBEF"/>
</svg> 