<svg width="24" height="24" viewBox="0 0 24 24" fill="none" xmlns="http://www.w3.org/2000/svg">
<path d="M4.5 4.5C3.67162 4.5 3 5.17162 3 6V9C3 9.43313 3.36725 9.78043 3.80713 9.7478C4.42325 9.70243 5.04463 9.88858 5.41626 10.3821C6.80413 12.2248 5.50516 14.2549 3.74341 14.25C3.33128 14.2489 3 14.5883 3 15V18C3 18.8284 3.67162 19.5 4.5 19.5H19.5C20.3284 19.5 21 18.8284 21 18V15C21 14.5669 20.6327 14.2196 20.1929 14.2522C19.5767 14.2976 18.9554 14.1114 18.5837 13.6179C17.1959 11.7752 18.4948 9.74512 20.2566 9.75C20.6687 9.75112 21 9.41175 21 9V6C21 5.17162 20.3284 4.5 19.5 4.5H4.5ZM4.875 6H19.125C19.332 6 19.5 6.168 19.5 6.375V8.32544C17.7904 8.67381 16.5 10.1891 16.5 12C16.5 13.8109 17.7904 15.3258 19.5 15.6746V17.625C19.5 17.832 19.332 18 19.125 18H4.875C4.668 18 4.5 17.832 4.5 17.625V15.6746C6.20963 15.3262 7.5 13.8109 7.5 12C7.5 10.1891 6.20963 8.67419 4.5 8.32544V6.375C4.5 6.168 4.668 6 4.875 6ZM12 8.8125C11.8711 8.81255 11.7419 8.88368 11.6858 9.02637L11.0691 10.6047L9.3772 10.7043C9.07157 10.722 8.94721 11.1063 9.18384 11.3005L10.4941 12.375L10.0657 14.0149C9.98842 14.3111 10.3145 14.5483 10.5725 14.3833L12 13.4692L13.4275 14.3833C13.6855 14.5487 14.0116 14.3111 13.9343 14.0149L13.5059 12.375L14.8162 11.2998C15.0532 11.1056 14.9277 10.7223 14.6221 10.7043L12.9309 10.6047L12.3135 9.02637C12.2576 8.88387 12.1289 8.81245 12 8.8125Z" fill="#1A1618"/>
</svg> 