<svg width="24" height="24" viewBox="0 0 24 24" fill="none" xmlns="http://www.w3.org/2000/svg">
<path d="M7.5 3.75C6.25725 3.75 5.25 4.75725 5.25 6V18C5.25 19.2428 6.25725 20.25 7.5 20.25H16.5C17.7428 20.25 18.75 19.2428 18.75 18V6C18.75 4.75725 17.7428 3.75 16.5 3.75H7.5ZM7.5 5.25H9.375C9.375 5.87138 9.87862 6.375 10.5 6.375H13.5C14.1214 6.375 14.625 5.87138 14.625 5.25H16.5C16.9144 5.25 17.25 5.58562 17.25 6V18C17.25 18.4144 16.9144 18.75 16.5 18.75H7.5C7.08562 18.75 6.75 18.4144 6.75 18V6C6.75 5.58562 7.08562 5.25 7.5 5.25ZM15.1868 9.375C15.0429 9.375 14.8989 9.42992 14.7891 9.53979L14.0618 10.2671L13.7102 9.91479C13.4905 9.69504 13.1345 9.69504 12.9148 9.91479C12.695 10.1342 12.695 10.4908 12.9148 10.7102L13.6648 11.4602C13.7747 11.5701 13.9185 11.625 14.0625 11.625C14.2065 11.625 14.3503 11.5701 14.4595 11.4602L15.5845 10.3352C15.8042 10.1158 15.8042 9.75917 15.5845 9.53979C15.4746 9.42992 15.3307 9.375 15.1868 9.375ZM8.8125 10.125C8.502 10.125 8.25 10.3766 8.25 10.6875C8.25 10.9984 8.502 11.25 8.8125 11.25H11.0625C11.373 11.25 11.625 10.9984 11.625 10.6875C11.625 10.3766 11.373 10.125 11.0625 10.125H8.8125ZM15.1868 13.125C15.0429 13.125 14.8989 13.1799 14.7891 13.2898L14.0618 14.0171L13.7102 13.6648C13.4905 13.445 13.1345 13.445 12.9148 13.6648C12.695 13.8842 12.695 14.2408 12.9148 14.4602L13.6648 15.2102C13.7747 15.3201 13.9185 15.375 14.0625 15.375C14.2065 15.375 14.3503 15.3201 14.4595 15.2102L15.5845 14.0852C15.8042 13.8658 15.8042 13.5092 15.5845 13.2898C15.4746 13.1799 15.3307 13.125 15.1868 13.125ZM8.8125 13.875C8.502 13.875 8.25 14.1266 8.25 14.4375C8.25 14.7484 8.502 15 8.8125 15H11.0625C11.373 15 11.625 14.7484 11.625 14.4375C11.625 14.1266 11.373 13.875 11.0625 13.875H8.8125Z" fill="#1A1618"/>
</svg> 