<svg width="24" height="24" viewBox="0 0 24 24" fill="none" xmlns="http://www.w3.org/2000/svg">
<path d="M19.125 17.25C19.539 17.25 19.875 17.5856 19.875 18C19.875 18.4144 19.539 18.75 19.125 18.75C18.8996 18.75 5.10037 18.75 4.875 18.75C4.461 18.75 4.125 18.4144 4.125 18C4.125 17.5856 4.461 17.25 4.875 17.25C5.10037 17.25 18.8996 17.25 19.125 17.25ZM19.125 11.25C19.539 11.25 19.875 11.5856 19.875 12C19.875 12.4144 19.539 12.75 19.125 12.75C18.8996 12.75 5.10037 12.75 4.875 12.75C4.461 12.75 4.125 12.4144 4.125 12C4.125 11.5856 4.461 11.25 4.875 11.25C5.10037 11.25 18.8996 11.25 19.125 11.25ZM19.125 5.25C19.539 5.25 19.875 5.58562 19.875 6C19.875 6.41438 19.539 6.75 19.125 6.75C18.8996 6.75 5.10037 6.75 4.875 6.75C4.461 6.75 4.125 6.41438 4.125 6C4.125 5.58562 4.461 5.25 4.875 5.25C5.10037 5.25 18.8996 5.25 19.125 5.25Z" fill="white"/>
</svg> 