<svg width="42" height="18" viewBox="0 0 42 18" fill="none" xmlns="http://www.w3.org/2000/svg">
<path d="M13.8741 17.5H0.188367V14.5196L4.39114 10.3813C5.2623 9.49483 5.93726 8.78411 6.41601 8.24916C6.9026 7.71421 7.244 7.2595 7.44021 6.88503C7.63642 6.51056 7.73452 6.12081 7.73452 5.71578C7.73452 5.21904 7.56971 4.85986 7.24008 4.63823C6.91045 4.41661 6.52196 4.3058 6.0746 4.3058C5.53307 4.3058 4.98369 4.45864 4.42646 4.76433C3.87708 5.06237 3.25313 5.50562 2.55463 6.09407L6.88993e-06 3.1824C0.517996 2.73151 1.06738 2.30355 1.64815 1.89852C2.22893 1.48584 2.91566 1.14958 3.70834 0.889751C4.50102 0.629917 5.46636 0.5 6.60437 0.5C7.77377 0.5 8.7862 0.698696 9.64166 1.09609C10.505 1.49348 11.1721 2.0399 11.643 2.73533C12.1139 3.42313 12.3493 4.20645 12.3493 5.0853C12.3493 6.05586 12.1649 6.92324 11.796 7.68746C11.435 8.44403 10.8895 9.20443 10.1597 9.96864C9.42976 10.7252 8.51936 11.585 7.42844 12.5479L6.16878 13.6483V13.763L13.8741 13.6483V17.5Z" fill="white"/>
<path d="M25.6127 17.5H12.8009V14.5196L17.0037 10.3813C17.8749 9.49483 18.5498 8.78411 19.0286 8.24916C19.5152 7.71421 19.8566 7.2595 20.0528 6.88503C20.249 6.51056 20.3471 6.12081 20.3471 5.71578C20.3471 5.21904 20.1823 4.85986 19.8526 4.63823C19.523 4.41661 19.1345 4.3058 18.6872 4.3058C18.1456 4.3058 17.5962 4.45864 17.039 4.76433C16.4896 5.06237 15.8657 5.50562 15.1672 6.09407L12.6126 3.1824C13.1305 2.73151 13.6799 2.30355 14.2607 1.89852C14.8415 1.48584 15.5282 1.14958 16.3209 0.889751C17.1136 0.629917 18.0789 0.5 19.2169 0.5C20.3863 0.5 21.3988 0.698696 22.2542 1.09609C23.1175 1.49348 23.7846 2.0399 24.2555 2.73533C24.7264 3.42313 24.9619 4.20645 24.9619 5.0853C24.9619 6.05586 24.7775 6.92324 24.4086 7.68746C24.0476 8.44403 23.5021 9.20443 22.7722 9.96864C22.0423 10.7252 21.1319 11.585 20.041 12.5479L18.7813 13.6483V13.763H26.7438L25.6127 17.5Z" fill="white"/>
<path d="M42 17.5H35.9019L29.6154 5.69285H29.5094C29.5486 6.05203 29.584 6.48382 29.6154 6.9882C29.6467 7.49258 29.6742 8.00843 29.6978 8.53574C29.7213 9.05541 29.7331 9.5254 29.7331 9.94572V17.5H25.6127V0.740728H31.6873L37.9503 12.3874H38.0209C37.9974 12.0206 37.9738 11.5964 37.9503 11.115C37.9267 10.6259 37.9032 10.133 37.8796 9.63621C37.8639 9.13947 37.8561 8.70005 37.8561 8.31794V0.740728H42V17.5Z" fill="white"/>
</svg> 