<svg width="24" height="24" viewBox="0 0 24 24" fill="none" xmlns="http://www.w3.org/2000/svg">
<path fill-rule="evenodd" clip-rule="evenodd" d="M17.1 10.9125C17.9625 9.7125 18.3 8.5125 18.3375 7.1625C18.4125 5.325 17.5875 3.75 15.9375 2.7375C14.175 1.65 13.125 1.125 13.125 1.125C13.9875 1.6125 14.55 2.85 14.775 4.4625C15.075 6.6375 14.5125 9.3 12 10.95L15.3 16.7625C12.825 16.5 11.1375 17.8125 11.1375 17.8125L14.325 20.5125C14.325 20.5125 17.025 18.7875 21.3 19.65L15.9375 12.3375C16.425 11.8125 16.725 11.4375 17.1 10.9125ZM6.1875 12.75V18.975C6.1875 18.975 4.575 20.2125 2.625 19.725L5.8125 22.425C8.1375 22.9125 9.6 21.4875 9.6 21.4875V14.7375L8.3625 12.225L6.1875 12.75ZM9.3504 8.40644C9.23907 8.43984 9.12188 8.475 9 8.5125C8.98713 8.51572 8.95578 8.52362 8.90921 8.53537C8.41285 8.66055 6.1875 9.22178 6.1875 9.1875V4.575L9.3 3.825C9.4125 3.7875 9.9 3.675 10.35 3.8625C10.3677 3.87135 10.3875 3.88021 10.4084 3.88955C10.476 3.91979 10.5552 3.9552 10.6125 4.0125L10.725 4.125C10.7625 4.1625 10.8 4.20938 10.8375 4.25625C10.875 4.30313 10.9125 4.35 10.95 4.3875C10.9688 4.425 10.9781 4.45312 10.9875 4.48125C10.9969 4.50937 11.0062 4.5375 11.025 4.575C11.025 4.66402 11.0485 4.72956 11.0769 4.80878C11.0843 4.82967 11.0922 4.85152 11.1 4.875C11.1 4.9125 11.1094 4.94062 11.1187 4.96875C11.1281 4.99688 11.1375 5.025 11.1375 5.0625C11.175 5.1375 11.2125 5.25 11.2125 5.3625C11.2875 6 11.2125 6.675 10.9875 7.2C10.875 7.5 10.6875 7.725 10.5 7.9125C10.3875 8.025 10.275 8.1 10.1625 8.1375C9.96563 8.22188 9.68438 8.30625 9.3504 8.40644Z" fill="white"/>
</svg> 