<svg width="24" height="24" viewBox="0 0 24 24" fill="none" xmlns="http://www.w3.org/2000/svg">
<path d="M6 4.875C4.75875 4.875 3.75 5.88375 3.75 7.125V16.875C3.75 18.1163 4.75875 19.125 6 19.125H14.5986L14.9927 18.731C14.8464 18.3747 14.7413 18.0037 14.6851 17.625H6C5.5875 17.625 5.25 17.2875 5.25 16.875V9C5.25 8.5875 5.5875 8.25 6 8.25H18C18.4125 8.25 18.75 8.5875 18.75 9V12.0564C18.9975 12.0189 19.245 12 19.5 12C19.755 12 20.0025 12.0189 20.25 12.0564V7.125C20.25 5.88375 19.2413 4.875 18 4.875H6ZM8.4375 9.5625C8.02313 9.5625 7.6875 9.89813 7.6875 10.3125C7.6875 10.7269 8.02313 11.0625 8.4375 11.0625C8.85187 11.0625 9.1875 10.7269 9.1875 10.3125C9.1875 9.89813 8.85187 9.5625 8.4375 9.5625ZM10.6875 9.75C10.377 9.75 10.125 10.0016 10.125 10.3125C10.125 10.6234 10.377 10.875 10.6875 10.875H15.5625C15.873 10.875 16.125 10.6234 16.125 10.3125C16.125 10.0016 15.873 9.75 15.5625 9.75H10.6875ZM8.4375 12.1875C8.02313 12.1875 7.6875 12.5231 7.6875 12.9375C7.6875 13.3519 8.02313 13.6875 8.4375 13.6875C8.85187 13.6875 9.1875 13.3519 9.1875 12.9375C9.1875 12.5231 8.85187 12.1875 8.4375 12.1875ZM10.6875 12.375C10.377 12.375 10.125 12.6266 10.125 12.9375C10.125 13.2484 10.377 13.5 10.6875 13.5H15.5625C15.873 13.5 16.125 13.2484 16.125 12.9375C16.125 12.6266 15.873 12.375 15.5625 12.375H10.6875ZM19.5 13.125C17.4323 13.125 15.75 14.8073 15.75 16.875C15.75 17.6381 15.9799 18.3483 16.3733 18.9412L14.4697 20.8447C14.1769 21.1376 14.1769 21.6124 14.4697 21.9053C14.6164 22.0519 14.808 22.125 15 22.125C15.192 22.125 15.3836 22.0519 15.5303 21.9053L17.4338 20.0017C18.0267 20.3951 18.7369 20.625 19.5 20.625C21.5677 20.625 23.25 18.9427 23.25 16.875C23.25 14.8073 21.5677 13.125 19.5 13.125ZM19.5 14.625C20.7409 14.625 21.75 15.6341 21.75 16.875C21.75 18.1159 20.7409 19.125 19.5 19.125C18.2591 19.125 17.25 18.1159 17.25 16.875C17.25 15.6341 18.2591 14.625 19.5 14.625ZM8.4375 14.8125C8.02313 14.8125 7.6875 15.1481 7.6875 15.5625C7.6875 15.9769 8.02313 16.3125 8.4375 16.3125C8.85187 16.3125 9.1875 15.9769 9.1875 15.5625C9.1875 15.1481 8.85187 14.8125 8.4375 14.8125ZM10.6875 15C10.3762 15 10.125 15.2513 10.125 15.5625C10.125 15.8737 10.3762 16.125 10.6875 16.125H14.6814C14.7451 15.735 14.85 15.3562 15 15H10.6875Z" fill="#665C61"/>
</svg> 