<svg width="16" height="17" viewBox="0 0 16 17" fill="none" xmlns="http://www.w3.org/2000/svg">
  <path d="M8 3C4.9625 3 2.5 5.4625 2.5 8.5C2.5 11.5375 4.9625 14 8 14C11.0375 14 13.5 11.5375 13.5 8.5C13.5 5.4625 11.0375 3 8 3ZM8 4C10.4852 4 12.5 6.01475 12.5 8.5C12.5 10.9852 10.4852 13 8 13C5.51475 13 3.5 10.9852 3.5 8.5C3.5 6.01475 5.51475 4 8 4ZM8 5.75C7.58575 5.75 7.25 6.08575 7.25 6.5C7.25 6.91425 7.58575 7.25 8 7.25C8.41425 7.25 8.75 6.91425 8.75 6.5C8.75 6.08575 8.41425 5.75 8 5.75ZM8 8C7.72375 8 7.5 8.224 7.5 8.5V11C7.5 11.276 7.72375 11.5 8 11.5C8.27625 11.5 8.5 11.276 8.5 11V8.5C8.5 8.224 8.27625 8 8 8Z" fill="#5559DF"/>
</svg>