<svg width="25" height="24" viewBox="0 0 25 24" fill="none" xmlns="http://www.w3.org/2000/svg">
<path d="M6.875 4.5C5.63412 4.5 4.625 5.50912 4.625 6.75V17.25C4.625 18.4909 5.63412 19.5 6.875 19.5H18.125C19.3659 19.5 20.375 18.4909 20.375 17.25V6.75C20.375 5.50912 19.3659 4.5 18.125 4.5H6.875ZM6.875 8.625H18.125C18.5386 8.625 18.875 8.96137 18.875 9.375V17.25C18.875 17.6636 18.5386 18 18.125 18H6.875C6.46137 18 6.125 17.6636 6.125 17.25V9.375C6.125 8.96137 6.46137 8.625 6.875 8.625ZM8.09375 11.6023C7.44725 11.6023 6.98413 11.9546 6.98413 12.4863C6.98413 12.9195 7.26826 13.197 7.84839 13.3118L8.15674 13.3726C8.52124 13.4472 8.65771 13.5556 8.65771 13.7468C8.65771 13.9602 8.43649 14.1174 8.10986 14.1174C7.83199 14.1174 7.60451 14.0168 7.51001 13.7952C7.43763 13.6662 7.35437 13.6179 7.22949 13.6179C7.07237 13.6179 6.96216 13.7247 6.96216 13.886C6.96216 13.9404 6.97376 13.9968 6.99438 14.0493C7.11101 14.3677 7.49593 14.6067 8.09668 14.6074C8.82155 14.6074 9.26709 14.249 9.26709 13.6809C9.26709 13.2395 9.00066 12.9924 8.38379 12.8694L8.07764 12.8064C7.73339 12.7378 7.59497 12.6275 7.59497 12.4482C7.59497 12.2349 7.79448 12.0938 8.09448 12.0938C8.34423 12.0938 8.53167 12.1842 8.62842 12.4036C8.69667 12.5284 8.78085 12.583 8.91772 12.583C9.07297 12.583 9.17773 12.4842 9.17773 12.3391C9.17773 12.2866 9.16928 12.2445 9.15503 12.2043C9.02603 11.8256 8.6255 11.6023 8.09375 11.6023ZM14.531 11.6023C13.8845 11.6023 13.4214 11.9546 13.4214 12.4863C13.4214 12.9195 13.7055 13.197 14.2856 13.3118L14.5933 13.3726C14.9578 13.4472 15.095 13.5556 15.095 13.7468C15.095 13.9602 14.8737 14.1174 14.5471 14.1174C14.2692 14.1174 14.0418 14.0168 13.9473 13.7952C13.8749 13.6662 13.7916 13.6179 13.6667 13.6179C13.5096 13.6179 13.3994 13.7247 13.3994 13.886C13.3994 13.9404 13.411 13.9968 13.4316 14.0493C13.5483 14.3677 13.9332 14.6067 14.5339 14.6074C15.2588 14.6074 15.7043 14.249 15.7043 13.6809C15.7043 13.2395 15.4379 12.9924 14.821 12.8694L14.5149 12.8064C14.1706 12.7378 14.0322 12.6275 14.0322 12.4482C14.0322 12.2349 14.2317 12.0938 14.5317 12.0938C14.7815 12.0938 14.9689 12.1842 15.0657 12.4036C15.1339 12.5284 15.2181 12.583 15.355 12.583C15.5102 12.583 15.615 12.4842 15.615 12.3391C15.615 12.2866 15.6065 12.2445 15.5923 12.2043C15.4633 11.8256 15.0628 11.6023 14.531 11.6023ZM12.8955 11.6074C12.7526 11.6074 12.6699 11.68 12.626 11.8352L11.7354 14.9048C11.7275 14.9352 11.7214 14.9716 11.7214 15.0117C11.7214 15.1445 11.8157 15.2476 11.9829 15.2476C12.1262 15.2476 12.209 15.181 12.251 15.0359L13.1438 11.9568C13.1535 11.9223 13.1577 11.8921 13.1577 11.8557C13.1577 11.7087 13.053 11.6074 12.8955 11.6074ZM10.551 12.353C10.104 12.353 9.75799 12.5125 9.65674 12.7705C9.63686 12.8148 9.62671 12.8566 9.62671 12.9031C9.62671 13.0362 9.72882 13.1287 9.87207 13.1287C9.96695 13.1287 10.0412 13.0926 10.1057 13.0203C10.2362 12.8511 10.3454 12.7925 10.5247 12.7925C10.7463 12.7925 10.8872 12.9097 10.8872 13.1111V13.2539L10.3438 13.2861C9.80412 13.3184 9.5022 13.5461 9.5022 13.9387C9.5022 14.3276 9.81447 14.5931 10.2251 14.5935C10.4947 14.5935 10.765 14.4583 10.8857 14.2288H10.8975V14.3394C10.9098 14.5126 11.0204 14.6016 11.1794 14.6016C11.3471 14.6016 11.4658 14.5003 11.4658 14.3049V13.0745C11.4658 12.6395 11.1053 12.353 10.551 12.353ZM16.3079 12.3552C16.1365 12.3552 16.0134 12.4622 16.0134 12.6636V13.7915C16.0134 14.2951 16.3237 14.5994 16.7905 14.5994C17.1168 14.5994 17.3308 14.442 17.4373 14.1702H17.449V14.3027C17.449 14.4981 17.564 14.6008 17.7332 14.6008C17.9023 14.6008 18.0173 14.4981 18.0173 14.3027V12.6636C18.0173 12.4622 17.8969 12.3552 17.7236 12.3552C17.5523 12.3552 17.4292 12.4622 17.4292 12.6636V13.6362C17.4292 13.922 17.2665 14.1094 17.0044 14.1094C16.7449 14.1094 16.6016 13.9565 16.6016 13.6685V12.6636C16.6016 12.4622 16.4807 12.3552 16.3079 12.3552ZM10.8872 13.6099V13.7673C10.8872 14.001 10.6765 14.1676 10.4185 14.1672C10.2208 14.1672 10.0881 14.067 10.0881 13.9058C10.0881 13.7528 10.2126 13.6538 10.4324 13.6377L10.8872 13.6099Z" fill="#F3EAFE"/>
</svg> 