<svg width="136" height="136" viewBox="0 0 136 136" fill="none" xmlns="http://www.w3.org/2000/svg">
<path d="M89.0233 46.9764C88.4965 46.4453 87.8698 46.0237 87.1792 45.736C86.4887 45.4483 85.748 45.3002 85 45.3002C84.2519 45.3002 83.5112 45.4483 82.8207 45.736C82.1302 46.0237 81.5034 46.4453 80.9766 46.9764L68 60.0097L55.0233 46.9764C53.9562 45.9093 52.509 45.3099 51 45.3099C49.4909 45.3099 48.0437 45.9093 46.9766 46.9764C45.9096 48.0434 45.3101 49.4907 45.3101 50.9997C45.3101 52.5088 45.9096 53.956 46.9766 55.023L60.01 67.9997L46.9766 80.9764C46.4455 81.5032 46.0239 82.1299 45.7362 82.8204C45.4486 83.511 45.3004 84.2516 45.3004 84.9997C45.3004 85.7478 45.4486 86.4884 45.7362 87.179C46.0239 87.8695 46.4455 88.4963 46.9766 89.023C47.5034 89.5542 48.1302 89.9757 48.8207 90.2634C49.5112 90.5511 50.2519 90.6992 51 90.6992C51.748 90.6992 52.4887 90.5511 53.1792 90.2634C53.8698 89.9757 54.4965 89.5542 55.0233 89.023L68 75.9897L80.9766 89.023C81.5034 89.5542 82.1302 89.9757 82.8207 90.2634C83.5112 90.5511 84.2519 90.6992 85 90.6992C85.748 90.6992 86.4887 90.5511 87.1792 90.2634C87.8698 89.9757 88.4965 89.5542 89.0233 89.023C89.5544 88.4963 89.976 87.8695 90.2637 87.179C90.5514 86.4884 90.6995 85.7478 90.6995 84.9997C90.6995 84.2516 90.5514 83.511 90.2637 82.8204C89.976 82.1299 89.5544 81.5032 89.0233 80.9764L75.99 67.9997L89.0233 55.023C89.5544 54.4963 89.976 53.8695 90.2637 53.179C90.5514 52.4884 90.6995 51.7478 90.6995 50.9997C90.6995 50.2516 90.5514 49.511 90.2637 48.8204C89.976 48.1299 89.5544 47.5032 89.0233 46.9764ZM108.063 27.9364C102.836 22.5241 96.5831 18.2071 89.6695 15.2373C82.756 12.2675 75.3202 10.7042 67.796 10.6389C60.2719 10.5735 52.81 12.0072 45.8459 14.8565C38.8818 17.7057 32.5548 21.9134 27.2342 27.234C21.9137 32.5546 17.706 38.8815 14.8567 45.8457C12.0075 52.8098 10.5737 60.2716 10.6391 67.7958C10.7045 75.3199 12.2677 82.7557 15.2375 89.6693C18.2074 96.5829 22.5244 102.836 27.9366 108.063C33.1639 113.475 39.4168 117.792 46.3304 120.762C53.2439 123.732 60.6797 125.295 68.2039 125.361C75.7281 125.426 83.1899 123.992 90.154 121.143C97.1181 118.294 103.445 114.086 108.766 108.765C114.086 103.445 118.294 97.1179 121.143 90.1538C123.992 83.1897 125.426 75.7278 125.361 68.2036C125.295 60.6795 123.732 53.2437 120.762 46.3301C117.793 39.4166 113.476 33.1637 108.063 27.9364ZM100.073 100.073C92.6615 107.493 82.9063 112.114 72.4698 113.148C62.0332 114.182 51.561 111.565 42.8372 105.744C34.1135 99.9228 27.678 91.2569 24.6271 81.2228C21.5763 71.1887 22.0989 60.4072 26.1058 50.7152C30.1128 41.0231 37.3562 33.0202 46.602 28.0699C55.8478 23.1196 66.524 21.5281 76.8117 23.5667C87.0993 25.6052 96.3619 31.1476 103.021 39.2497C109.681 47.3517 113.325 57.5121 113.333 67.9997C113.354 73.957 112.192 79.8592 109.916 85.3646C107.64 90.8699 104.294 95.8692 100.073 100.073Z" fill="black"/>
</svg>
