<svg width="136" height="136" viewBox="0 0 136 136" fill="none" xmlns="http://www.w3.org/2000/svg">
<path d="M63.9764 86.642C63.7327 86.9113 63.5056 87.1952 63.2964 87.492C63.0819 87.8079 62.9104 88.1509 62.7864 88.512C62.623 88.8332 62.5084 89.177 62.4464 89.532C62.4186 89.9093 62.4186 90.2881 62.4464 90.6654C62.4272 91.4087 62.5825 92.1462 62.8997 92.8187C63.1542 93.5219 63.5602 94.1605 64.0891 94.6893C64.6179 95.2182 65.2565 95.6242 65.9597 95.8787C66.638 96.1785 67.3714 96.3334 68.113 96.3334C68.8546 96.3334 69.5881 96.1785 70.2664 95.8787C70.9696 95.6242 71.6082 95.2182 72.137 94.6893C72.6658 94.1605 73.0719 93.5219 73.3264 92.8187C73.578 92.1297 73.6935 91.3984 73.6664 90.6654C73.6707 89.9196 73.5277 89.1803 73.2457 88.4899C72.9637 87.7995 72.5482 87.1715 72.023 86.642C71.4962 86.1109 70.8695 85.6893 70.179 85.4016C69.4884 85.114 68.7478 84.9658 67.9997 84.9658C67.2516 84.9658 66.511 85.114 65.8204 85.4016C65.1299 85.6893 64.5032 86.1109 63.9764 86.642ZM67.9997 11.332C56.7921 11.332 45.8362 14.6555 36.5174 20.8821C27.1986 27.1087 19.9355 35.9588 15.6465 46.3133C11.3576 56.6678 10.2354 68.0616 12.4219 79.0538C14.6084 90.0461 20.0053 100.143 27.9303 108.068C35.8553 115.993 45.9523 121.39 56.9446 123.577C67.9368 125.763 79.3306 124.641 89.6851 120.352C100.04 116.063 108.89 108.8 115.116 99.481C121.343 90.1622 124.666 79.2063 124.666 67.9987C124.666 60.5571 123.201 53.1884 120.353 46.3133C117.505 39.4382 113.331 33.1913 108.069 27.9293C102.807 22.6673 96.5602 18.4933 89.6851 15.6455C82.81 12.7978 75.4413 11.332 67.9997 11.332ZM67.9997 113.332C59.0336 113.332 50.2689 110.673 42.8139 105.692C35.3588 100.711 29.5483 93.6306 26.1172 85.347C22.686 77.0634 21.7882 67.9484 23.5374 59.1546C25.2866 50.3608 29.6042 42.2832 35.9442 35.9432C42.2842 29.6032 50.3618 25.2856 59.1556 23.5364C67.9494 21.7872 77.0644 22.685 85.348 26.1162C93.6316 29.5473 100.712 35.3578 105.693 42.8128C110.674 50.2679 113.333 59.0326 113.333 67.9987C113.333 80.0218 108.557 91.5526 100.055 100.054C91.5536 108.556 80.0229 113.332 67.9997 113.332ZM67.9997 39.6654C65.0137 39.6635 62.0799 40.448 59.4935 41.9402C56.9071 43.4324 54.7593 45.5794 53.2664 48.1654C52.8564 48.8103 52.5811 49.5316 52.457 50.2857C52.333 51.0398 52.3628 51.8112 52.5446 52.5536C52.7264 53.2959 53.0565 53.9937 53.515 54.6052C53.9736 55.2166 54.551 55.7289 55.2127 56.1114C55.8744 56.4939 56.6066 56.7386 57.3653 56.8307C58.1239 56.9229 58.8934 56.8606 59.6274 56.6477C60.3614 56.4347 61.0447 56.0755 61.6363 55.5916C62.2279 55.1078 62.7155 54.5092 63.0697 53.832C63.569 52.9673 64.2879 52.2498 65.1536 51.7522C66.0193 51.2547 67.0012 50.9947 67.9997 50.9987C69.5026 50.9987 70.9439 51.5957 72.0066 52.6584C73.0693 53.7211 73.6664 55.1625 73.6664 56.6654C73.6664 58.1683 73.0693 59.6096 72.0066 60.6723C70.9439 61.735 69.5026 62.332 67.9997 62.332C66.4968 62.332 65.0555 62.9291 63.9928 63.9918C62.9301 65.0545 62.333 66.4958 62.333 67.9987V73.6654C62.333 75.1683 62.9301 76.6096 63.9928 77.6723C65.0555 78.735 66.4968 79.332 67.9997 79.332C69.5026 79.332 70.9439 78.735 72.0066 77.6723C73.0693 76.6096 73.6664 75.1683 73.6664 73.6654V72.6454C77.4141 71.2855 80.5647 68.6516 82.5674 65.2043C84.5701 61.7569 85.2974 57.7154 84.6223 53.7861C83.9472 49.8568 81.9125 46.2898 78.874 43.7086C75.8355 41.1274 71.9864 39.6963 67.9997 39.6654Z" fill="black"/>
</svg>
