<?xml version="1.0" encoding="utf-8"?>
<!-- Generator: Adobe Illustrator 27.0.1, SVG Export Plug-In . SVG Version: 6.00 Build 0)  -->
<svg version="1.1" id="Layer_1" xmlns="http://www.w3.org/2000/svg" xmlns:xlink="http://www.w3.org/1999/xlink" x="0px" y="0px"
	 viewBox="0 0 136 136" style="enable-background:new 0 0 136 136;" xml:space="preserve">
<g>
	<path d="M68.6,56.2c-1.5,0-2.9,0.7-4,1.9c-1.1,1.2-1.7,2.9-1.7,4.6v25.9c0,1.7,0.6,3.4,1.7,4.6c1.1,1.2,2.5,1.9,4,1.9
		c1.5,0,2.9-0.7,4-1.9c1.1-1.2,1.7-2.9,1.7-4.6V62.7c0-1.7-0.6-3.4-1.7-4.6C71.6,56.9,70.1,56.2,68.6,56.2z"/>
	<path d="M70.8,38.8c-1.4-0.6-2.9-0.6-4.3,0c-0.7,0.3-1.3,0.7-1.9,1.2c-0.5,0.6-0.9,1.2-1.2,1.9c-0.3,0.7-0.5,1.4-0.5,2.2
		c0,0.7,0.1,1.5,0.4,2.2c0.3,0.7,0.7,1.3,1.2,1.8c0.6,0.5,1.2,0.9,1.9,1.2c0.9,0.4,1.8,0.5,2.7,0.4c0.9-0.1,1.8-0.4,2.6-0.9
		c0.8-0.5,1.4-1.2,1.8-2c0.4-0.8,0.7-1.7,0.7-2.7c0-1.5-0.6-2.9-1.6-4C72.1,39.5,71.5,39.1,70.8,38.8z"/>
	<path d="M121,45c-2.8-6.9-7-13.1-12.3-18.4c-5.3-5.3-11.5-9.4-18.4-12.3C83.4,11.5,76,10,68.6,10c-11.2,0-22.2,3.3-31.5,9.6
		C27.8,25.8,20.5,34.6,16.3,45S10.8,66.7,13,77.7c2.2,11,7.6,21.1,15.5,29s18,13.3,29,15.5c11,2.2,22.4,1.1,32.7-3.2
		c10.4-4.3,19.2-11.6,25.4-20.9c6.2-9.3,9.5-20.3,9.5-31.5C125.3,59.2,123.8,51.9,121,45z M100.7,98.7c-8.5,8.5-20,13.3-32.1,13.3
		c-9,0-17.7-2.7-25.2-7.6C36,99.4,30.2,92.3,26.7,84c-3.4-8.3-4.3-17.4-2.6-26.2S30.2,41,36.6,34.6C42.9,28.3,51,24,59.8,22.2
		c8.8-1.7,17.9-0.9,26.2,2.6c8.3,3.4,15.4,9.2,20.3,16.7c5,7.5,7.6,16.2,7.6,25.2C113.9,78.7,109.2,90.2,100.7,98.7z"/>
</g>
</svg>
