<svg width="135" height="136" viewBox="0 0 135 136" fill="none" xmlns="http://www.w3.org/2000/svg">
<path d="M67.5 11.332C56.3748 11.332 45.4995 14.6555 36.2492 20.8821C26.9989 27.1087 19.7892 35.9588 15.5318 46.3133C11.2744 56.6678 10.1604 68.0616 12.3309 79.0538C14.5013 90.0461 19.8586 100.143 27.7253 108.068C35.592 115.993 45.6148 121.39 56.5262 123.577C67.4376 125.763 78.7476 124.641 89.026 120.352C99.3043 116.063 108.089 108.8 114.27 99.481C120.451 90.1622 123.75 79.2063 123.75 67.9987C123.75 60.5571 122.295 53.1884 119.468 46.3133C116.641 39.4382 112.498 33.1913 107.275 27.9293C102.051 22.6673 95.8505 18.4933 89.026 15.6455C82.2014 12.7978 74.8869 11.332 67.5 11.332ZM67.5 113.332C58.5999 113.332 49.8996 110.673 42.4994 105.692C35.0992 100.711 29.3314 93.6306 25.9254 85.347C22.5195 77.0634 21.6284 67.9484 23.3647 59.1546C25.101 50.3608 29.3869 42.2832 35.6802 35.9432C41.9736 29.6032 49.9918 25.2856 58.721 23.5364C67.4501 21.7872 76.4981 22.685 84.7208 26.1162C92.9435 29.5473 99.9715 35.3578 104.916 42.8128C109.861 50.2679 112.5 59.0326 112.5 67.9987C112.5 80.0218 107.759 91.5526 99.3198 100.054C90.8807 108.556 79.4348 113.332 67.5 113.332ZM90 62.332H45C43.5082 62.332 42.0774 62.9291 41.0225 63.9918C39.9677 65.0545 39.375 66.4958 39.375 67.9987C39.375 69.5016 39.9677 70.9429 41.0225 72.0056C42.0774 73.0683 43.5082 73.6654 45 73.6654H90C91.4919 73.6654 92.9226 73.0683 93.9775 72.0056C95.0324 70.9429 95.625 69.5016 95.625 67.9987C95.625 66.4958 95.0324 65.0545 93.9775 63.9918C92.9226 62.9291 91.4919 62.332 90 62.332Z" fill="black"/>
</svg>
