<svg width="136" height="136" viewBox="0 0 136 136" fill="none" xmlns="http://www.w3.org/2000/svg">
<path d="M68.0001 90.6676C66.8794 90.6676 65.7838 90.9999 64.8519 91.6226C63.92 92.2452 63.1937 93.1302 62.7648 94.1657C62.3359 95.2011 62.2237 96.3405 62.4424 97.4397C62.661 98.539 63.2007 99.5487 63.9932 100.341C64.7857 101.134 65.7954 101.673 66.8946 101.892C67.9939 102.111 69.1332 101.998 70.1687 101.57C71.2041 101.141 72.0891 100.414 72.7118 99.4825C73.3345 98.5506 73.6668 97.455 73.6668 96.3342C73.6668 94.8313 73.0698 93.39 72.0071 92.3273C70.9444 91.2646 69.503 90.6676 68.0001 90.6676ZM128.463 98.9976L82.8468 19.6642C81.3724 17.0208 79.2189 14.819 76.6089 13.2862C73.9989 11.7534 71.027 10.9453 68.0001 10.9453C64.9733 10.9453 62.0014 11.7534 59.3914 13.2862C56.7814 14.819 54.6279 17.0208 53.1535 19.6642L7.82014 98.9976C6.29465 101.57 5.47495 104.5 5.44379 107.491C5.41264 110.482 6.17113 113.428 7.64269 116.032C9.11426 118.636 11.2468 120.805 13.825 122.322C16.4032 123.838 19.3359 124.647 22.3268 124.668H113.673C116.688 124.697 119.657 123.925 122.275 122.429C124.893 120.933 127.066 118.768 128.571 116.155C130.076 113.543 130.86 110.577 130.841 107.562C130.822 104.547 130.001 101.591 128.463 98.9976ZM118.66 110.331C118.163 111.215 117.439 111.949 116.562 112.457C115.685 112.966 114.687 113.229 113.673 113.221H22.3268C21.3131 113.229 20.3157 112.966 19.4386 112.457C18.5615 111.949 17.8368 111.215 17.3401 110.331C16.8428 109.469 16.581 108.492 16.581 107.498C16.581 106.503 16.8428 105.526 17.3401 104.664L62.6735 25.3309C63.149 24.4027 63.8715 23.6237 64.7613 23.0798C65.6512 22.5358 66.6739 22.248 67.7168 22.248C68.7597 22.248 69.7824 22.5358 70.6723 23.0798C71.5621 23.6237 72.2846 24.4027 72.7601 25.3309L118.377 104.664C118.939 105.513 119.262 106.498 119.312 107.515C119.362 108.532 119.137 109.544 118.66 110.444V110.331ZM68.0001 45.3342C66.4973 45.3342 65.0559 45.9312 63.9932 46.9939C62.9305 48.0567 62.3335 49.498 62.3335 51.0009V73.6676C62.3335 75.1704 62.9305 76.6118 63.9932 77.6745C65.0559 78.7372 66.4973 79.3342 68.0001 79.3342C69.503 79.3342 70.9444 78.7372 72.0071 77.6745C73.0698 76.6118 73.6668 75.1704 73.6668 73.6676V51.0009C73.6668 49.498 73.0698 48.0567 72.0071 46.9939C70.9444 45.9312 69.503 45.3342 68.0001 45.3342Z" fill="black"/>
</svg>
