<svg width="64" height="64" viewBox="0 0 64 64" fill="none" xmlns="http://www.w3.org/2000/svg">
<path d="M23.0453 45.728L22.5969 45.344C22.4303 45.2229 22.2494 45.126 22.0589 45.056L21.5209 44.8C21.0361 44.6915 20.5338 44.7137 20.059 44.8645C19.5842 45.0153 19.1519 45.29 18.8009 45.664C18.5369 45.975 18.3246 46.3322 18.1732 46.72C17.947 47.3031 17.8869 47.9447 18.0006 48.5642C18.1143 49.1837 18.3965 49.7534 18.8119 50.2015C19.2273 50.6496 19.7572 50.9562 20.335 51.0826C20.9128 51.2091 21.5126 51.1497 22.0589 50.912C22.4161 50.7265 22.7479 50.4896 23.0453 50.208C23.46 49.758 23.741 49.1866 23.8527 48.5658C23.9644 47.945 23.9019 47.3028 23.673 46.72C23.5239 46.35 23.311 46.0134 23.0453 45.728ZM32.8791 0H8.96703C6.58883 0 4.30803 1.01143 2.62638 2.81178C0.944739 4.61212 0 7.05392 0 9.6V54.4C0 56.9461 0.944739 59.3879 2.62638 61.1882C4.30803 62.9886 6.58883 64 8.96703 64H32.8791C35.2573 64 37.5381 62.9886 39.2198 61.1882C40.9014 59.3879 41.8462 56.9461 41.8462 54.4V9.6C41.8462 7.05392 40.9014 4.61212 39.2198 2.81178C37.5381 1.01143 35.2573 0 32.8791 0ZM37.2327 54.4C37.2327 55.2487 36.4629 56.9769 35.9024 57.577C35.3418 58.1771 33.6719 58.9714 32.8791 58.9714H8.96703C8.1743 58.9714 6.50433 58.1771 5.94378 57.577C5.38324 56.9769 4.61347 55.2487 4.61347 54.4V9.6C4.61347 8.75131 4.92839 7.02309 5.48893 6.42297C6.04948 5.82286 7.50502 4.11429 8.96703 4.57143L32.8791 5.02857C33.6719 5.02857 35.3418 5.82286 35.9024 6.42297C36.4629 7.02309 37.2327 8.75131 37.2327 9.6V54.4Z" fill="#5870FF"/>
<path d="M62.0774 41.0916L57.6682 36.5405C56.7198 35.6319 55.5234 35.0299 54.2329 34.8119C52.9424 34.5938 51.6167 34.7697 50.4261 35.3169L48.5091 33.3849C50.7681 30.3428 51.7998 26.5511 51.3964 22.7732C50.9931 18.9953 49.1847 15.5117 46.3352 13.0236C43.4858 10.5355 39.8069 9.22763 36.0391 9.36336C32.2714 9.49909 28.6945 11.0683 26.0286 13.7551C23.3627 16.4419 21.8057 20.0468 21.6711 23.8441C21.5364 27.6414 22.834 31.3491 25.3028 34.2209C27.7716 37.0926 31.2281 38.9152 34.9766 39.3217C38.7251 39.7282 42.4873 38.6885 45.5057 36.4117L47.4014 38.3223C46.7946 39.5237 46.5771 40.8867 46.7796 42.2193C46.9822 43.5519 47.5945 44.7868 48.5304 45.75L53.046 50.3011C54.2442 51.5071 55.8683 52.1845 57.5617 52.1845C59.2551 52.1845 60.8792 51.5071 62.0774 50.3011C62.686 49.7013 63.1696 48.985 63.4998 48.1942C63.8299 47.4035 64 46.5542 64 45.6963C64 44.8384 63.8299 43.9892 63.4998 43.1984C63.1696 42.4077 62.686 41.6914 62.0774 41.0916ZM44.0147 31.9895C42.5242 33.4879 40.6265 34.5075 38.5613 34.9194C36.4961 35.3314 34.3561 35.1173 32.4116 34.3041C30.4671 33.4909 28.8053 32.1151 27.6363 30.3505C26.4672 28.586 25.8433 26.5118 25.8433 24.3901C25.8433 22.2683 26.4672 20.1941 27.6363 18.4296C28.8053 16.665 30.4671 15.2893 32.4116 14.4761C34.3561 13.6629 36.4961 13.4487 38.5613 13.8607C40.6265 14.2726 42.5242 15.2922 44.0147 16.7906C45.0065 17.7877 45.7934 18.9722 46.3303 20.2762C46.8672 21.5802 47.1436 22.9782 47.1436 24.3901C47.1436 25.8019 46.8672 27.1999 46.3303 28.5039C45.7934 29.8079 45.0065 30.9924 44.0147 31.9895ZM59.074 47.1668C58.876 47.3681 58.6404 47.5278 58.3809 47.6367C58.1213 47.7457 57.8429 47.8018 57.5617 47.8018C57.2805 47.8018 57.0021 47.7457 56.7425 47.6367C56.483 47.5278 56.2474 47.3681 56.0494 47.1668L51.5337 42.6158C51.3341 42.4162 51.1756 42.1788 51.0675 41.9172C50.9593 41.6556 50.9037 41.375 50.9037 41.0916C50.9037 40.8082 50.9593 40.5276 51.0675 40.266C51.1756 40.0044 51.3341 39.767 51.5337 39.5674C51.7317 39.3662 51.9673 39.2065 52.2269 39.0975C52.4864 38.9885 52.7648 38.9324 53.046 38.9324C53.3272 38.9324 53.6056 38.9885 53.8652 39.0975C54.1248 39.2065 54.3603 39.3662 54.5584 39.5674L59.074 44.1185C59.2737 44.3181 59.4321 44.5555 59.5403 44.8171C59.6484 45.0787 59.7041 45.3593 59.7041 45.6427C59.7041 45.9261 59.6484 46.2066 59.5403 46.4683C59.4321 46.7298 59.2737 46.9673 59.074 47.1668Z" fill="#5870FF"/>
</svg>
