<svg width="20" height="25" viewBox="0 0 20 25" fill="none" xmlns="http://www.w3.org/2000/svg">
<path d="M0.777832 22.7282V8.41914C0.777832 8.15578 0.994161 7.93945 1.25752 7.93945C1.52088 7.93945 1.7372 8.15578 1.7372 8.41914V22.7282C1.7372 22.8599 1.49579 24.8351 1.25752 24.8351C1.01924 24.8351 0.777832 22.8599 0.777832 22.7282Z" fill="#5870FF"/>
<path d="M18.4069 0.835938H3.55233C3.10086 0.835938 2.73718 1.20903 2.73718 1.67304V23.9988C2.73718 24.4597 3.10399 24.8359 3.55233 24.8359H18.4069C18.8584 24.8359 19.2221 24.4628 19.2221 23.9988V1.67304C19.2221 1.21216 18.8553 0.835938 18.4069 0.835938ZM5.13247 4.08087C4.64965 4.08087 4.25462 3.68584 4.25462 3.20302C4.25462 2.7202 4.64965 2.32516 5.13247 2.32516C5.6153 2.32516 6.01034 2.71706 6.01034 3.20302C6.01034 3.68898 5.61843 4.08087 5.13247 4.08087Z" fill="#5870FF"/>
</svg>
