<svg width="64" height="64" viewBox="0 0 64 64" fill="none" xmlns="http://www.w3.org/2000/svg">
<path d="M2.66666 33.3334V46.6667C2.66666 47.374 2.94762 48.0523 3.44771 48.5524C3.94781 49.0525 4.62609 49.3334 5.33333 49.3334H8C8 51.4551 8.84285 53.49 10.3431 54.9903C11.8434 56.4906 13.8783 57.3334 16 57.3334C18.1217 57.3334 20.1566 56.4906 21.6569 54.9903C23.1571 53.49 24 51.4551 24 49.3334H40C40 51.4551 40.8428 53.49 42.3431 54.9903C43.8434 56.4906 45.8783 57.3334 48 57.3334C50.1217 57.3334 52.1566 56.4906 53.6568 54.9903C55.1571 53.49 56 51.4551 56 49.3334H58.6667C59.3739 49.3334 60.0522 49.0525 60.5523 48.5524C61.0524 48.0523 61.3333 47.374 61.3333 46.6667V14.6667C61.3333 12.545 60.4905 10.5102 58.9902 9.00989C57.4899 7.5096 55.4551 6.66675 53.3333 6.66675H29.3333C27.2116 6.66675 25.1768 7.5096 23.6765 9.00989C22.1762 10.5102 21.3333 12.545 21.3333 14.6667V20.0001H16C14.758 20.0001 13.5331 20.2892 12.4223 20.8447C11.3114 21.4001 10.3452 22.2065 9.6 23.2001L3.2 31.7334C3.122 31.8493 3.05926 31.9748 3.01333 32.1067L2.85333 32.4001C2.73564 32.6975 2.67241 33.0136 2.66666 33.3334ZM45.3333 49.3334C45.3333 48.806 45.4897 48.2904 45.7827 47.8519C46.0758 47.4134 46.4922 47.0716 46.9795 46.8697C47.4668 46.6679 48.003 46.6151 48.5202 46.718C49.0375 46.8209 49.5127 47.0749 49.8856 47.4478C50.2586 47.8207 50.5125 48.2959 50.6154 48.8132C50.7183 49.3305 50.6655 49.8666 50.4637 50.3539C50.2618 50.8412 49.92 51.2577 49.4815 51.5507C49.043 51.8437 48.5274 52.0001 48 52.0001C47.2928 52.0001 46.6145 51.7191 46.1144 51.219C45.6143 50.7189 45.3333 50.0407 45.3333 49.3334ZM26.6667 14.6667C26.6667 13.9595 26.9476 13.2812 27.4477 12.7811C27.9478 12.281 28.6261 12.0001 29.3333 12.0001H53.3333C54.0406 12.0001 54.7188 12.281 55.2189 12.7811C55.719 13.2812 56 13.9595 56 14.6667V44.0001H53.92C53.1702 43.1751 52.2562 42.516 51.2368 42.065C50.2173 41.6139 49.1148 41.3809 48 41.3809C46.8852 41.3809 45.7827 41.6139 44.7632 42.065C43.7438 42.516 42.8298 43.1751 42.08 44.0001H26.6667V14.6667ZM21.3333 30.6667H10.6667L13.8667 26.4001C14.1151 26.0689 14.4371 25.8001 14.8074 25.6149C15.1777 25.4298 15.586 25.3334 16 25.3334H21.3333V30.6667ZM13.3333 49.3334C13.3333 48.806 13.4897 48.2904 13.7827 47.8519C14.0758 47.4134 14.4922 47.0716 14.9795 46.8697C15.4668 46.6679 16.003 46.6151 16.5202 46.718C17.0375 46.8209 17.5127 47.0749 17.8856 47.4478C18.2586 47.8207 18.5125 48.2959 18.6154 48.8132C18.7183 49.3305 18.6655 49.8666 18.4637 50.3539C18.2618 50.8412 17.92 51.2577 17.4815 51.5507C17.043 51.8437 16.5274 52.0001 16 52.0001C15.2928 52.0001 14.6145 51.7191 14.1144 51.219C13.6143 50.7189 13.3333 50.0407 13.3333 49.3334ZM8 36.0001H21.3333V43.4134C19.7595 42.0069 17.6937 41.2793 15.5858 41.3892C13.478 41.4991 11.499 42.4375 10.08 44.0001H8V36.0001Z" fill="#5870FF"/>
</svg>
