<svg width="40" height="31" viewBox="0 0 40 31" fill="none" xmlns="http://www.w3.org/2000/svg">
<path d="M5.71429 3.31321H5.46429V3.56321V22.6541V22.9041H5.71429H34.2857H34.5357V22.6541V3.56321V3.31321H34.2857H5.71429ZM34.2854 25.1314H5.71452C5.01956 25.1307 4.35547 24.8668 3.86744 24.401C3.37986 23.9355 3.1079 23.3071 3.10714 22.6541C3.10714 22.654 3.10714 22.6539 3.10714 22.6539V3.56347C3.10714 3.5634 3.10714 3.56333 3.10714 3.56325C3.10789 2.9103 3.37985 2.2818 3.86743 1.81637C4.35544 1.35055 5.01949 1.08663 5.7144 1.08594H34.2856C34.9805 1.08663 35.6446 1.35055 36.1326 1.81637C36.6202 2.28185 36.8922 2.91044 36.8929 3.56347V22.6537C36.8918 23.3067 36.6197 23.9351 36.1321 24.4006C35.6442 24.8664 34.9802 25.1304 34.2854 25.1314ZM0.25 28.3587H39.75V30.5859H0.25V28.3587Z" fill="#5870FF" stroke="#FCF7ED" stroke-width="0.5"/>
</svg>
