<svg width="13" height="14" viewBox="0 0 13 14" fill="none" xmlns="http://www.w3.org/2000/svg">
<path d="M12.0433 9.2961C12.3448 8.56815 12.5 7.78793 12.5 7C12.5 5.4087 11.8679 3.88258 10.7426 2.75736C9.61742 1.63214 8.0913 1 6.5 1C4.9087 1 3.38258 1.63214 2.25736 2.75736C1.13214 3.88258 0.5 5.4087 0.5 7C0.5 7.78793 0.655195 8.56815 0.956723 9.2961C1.25825 10.0241 1.70021 10.6855 2.25736 11.2426C2.81451 11.7998 3.47595 12.2417 4.2039 12.5433C4.93185 12.8448 5.71207 13 6.5 13C7.28793 13 8.06815 12.8448 8.7961 12.5433C9.52405 12.2417 10.1855 11.7998 10.7426 11.2426C11.2998 10.6855 11.7417 10.0241 12.0433 9.2961Z" fill="#FCF7ED"/>
<path d="M8.38533 8.88533C7.88526 9.38526 7.2071 9.6661 6.5 9.6661C5.7929 9.6661 5.11474 9.38526 4.61467 8.88533M4.5 5.66667H4.50667M8.5 5.66667H8.50667M12.5 7C12.5 7.78793 12.3448 8.56815 12.0433 9.2961C11.7417 10.0241 11.2998 10.6855 10.7426 11.2426C10.1855 11.7998 9.52405 12.2417 8.7961 12.5433C8.06815 12.8448 7.28793 13 6.5 13C5.71207 13 4.93185 12.8448 4.2039 12.5433C3.47595 12.2417 2.81451 11.7998 2.25736 11.2426C1.70021 10.6855 1.25825 10.0241 0.956723 9.2961C0.655195 8.56815 0.5 7.78793 0.5 7C0.5 5.4087 1.13214 3.88258 2.25736 2.75736C3.38258 1.63214 4.9087 1 6.5 1C8.0913 1 9.61742 1.63214 10.7426 2.75736C11.8679 3.88258 12.5 5.4087 12.5 7Z" stroke="#5870FF" stroke-linecap="round" stroke-linejoin="round"/>
</svg>
