<svg width="11" height="11" viewBox="0 0 11 11" fill="none" xmlns="http://www.w3.org/2000/svg">
<path d="M4.83431 1.04895C5.04431 0.404255 5.95641 0.404255 6.16571 1.04895L6.91471 3.35335C6.96047 3.4937 7.04942 3.61598 7.16886 3.70273C7.28829 3.78948 7.43209 3.83625 7.57971 3.83635H10.0031C10.6814 3.83635 10.9628 4.70435 10.4147 5.10335L8.45471 6.52716C8.33503 6.61398 8.24591 6.73646 8.20014 6.87705C8.15437 7.01764 8.15428 7.16912 8.19991 7.30976L8.94891 9.61416C9.15891 10.2589 8.42041 10.7958 7.87091 10.3968L5.91091 8.97295C5.79135 8.88616 5.6474 8.83941 5.49966 8.83941C5.35192 8.83941 5.20796 8.88616 5.08841 8.97295L3.12841 10.3968C2.57961 10.7958 1.84181 10.2589 2.05111 9.61416L2.80011 7.30976C2.84573 7.16912 2.84565 7.01764 2.79987 6.87705C2.7541 6.73646 2.66498 6.61398 2.54531 6.52716L0.586006 5.10406C0.0379063 4.70506 0.320006 3.83705 0.997606 3.83705H3.42031C3.56804 3.83709 3.712 3.79039 3.83157 3.70363C3.95115 3.61688 4.04021 3.49451 4.08601 3.35405L4.83501 1.04965L4.83431 1.04895Z" fill="#5870FF"/>
</svg>
