<svg width="203" height="205" viewBox="0 0 203 205" fill="none" xmlns="http://www.w3.org/2000/svg">
<path d="M115.529 115.154H184.3C186.088 115.154 187.512 112.82 187.512 111.039L187.547 7.31495C187.547 3.28568 184.37 0 180.481 0H20.2637C16.3746 0 13.1973 3.28568 13.1973 7.31495L13.1626 111.039C13.1626 112.82 14.621 115.154 16.4093 115.154H85.1803M18.4059 4.51348H180.481C181.974 4.51348 182.304 5.39542 182.304 5.39542L181.713 109.793H18.3886V107.839L18.4233 4.51348H18.4059Z" fill="#C94403"/>
<path d="M195.639 127C202.184 127 201.993 124.181 201.993 124.181H202.045V119.651H118.1C118.1 120.896 116.867 121.916 115.357 121.916H85.1816C83.6711 121.916 82.4384 120.896 82.4384 119.651H0.0902396V124.181H0.0381535C0.0381535 124.181 -0.829948 127 5.71554 127H195.639Z" fill="#C94403"/>
<path d="M63.1825 199H72.4625V196.42H66.4625V185.84H63.1825V199ZM77.3889 199.16C79.1889 199.16 80.3089 198.4 80.6089 197H80.6289C80.6289 197.6 80.5489 198.5 80.4889 199H83.5289V193C83.5289 190.36 81.6889 188.96 78.5489 188.96C75.5489 188.96 73.7889 190.14 73.7889 192.14C73.7889 192.34 73.8089 192.56 73.8289 192.72H76.6289C76.6089 192.52 76.6089 192.36 76.6089 192.3C76.6089 191.5 77.2689 191.02 78.4089 191.02C79.8089 191.02 80.4889 191.5 80.4889 192.7V193.36H77.2689C74.6489 193.36 73.4889 194.54 73.4889 196.16C73.4889 198.16 75.0889 199.16 77.3889 199.16ZM77.9889 197.1C76.8889 197.1 76.2289 196.7 76.2289 195.94C76.2289 195.38 76.7289 195 77.5489 195H80.4889V195.2C80.4889 196.4 79.5689 197.1 77.9889 197.1ZM84.9966 202.96H88.0366V199.22C88.0366 198.86 87.9766 197.88 87.9366 197.22H87.9566C88.3966 198.42 89.5166 199.16 91.3166 199.16C94.0966 199.16 95.8966 197.04 95.8966 193.84C95.8966 190.92 94.0966 188.96 91.3366 188.96C89.6366 188.96 88.3766 189.78 87.9966 191.14H87.9766L88.0366 189.12H84.9966V202.96ZM90.5966 196.84C89.0566 196.84 88.0366 195.9 88.0366 194.48V194.04C88.0366 192.38 89.0566 191.28 90.5766 191.28C91.9566 191.28 92.8766 192.36 92.8766 193.96C92.8766 195.68 91.9566 196.84 90.5966 196.84ZM102.262 199.16C103.082 199.16 103.922 199 104.182 198.94V196.64C103.842 196.72 103.222 196.78 102.802 196.78C101.602 196.78 101.122 196.46 101.122 195.44V191.48H104.282V189.12H101.122V186.88H98.6218L98.4818 188.26C98.4218 188.86 98.2618 189.12 97.8018 189.12H96.6218V191.48H98.0818V195.6C98.0818 197.8 99.1818 199.16 102.262 199.16ZM110.332 199.16C113.592 199.16 115.712 197.28 115.712 194.08C115.712 190.86 113.592 188.96 110.332 188.96C107.072 188.96 104.952 190.86 104.952 194.08C104.952 197.28 107.072 199.16 110.332 199.16ZM110.332 196.84C108.852 196.84 107.992 195.82 107.992 194.08C107.992 192.32 108.852 191.28 110.332 191.28C111.812 191.28 112.672 192.32 112.672 194.08C112.672 195.82 111.812 196.84 110.332 196.84ZM117.086 202.96H120.126V199.22C120.126 198.86 120.066 197.88 120.026 197.22H120.046C120.486 198.42 121.606 199.16 123.406 199.16C126.186 199.16 127.986 197.04 127.986 193.84C127.986 190.92 126.186 188.96 123.426 188.96C121.726 188.96 120.466 189.78 120.086 191.14H120.066L120.126 189.12H117.086V202.96ZM122.686 196.84C121.146 196.84 120.126 195.9 120.126 194.48V194.04C120.126 192.38 121.146 191.28 122.666 191.28C124.046 191.28 124.966 192.36 124.966 193.96C124.966 195.68 124.046 196.84 122.686 196.84ZM134.013 199.16C137.393 199.16 139.173 197.94 139.173 195.86C139.173 195 138.713 194.26 138.073 193.9C137.333 193.48 136.473 193.36 135.253 193.24C134.193 193.14 133.313 193.06 132.813 192.94C132.253 192.8 132.093 192.48 132.093 192.06C132.093 191.38 132.693 190.92 134.053 190.92C135.553 190.92 136.033 191.46 136.053 192.5H138.733C138.733 190.2 137.253 188.96 134.013 188.96C131.273 188.96 129.073 190.14 129.073 192.28C129.073 193.1 129.453 193.82 130.013 194.22C130.613 194.64 131.713 194.86 133.133 194.98C134.113 195.06 134.913 195.14 135.433 195.26C135.953 195.38 136.133 195.66 136.133 196.02C136.133 196.74 135.573 197.2 133.993 197.2C132.253 197.2 131.793 196.6 131.793 195.68H129.073C129.073 197.68 130.533 199.16 134.013 199.16Z" fill="black"/>
</svg>
