<svg width="161" height="205" viewBox="0 0 161 205" fill="none" xmlns="http://www.w3.org/2000/svg">
<path d="M64.4244 0H16.3031C10.9611 0 6.61804 4.19942 6.61804 9.35129V117.649C6.61804 122.801 10.9828 127 16.3031 127H64.4244C69.7664 127 74.1095 122.801 74.1095 117.649V9.35129C74.1095 4.19942 69.7447 0 64.4244 0ZM31.8513 10.0873C32.9805 10.0873 33.8926 10.9964 33.8926 12.122C33.8926 13.2477 32.9805 14.1568 31.8513 14.1568C30.7221 14.1568 29.8101 13.2477 29.8101 12.122C29.8101 10.9964 30.7221 10.0873 31.8513 10.0873ZM21.2325 31.5389C18.4964 31.5389 16.2814 29.331 16.2814 26.6035C16.2814 23.8761 18.4964 21.6681 21.2325 21.6681C23.9686 21.6681 26.1836 23.8761 26.1836 26.6035C26.1836 29.331 23.9686 31.5389 21.2325 31.5389ZM21.2325 19.0922C18.4964 19.0922 16.2814 16.8843 16.2814 14.1568C16.2814 11.4294 18.4964 9.22141 21.2325 9.22141C23.9686 9.22141 26.1836 11.4294 26.1836 14.1568C26.1836 16.8843 23.9686 19.0922 21.2325 19.0922ZM31.8513 30.4566C31.0478 30.4566 30.3964 29.8072 30.3964 29.0063C30.3964 28.2054 31.0478 27.556 31.8513 27.556C32.6548 27.556 33.3063 28.2054 33.3063 29.0063C33.3063 29.8072 32.6548 30.4566 31.8513 30.4566ZM34.8915 27.3828C34.4572 27.3828 34.1314 27.0365 34.1314 26.6252C34.1314 26.2139 34.4789 25.8676 34.8915 25.8676C35.3041 25.8676 35.6515 26.2139 35.6515 26.6252C35.6515 27.0365 35.3041 27.3828 34.8915 27.3828ZM31.8513 25.2831C29.1152 25.2831 26.9002 23.0752 26.9002 20.3477C26.9002 17.6202 29.1152 15.4123 31.8513 15.4123C34.5875 15.4123 36.8024 17.6202 36.8024 20.3477C36.8024 23.0752 34.5875 25.2831 31.8513 25.2831Z" fill="#C94403"/>
<g clip-path="url(#clip0_953_10968)">
<path d="M144.985 13.4243H100.48C95.5616 13.4243 91.5266 17.1908 91.5266 21.7787V118.646C91.5266 123.254 95.5616 127 100.48 127H144.985C149.923 127 153.938 123.234 153.938 118.646V21.7787C153.938 17.1708 149.903 13.4243 144.985 13.4243ZM117.302 34.2001C117.302 37.025 114.994 39.3289 112.163 39.3289H105.057C102.226 39.3289 99.9177 37.025 99.9177 34.2001V27.6088C99.9177 24.7839 102.226 22.4799 105.057 22.4799H112.163C114.994 22.4799 117.302 24.7839 117.302 27.6088V34.2001ZM122.722 56.8191C120.052 56.8191 117.884 54.6554 117.884 51.9908C117.884 49.3262 120.052 47.1624 122.722 47.1624C125.392 47.1624 127.56 49.3262 127.56 51.9908C127.56 54.6554 125.392 56.8191 122.722 56.8191Z" fill="#C94403"/>
<path d="M122.744 48.1641C120.636 48.1641 118.909 49.887 118.909 51.9907C118.909 54.0943 120.636 55.8172 122.744 55.8172C124.851 55.8172 126.578 54.0943 126.578 51.9907C126.578 49.887 124.851 48.1641 122.744 48.1641Z" fill="#C94403"/>
</g>
<path d="M18.0843 199.2C22.7843 199.2 24.0443 197.2 24.0443 194.96C24.0443 193.72 23.5443 192.78 22.6043 192.28C21.8243 191.86 20.7043 191.62 19.2243 191.38C18.1043 191.2 16.7243 190.98 16.2243 190.76C15.7643 190.56 15.5843 190.2 15.5843 189.56C15.5843 188.68 16.3443 188.02 18.1243 188.02C19.9243 188.02 20.7043 188.84 20.7043 190.34H23.6043C23.6043 187.38 22.2443 185.64 18.0643 185.64C14.2643 185.64 12.3243 187.36 12.3243 189.84C12.3243 191.1 12.7643 192.02 13.6043 192.56C14.3643 193.06 15.6843 193.32 16.9843 193.52C18.0843 193.68 19.4443 193.88 20.0243 194.08C20.5443 194.26 20.7843 194.62 20.7843 195.18C20.7843 196.02 20.2843 196.82 18.0643 196.82C15.8643 196.82 15.2843 195.9 15.2843 194.48H12.3643C12.3643 196.9 13.5643 199.2 18.0843 199.2ZM25.4521 199H28.4921V194.28C28.4921 192.42 29.3321 191.48 30.5121 191.48C31.5521 191.48 32.1521 192.18 32.1521 193.34V199H35.1921V194.22C35.1921 192.4 36.0321 191.48 37.2321 191.48C38.2721 191.48 38.8721 192.18 38.8721 193.34V199H41.9121V192.64C41.9121 190.32 40.6921 188.96 38.5321 188.96C36.6321 188.96 35.5521 189.94 35.1521 191.54H35.1321C34.9121 189.94 33.6921 188.96 31.7921 188.96C29.9921 188.96 28.8721 189.98 28.4121 191.68H28.3921L28.4921 189.12H25.4521V199ZM47.1032 199.16C48.9032 199.16 50.0232 198.4 50.3232 197H50.3432C50.3432 197.6 50.2632 198.5 50.2032 199H53.2432V193C53.2432 190.36 51.4032 188.96 48.2632 188.96C45.2632 188.96 43.5032 190.14 43.5032 192.14C43.5032 192.34 43.5232 192.56 43.5432 192.72H46.3432C46.3232 192.52 46.3232 192.36 46.3232 192.3C46.3232 191.5 46.9832 191.02 48.1232 191.02C49.5232 191.02 50.2032 191.5 50.2032 192.7V193.36H46.9832C44.3632 193.36 43.2032 194.54 43.2032 196.16C43.2032 198.16 44.8032 199.16 47.1032 199.16ZM47.7032 197.1C46.6032 197.1 45.9432 196.7 45.9432 195.94C45.9432 195.38 46.4432 195 47.2632 195H50.2032V195.2C50.2032 196.4 49.2832 197.1 47.7032 197.1ZM54.6708 199H57.7108V194.74C57.7108 192.54 58.6108 191.48 59.9108 191.48C60.8708 191.48 61.4508 192.06 61.4508 193.5C61.4508 193.8 61.4308 194.3 61.3908 194.78H64.1508C64.1908 194.26 64.2508 193.38 64.2508 192.82C64.2508 190.26 63.0708 188.96 61.0508 188.96C59.1108 188.96 58.0508 190.06 57.6308 191.94H57.5908L57.7108 189.12H54.6708V199ZM70.5697 199.16C71.3897 199.16 72.2297 199 72.4897 198.94V196.64C72.1497 196.72 71.5297 196.78 71.1097 196.78C69.9097 196.78 69.4297 196.46 69.4297 195.44V191.48H72.5897V189.12H69.4297V186.88H66.9297L66.7897 188.26C66.7297 188.86 66.5697 189.12 66.1097 189.12H64.9297V191.48H66.3897V195.6C66.3897 197.8 67.4897 199.16 70.5697 199.16ZM78.5194 202.96H81.5594V199.22C81.5594 198.86 81.4994 197.88 81.4594 197.22H81.4794C81.9194 198.42 83.0394 199.16 84.8394 199.16C87.6194 199.16 89.4194 197.04 89.4194 193.84C89.4194 190.92 87.6194 188.96 84.8594 188.96C83.1594 188.96 81.8994 189.78 81.5194 191.14H81.4994L81.5594 189.12H78.5194V202.96ZM84.1194 196.84C82.5794 196.84 81.5594 195.9 81.5594 194.48V194.04C81.5594 192.38 82.5794 191.28 84.0994 191.28C85.4794 191.28 86.3994 192.36 86.3994 193.96C86.3994 195.68 85.4794 196.84 84.1194 196.84ZM90.8046 199H93.8446V194.3C93.8446 192.42 94.8046 191.48 96.4046 191.48C97.7646 191.48 98.5446 192.1 98.5446 193.5V199H101.585V192.82C101.585 190.26 100.045 188.96 97.6646 188.96C95.4246 188.96 94.2646 189.86 93.7646 191.74H93.7246C93.7846 191 93.8446 189.88 93.8446 189.5V185.14H90.8046V199ZM108.211 199.16C111.471 199.16 113.591 197.28 113.591 194.08C113.591 190.86 111.471 188.96 108.211 188.96C104.951 188.96 102.831 190.86 102.831 194.08C102.831 197.28 104.951 199.16 108.211 199.16ZM108.211 196.84C106.731 196.84 105.871 195.82 105.871 194.08C105.871 192.32 106.731 191.28 108.211 191.28C109.691 191.28 110.551 192.32 110.551 194.08C110.551 195.82 109.691 196.84 108.211 196.84ZM114.925 199H117.965V194.3C117.965 192.42 118.925 191.48 120.525 191.48C121.865 191.48 122.665 192.1 122.665 193.5V199H125.705V192.82C125.705 190.26 124.165 188.96 121.785 188.96C119.545 188.96 118.385 189.86 117.885 191.74H117.845L117.965 189.12H114.925V199ZM137.032 193.78C137.032 190.54 135.092 188.96 132.332 188.96C128.992 188.96 126.952 190.9 126.952 194.16C126.952 197.3 128.992 199.16 132.272 199.16C135.092 199.16 136.972 197.84 137.032 195.58H134.352C134.272 196.54 133.512 196.96 132.332 196.96C130.972 196.96 130.152 196.26 130.012 194.64H137.032V193.78ZM134.352 193.02H130.092C130.332 191.72 131.052 191.16 132.332 191.16C133.592 191.16 134.352 191.74 134.352 192.86V193.02ZM143.122 199.16C146.502 199.16 148.282 197.94 148.282 195.86C148.282 195 147.822 194.26 147.182 193.9C146.442 193.48 145.582 193.36 144.362 193.24C143.302 193.14 142.422 193.06 141.922 192.94C141.362 192.8 141.202 192.48 141.202 192.06C141.202 191.38 141.802 190.92 143.162 190.92C144.662 190.92 145.142 191.46 145.162 192.5H147.842C147.842 190.2 146.362 188.96 143.122 188.96C140.382 188.96 138.182 190.14 138.182 192.28C138.182 193.1 138.562 193.82 139.122 194.22C139.722 194.64 140.822 194.86 142.242 194.98C143.222 195.06 144.022 195.14 144.542 195.26C145.062 195.38 145.242 195.66 145.242 196.02C145.242 196.74 144.682 197.2 143.102 197.2C141.362 197.2 140.902 196.6 140.902 195.68H138.182C138.182 197.68 139.642 199.16 143.122 199.16Z" fill="black"/>
<defs>
<clipPath id="clip0_953_10968">
<rect width="62.4114" height="113.576" fill="white" transform="translate(91.5266 13.4243)"/>
</clipPath>
</defs>
</svg>
