<svg width="168" height="215" viewBox="0 0 168 215" fill="none" xmlns="http://www.w3.org/2000/svg">
<path d="M110.911 17.8618C112.208 17.8618 113.259 16.8135 113.259 15.5203C113.259 14.2271 112.208 13.1787 110.911 13.1787C109.615 13.1787 108.564 14.2271 108.564 15.5203C108.564 16.8135 109.615 17.8618 110.911 17.8618Z" fill="#C94403"/>
<path d="M110.908 29.5482C109.434 29.5482 108.26 28.3653 108.26 26.9411C108.26 25.5168 109.459 24.334 110.908 24.334C112.356 24.334 113.555 25.5168 113.555 26.9411C113.555 28.3653 112.356 29.5482 110.908 29.5482Z" fill="#C94403"/>
<path d="M104.49 23.9947C103.017 23.9947 101.843 22.8119 101.843 21.3876C101.843 19.9634 103.042 18.7805 104.49 18.7805C105.939 18.7805 107.137 19.9634 107.137 21.3876C107.137 22.8119 105.939 23.9947 104.49 23.9947Z" fill="#C94403"/>
<path d="M117.903 23.8758C116.43 23.8758 115.256 22.693 115.256 21.2687C115.256 19.8445 116.455 18.6616 117.903 18.6616C119.352 18.6616 120.551 19.8445 120.551 21.2687C120.551 22.693 119.352 23.8758 117.903 23.8758Z" fill="#C94403"/>
<path d="M156.44 0H101.096C94.9524 0 89.9575 4.53828 89.9575 10.0663V126.782C89.9575 132.334 94.9774 136.848 101.096 136.848H156.44C162.584 136.848 167.579 132.31 167.579 126.782V10.0663C167.579 4.51414 162.559 0 156.44 0ZM122 25.033C122 28.4367 119.128 31.2128 115.607 31.2128H106.765C103.244 31.2128 100.372 28.4367 100.372 25.033V17.091C100.372 13.6873 103.244 10.9112 106.765 10.9112H115.607C119.128 10.9112 122 13.6873 122 17.091V25.033ZM128.743 52.2868C125.422 52.2868 122.724 49.6797 122.724 46.4691C122.724 43.2585 125.422 40.6514 128.743 40.6514C132.065 40.6514 134.762 43.2585 134.762 46.4691C134.762 49.6797 132.065 52.2868 128.743 52.2868Z" fill="#C94403"/>
<path d="M128.768 41.8584C126.146 41.8584 123.998 43.9344 123.998 46.4691C123.998 49.0038 126.146 51.0798 128.768 51.0798C131.39 51.0798 133.538 49.0038 133.538 46.4691C133.538 43.9344 131.39 41.8584 128.768 41.8584Z" fill="#C94403"/>
<path d="M66.5079 0H11.1388C5.01994 0 0 4.53828 0 10.0663V126.782C0 132.334 5.01994 136.848 11.1388 136.848H66.5079C72.6517 136.848 77.6467 132.31 77.6467 126.782V10.0663C77.6467 4.51414 72.6268 0 66.5079 0ZM57.4421 3.98307H66.5079C70.2292 3.98307 73.2511 6.71086 73.2511 10.0663V126.83C73.2511 130.21 70.2542 132.914 66.5079 132.914H11.1388C7.41752 132.914 4.39557 130.186 4.39557 126.83V10.0663C4.39557 6.68672 7.39255 3.98307 11.1388 3.98307H57.4421Z" fill="#C94403"/>
<path d="M12.9358 14.559C14.5358 14.559 15.8329 13.2729 15.8329 11.6864C15.8329 10.0998 14.5358 8.81372 12.9358 8.81372C11.3358 8.81372 10.0388 10.0998 10.0388 11.6864C10.0388 13.2729 11.3358 14.559 12.9358 14.559Z" fill="#C94403"/>
<path d="M70.0724 209.049C74.7724 209.049 76.0324 207.049 76.0324 204.809C76.0324 203.569 75.5324 202.629 74.5924 202.129C73.8124 201.709 72.6924 201.469 71.2124 201.229C70.0924 201.049 68.7124 200.829 68.2124 200.609C67.7524 200.409 67.5724 200.049 67.5724 199.409C67.5724 198.529 68.3324 197.869 70.1124 197.869C71.9124 197.869 72.6924 198.689 72.6924 200.189H75.5924C75.5924 197.229 74.2324 195.489 70.0524 195.489C66.2524 195.489 64.3124 197.209 64.3124 199.689C64.3124 200.949 64.7524 201.869 65.5924 202.409C66.3524 202.909 67.6724 203.169 68.9724 203.369C70.0724 203.529 71.4324 203.729 72.0124 203.929C72.5324 204.109 72.7724 204.469 72.7724 205.029C72.7724 205.869 72.2724 206.669 70.0524 206.669C67.8524 206.669 67.2724 205.749 67.2724 204.329H64.3524C64.3524 206.749 65.5524 209.049 70.0724 209.049ZM81.2202 209.009C83.0202 209.009 84.1402 208.249 84.4402 206.849H84.4602C84.4602 207.449 84.3802 208.349 84.3202 208.849H87.3602V202.849C87.3602 200.209 85.5202 198.809 82.3802 198.809C79.3802 198.809 77.6202 199.989 77.6202 201.989C77.6202 202.189 77.6402 202.409 77.6602 202.569H80.4602C80.4402 202.369 80.4402 202.209 80.4402 202.149C80.4402 201.349 81.1002 200.869 82.2402 200.869C83.6402 200.869 84.3202 201.349 84.3202 202.549V203.209H81.1002C78.4802 203.209 77.3202 204.389 77.3202 206.009C77.3202 208.009 78.9202 209.009 81.2202 209.009ZM81.8202 206.949C80.7202 206.949 80.0602 206.549 80.0602 205.789C80.0602 205.229 80.5602 204.849 81.3802 204.849H84.3202V205.049C84.3202 206.249 83.4002 206.949 81.8202 206.949ZM88.8278 208.849H91.8678V194.989H88.8278V208.849ZM103.336 203.629C103.336 200.389 101.396 198.809 98.6363 198.809C95.2963 198.809 93.2563 200.749 93.2563 204.009C93.2563 207.149 95.2963 209.009 98.5763 209.009C101.396 209.009 103.276 207.689 103.336 205.429H100.656C100.576 206.389 99.8163 206.809 98.6363 206.809C97.2763 206.809 96.4563 206.109 96.3163 204.489H103.336V203.629ZM100.656 202.869H96.3963C96.6363 201.569 97.3563 201.009 98.6363 201.009C99.8963 201.009 100.656 201.589 100.656 202.709V202.869Z" fill="black"/>
</svg>
