<svg width="161" height="215" viewBox="0 0 161 215" fill="none" xmlns="http://www.w3.org/2000/svg">
<path d="M122.63 0H37.9262C35.3519 0 33.2781 2.12972 33.2781 4.77844V132.222C33.2781 134.852 35.3698 137 37.9262 137H122.63C125.204 137 127.278 134.87 127.278 132.222V4.77844C127.278 2.14761 125.186 0 122.63 0ZM46.9365 18.5232C44.1834 18.5232 41.9308 16.2682 41.9308 13.5121C41.9308 10.756 44.1834 8.50098 46.9365 8.50098C49.6897 8.50098 51.9422 10.7381 51.9422 13.5121C51.9422 16.2861 49.7075 18.5232 46.9365 18.5232Z" fill="#C94403"/>
<path d="M49.964 209H53.244V198.42H56.964V195.84H46.224V198.42H49.964V209ZM60.404 209.16C62.204 209.16 63.324 208.4 63.624 207H63.644C63.644 207.6 63.564 208.5 63.504 209H66.544V203C66.544 200.36 64.704 198.96 61.564 198.96C58.564 198.96 56.804 200.14 56.804 202.14C56.804 202.34 56.824 202.56 56.844 202.72H59.644C59.624 202.52 59.624 202.36 59.624 202.3C59.624 201.5 60.284 201.02 61.424 201.02C62.824 201.02 63.504 201.5 63.504 202.7V203.36H60.284C57.664 203.36 56.504 204.54 56.504 206.16C56.504 208.16 58.104 209.16 60.404 209.16ZM61.004 207.1C59.904 207.1 59.244 206.7 59.244 205.94C59.244 205.38 59.744 205 60.564 205H63.504V205.2C63.504 206.4 62.584 207.1 61.004 207.1ZM74.4116 209.16C77.2316 209.16 78.9116 207.2 78.9116 203.86C78.9116 200.78 77.2516 198.96 74.4316 198.96C72.6716 198.96 71.4116 199.74 71.0316 201.04H70.9916C71.0116 200.56 71.0516 199.74 71.0516 199.28V195.14H68.0116V209H71.0516C71.0116 208.52 70.9716 207.72 70.9516 207.14H70.9716C71.3316 208.4 72.6116 209.16 74.4116 209.16ZM73.6316 206.84C72.0116 206.84 71.0516 205.96 71.0516 204.46V204C71.0516 202.3 72.0116 201.28 73.6116 201.28C75.0316 201.28 75.8716 202.28 75.8716 203.96C75.8716 205.78 75.0316 206.84 73.6316 206.84ZM80.2968 209H83.3368V195.14H80.2968V209ZM94.8052 203.78C94.8052 200.54 92.8652 198.96 90.1052 198.96C86.7652 198.96 84.7252 200.9 84.7252 204.16C84.7252 207.3 86.7652 209.16 90.0452 209.16C92.8652 209.16 94.7452 207.84 94.8052 205.58H92.1252C92.0452 206.54 91.2852 206.96 90.1052 206.96C88.7452 206.96 87.9252 206.26 87.7852 204.64H94.8052V203.78ZM92.1252 203.02H87.8652C88.1052 201.72 88.8252 201.16 90.1052 201.16C91.3652 201.16 92.1252 201.74 92.1252 202.86V203.02ZM101.156 209.16C101.976 209.16 102.816 209 103.076 208.94V206.64C102.736 206.72 102.116 206.78 101.696 206.78C100.496 206.78 100.016 206.46 100.016 205.44V201.48H103.176V199.12H100.016V196.88H97.5157L97.3757 198.26C97.3157 198.86 97.1557 199.12 96.6957 199.12H95.5157V201.48H96.9757V205.6C96.9757 207.8 98.0757 209.16 101.156 209.16ZM108.943 209.16C112.323 209.16 114.103 207.94 114.103 205.86C114.103 205 113.643 204.26 113.003 203.9C112.263 203.48 111.403 203.36 110.183 203.24C109.123 203.14 108.243 203.06 107.743 202.94C107.183 202.8 107.023 202.48 107.023 202.06C107.023 201.38 107.623 200.92 108.983 200.92C110.483 200.92 110.963 201.46 110.983 202.5H113.663C113.663 200.2 112.183 198.96 108.943 198.96C106.203 198.96 104.003 200.14 104.003 202.28C104.003 203.1 104.383 203.82 104.943 204.22C105.543 204.64 106.643 204.86 108.063 204.98C109.043 205.06 109.843 205.14 110.363 205.26C110.883 205.38 111.063 205.66 111.063 206.02C111.063 206.74 110.503 207.2 108.923 207.2C107.183 207.2 106.723 206.6 106.723 205.68H104.003C104.003 207.68 105.463 209.16 108.943 209.16Z" fill="black"/>
</svg>
