<svg width="108" height="20" viewBox="0 0 108 20" fill="none" xmlns="http://www.w3.org/2000/svg">
<path d="M20.667 0H0.666992V20H20.667V0Z" fill="#4BC189"/>
<path d="M42.3335 0H22.3335V20H42.3335V0Z" fill="#4BC189"/>
<path d="M64.0005 0H44.0005V20H64.0005V0Z" fill="#4BC189"/>
<path d="M85.667 0H65.667V20H85.667V0Z" fill="#4BC189"/>
<path d="M107.333 0H87.3335V20H107.333V0Z" fill="#4BC189"/>
<path d="M10.6665 13.4792L13.7082 12.7083L14.979 16.625L10.6665 13.4792ZM17.6665 8.41667H12.3123L10.6665 3.375L9.02067 8.41667H3.6665L7.99984 11.5417L6.354 16.5833L10.6873 13.4583L13.354 11.5417L17.6665 8.41667Z" fill="white"/>
<path d="M32.3335 13.4792L35.3752 12.7083L36.646 16.625L32.3335 13.4792ZM39.3335 8.41667H33.9793L32.3335 3.375L30.6877 8.41667H25.3335L29.6668 11.5417L28.021 16.5833L32.3543 13.4583L35.021 11.5417L39.3335 8.41667Z" fill="white"/>
<path d="M54 13.4792L57.0417 12.7083L58.3125 16.625L54 13.4792ZM61 8.41667H55.6458L54 3.375L52.3542 8.41667H47L51.3333 11.5417L49.6875 16.5833L54.0208 13.4583L56.6875 11.5417L61 8.41667Z" fill="white"/>
<path d="M75.6665 13.4792L78.7082 12.7083L79.979 16.625L75.6665 13.4792ZM82.6665 8.41667H77.3123L75.6665 3.375L74.0207 8.41667H68.6665L72.9998 11.5417L71.354 16.5833L75.6873 13.4583L78.354 11.5417L82.6665 8.41667Z" fill="white"/>
<path d="M97.3335 13.4792L100.375 12.7083L101.646 16.625L97.3335 13.4792ZM104.333 8.41667H98.9793L97.3335 3.375L95.6877 8.41667H90.3335L94.6668 11.5417L93.021 16.5833L97.3543 13.4583L100.021 11.5417L104.333 8.41667Z" fill="white"/>
</svg>
