<svg width="40" height="40" viewBox="0 0 40 40" fill="none" xmlns="http://www.w3.org/2000/svg">
<path d="M30.4167 9.66732H34.5833C35.6884 9.66732 36.7482 10.1063 37.5296 10.8877C38.311 11.6691 38.75 12.7289 38.75 13.834V26.334C38.75 27.4391 38.311 28.4989 37.5296 29.2803C36.7482 30.0617 35.6884 30.5006 34.5833 30.5006H30.4167V38.834L22.0833 30.5006H13.75C13.2028 30.5012 12.6608 30.3937 12.1553 30.1841C11.6497 29.9746 11.1906 29.6673 10.8042 29.2798M10.8042 29.2798L17.9167 22.1673H26.25C27.3551 22.1673 28.4149 21.7283 29.1963 20.9469C29.9777 20.1655 30.4167 19.1057 30.4167 18.0007V5.50065C30.4167 4.39558 29.9777 3.33577 29.1963 2.55437C28.4149 1.77297 27.3551 1.33398 26.25 1.33398H5.41667C4.3116 1.33398 3.25179 1.77297 2.47039 2.55437C1.68899 3.33577 1.25 4.39558 1.25 5.50065V18.0007C1.25 19.1057 1.68899 20.1655 2.47039 20.9469C3.25179 21.7283 4.3116 22.1673 5.41667 22.1673H9.58333V30.5006L10.8042 29.2798Z" stroke="#5870FF" stroke-width="2" stroke-linecap="round" stroke-linejoin="round"/>
</svg>
