<svg width="31" height="30" viewBox="0 0 31 30" fill="none" xmlns="http://www.w3.org/2000/svg">
<g clip-path="url(#clip0_1915_9586)">
<path d="M15.5 0C7.21625 0 0.5 6.71625 0.5 15C0.5 23.2838 7.21625 30 15.5 30C23.7838 30 30.5 23.2838 30.5 15C30.5 6.71625 23.7838 0 15.5 0ZM21.0513 21.115C18.4237 21.295 12.5712 21.295 9.9475 21.115C7.1025 20.92 6.77125 19.5275 6.75 15C6.77125 10.4637 7.10625 9.08 9.9475 8.885C12.5712 8.705 18.425 8.705 21.0513 8.885C23.8975 9.08 24.2275 10.4725 24.25 15C24.2275 19.5362 23.8937 20.92 21.0513 21.115ZM13 12.0725L19.1462 14.995L13 17.9275V12.0725Z" fill="#5870FF"/>
</g>
<defs>
<clipPath id="clip0_1915_9586">
<rect width="30" height="30" fill="white" transform="translate(0.5)"/>
</clipPath>
</defs>
</svg>
