<svg width="31" height="30" viewBox="0 0 31 30" fill="none" xmlns="http://www.w3.org/2000/svg">
<g clip-path="url(#clip0_1915_9582)">
<path d="M19.0363 7.8775C18.1138 7.835 17.8363 7.8275 15.5 7.8275C13.1637 7.8275 12.8875 7.83625 11.965 7.8775C9.59125 7.98625 8.48625 9.11 8.3775 11.465C8.33625 12.3875 8.32625 12.6637 8.32625 15C8.32625 17.3363 8.33625 17.6125 8.3775 18.5363C8.48625 20.885 9.58625 22.015 11.965 22.1237C12.8862 22.165 13.1637 22.175 15.5 22.175C17.8375 22.175 18.1138 22.1662 19.0363 22.1237C21.41 22.0162 22.5138 20.8888 22.6237 18.5363C22.665 17.6138 22.6737 17.3363 22.6737 15C22.6737 12.6637 22.665 12.3875 22.6237 11.465C22.5138 9.11125 21.4075 7.98625 19.0363 7.8775ZM15.5 19.4937C13.0188 19.4937 11.0062 17.4825 11.0062 15C11.0062 12.5188 13.0188 10.5075 15.5 10.5075C17.9813 10.5075 19.9937 12.5188 19.9937 15C19.9937 17.4813 17.9813 19.4937 15.5 19.4937ZM20.1713 11.38C19.5913 11.38 19.1213 10.91 19.1213 10.33C19.1213 9.75 19.5913 9.28 20.1713 9.28C20.7513 9.28 21.2212 9.75 21.2212 10.33C21.2212 10.9087 20.7513 11.38 20.1713 11.38ZM18.4163 15C18.4163 16.6112 17.11 17.9163 15.5 17.9163C13.89 17.9163 12.5837 16.6112 12.5837 15C12.5837 13.3888 13.89 12.0837 15.5 12.0837C17.11 12.0837 18.4163 13.3888 18.4163 15ZM15.5 0C7.21625 0 0.5 6.71625 0.5 15C0.5 23.2838 7.21625 30 15.5 30C23.7838 30 30.5 23.2838 30.5 15C30.5 6.71625 23.7838 0 15.5 0ZM24.1975 18.6075C24.0538 21.7887 22.2825 23.5513 19.1087 23.6975C18.175 23.74 17.8762 23.75 15.5 23.75C13.1237 23.75 12.8263 23.74 11.8925 23.6975C8.7125 23.5513 6.94875 21.7862 6.8025 18.6075C6.76 17.675 6.75 17.3762 6.75 15C6.75 12.6237 6.76 12.3263 6.8025 11.3925C6.94875 8.2125 8.71375 6.44875 11.8925 6.30375C12.8263 6.26 13.1237 6.25 15.5 6.25C17.8762 6.25 18.175 6.26 19.1087 6.30375C22.29 6.45 24.055 8.21875 24.1975 11.3925C24.24 12.3263 24.25 12.6237 24.25 15C24.25 17.3762 24.24 17.675 24.1975 18.6075Z" fill="#5870FF"/>
</g>
<defs>
<clipPath id="clip0_1915_9582">
<rect width="30" height="30" fill="white" transform="translate(0.5)"/>
</clipPath>
</defs>
</svg>
