<svg width="40" height="32" viewBox="0 0 40 32" fill="none" xmlns="http://www.w3.org/2000/svg">
<path d="M1.25 7.66602L17.6875 18.6243C18.3722 19.0812 19.1769 19.325 20 19.325C20.8231 19.325 21.6278 19.0812 22.3125 18.6243L38.75 7.66602M5.41667 30.5827H34.5833C35.6884 30.5827 36.7482 30.1437 37.5296 29.3623C38.311 28.5809 38.75 27.5211 38.75 26.416V5.58268C38.75 4.47761 38.311 3.41781 37.5296 2.6364C36.7482 1.855 35.6884 1.41602 34.5833 1.41602H5.41667C4.3116 1.41602 3.25179 1.855 2.47039 2.6364C1.68899 3.41781 1.25 4.47761 1.25 5.58268V26.416C1.25 27.5211 1.68899 28.5809 2.47039 29.3623C3.25179 30.1437 4.3116 30.5827 5.41667 30.5827Z" stroke="#5870FF" stroke-width="2" stroke-linecap="round" stroke-linejoin="round"/>
</svg>
