<svg width="31" height="30" viewBox="0 0 31 30" fill="none" xmlns="http://www.w3.org/2000/svg">
<g clip-path="url(#clip0_1915_9578)">
<path d="M15.5 0C7.21625 0 0.5 6.71625 0.5 15C0.5 23.2838 7.21625 30 15.5 30C23.7838 30 30.5 23.2838 30.5 15C30.5 6.71625 23.7838 0 15.5 0ZM19.25 10H17.5625C16.89 10 16.75 10.2762 16.75 10.9725V12.5H19.25L18.9888 15H16.75V23.75H13V15H10.5V12.5H13V9.615C13 7.40375 14.1638 6.25 16.7863 6.25H19.25V10Z" fill="#5870FF"/>
</g>
<defs>
<clipPath id="clip0_1915_9578">
<rect width="30" height="30" fill="white" transform="translate(0.5)"/>
</clipPath>
</defs>
</svg>
