<svg width="31" height="30" viewBox="0 0 31 30" fill="none" xmlns="http://www.w3.org/2000/svg">
<g clip-path="url(#clip0_1915_9580)">
<path d="M15.5 0C7.21625 0 0.5 6.71625 0.5 15C0.5 23.2838 7.21625 30 15.5 30C23.7838 30 30.5 23.2838 30.5 15C30.5 6.71625 23.7838 0 15.5 0ZM23.0825 12.0563C23.3113 17.1063 19.545 22.7362 12.8775 22.7362C10.85 22.7362 8.96375 22.1413 7.375 21.1225C9.28 21.3475 11.1812 20.8175 12.69 19.6362C11.12 19.6075 9.79375 18.5688 9.335 17.1425C9.89875 17.25 10.4538 17.2188 10.9575 17.0812C9.23125 16.7337 8.03875 15.1788 8.0775 13.515C8.5625 13.7838 9.115 13.945 9.70375 13.9637C8.105 12.895 7.6525 10.7837 8.5925 9.17C10.3625 11.3425 13.0087 12.7712 15.9925 12.9212C15.4688 10.6762 17.1725 8.5125 19.4912 8.5125C20.5225 8.5125 21.4562 8.94875 22.1112 9.64625C22.9287 9.48625 23.6988 9.18625 24.3913 8.775C24.1225 9.61375 23.5538 10.3162 22.8125 10.7613C23.5387 10.6737 24.2313 10.4812 24.8738 10.195C24.3938 10.9175 23.7862 11.55 23.0825 12.0563Z" fill="#5870FF"/>
</g>
<defs>
<clipPath id="clip0_1915_9580">
<rect width="30" height="30" fill="white" transform="translate(0.5)"/>
</clipPath>
</defs>
</svg>
