<svg width="152" height="45" viewBox="0 0 152 45" fill="none" xmlns="http://www.w3.org/2000/svg">
<path d="M146.623 44.7744H6.1792C3.26102 44.7744 0.885742 42.3924 0.885742 39.4765V5.2901C0.885742 2.37304 3.26102 0 6.1792 0H146.623C149.54 0 151.999 2.37304 151.999 5.2901V39.4765C151.999 42.3924 149.54 44.7744 146.623 44.7744Z" fill="black"/>
<path d="M150.915 39.4775C150.915 41.846 148.997 43.7646 146.624 43.7646H6.17857C3.80665 43.7646 1.88135 41.846 1.88135 39.4775V5.28884C1.88135 2.92139 3.80665 0.996094 6.17857 0.996094H146.622C148.997 0.996094 150.914 2.92139 150.914 5.28884L150.915 39.4775Z" fill="black"/>
<path d="M33.7139 22.1456C33.6815 18.5379 36.6679 16.7827 36.8045 16.701C35.1131 14.2351 32.4916 13.8981 31.5704 13.8713C29.3686 13.6396 27.2328 15.1888 26.1112 15.1888C24.9672 15.1888 23.2401 13.8937 21.3786 13.9317C18.9831 13.9687 16.7422 15.3556 15.5131 17.5092C12.9767 21.9005 14.8684 28.3536 17.2985 31.9031C18.5141 33.6414 19.9346 35.5824 21.7939 35.5141C23.6128 35.4391 24.2923 34.3545 26.4873 34.3545C28.6623 34.3545 29.3003 35.5141 31.1965 35.4705C33.1487 35.4391 34.3777 33.7243 35.5508 31.9702C36.9556 29.9778 37.5198 28.0155 37.5421 27.9148C37.4963 27.8991 33.7509 26.4697 33.7139 22.1456Z" fill="#FCF7ED"/>
<path d="M30.1332 11.536C31.1115 10.3126 31.7809 8.6481 31.5951 6.95898C30.1791 7.02167 28.4083 7.93843 27.3885 9.13502C26.4863 10.1895 25.6804 11.9178 25.8886 13.5431C27.4792 13.6617 29.1124 12.7405 30.1332 11.536Z" fill="#FCF7ED"/>
<path d="M60.9339 35.2656H58.3919L56.9994 30.89H52.1593L50.8328 35.2656H48.3579L53.1533 20.3691H56.1151L60.9339 35.2656ZM56.5796 29.0543L55.3203 25.1645C55.1871 24.7671 54.9375 23.8313 54.5692 22.3582H54.5245C54.3778 22.9918 54.1416 23.9276 53.817 25.1645L52.5801 29.0543H56.5796Z" fill="#FCF7ED"/>
<path d="M73.2659 29.7619C73.2659 31.5886 72.7722 33.0326 71.785 34.0927C70.9007 35.0363 69.8026 35.5075 68.4918 35.5075C67.0769 35.5075 66.0606 34.9993 65.4416 33.983H65.3968V39.6413H63.0103V28.0593C63.0103 26.9108 62.9801 25.7322 62.9219 24.5232H65.0207L65.1539 26.2258H65.1987C65.9945 24.943 67.2023 24.3027 68.8231 24.3027C70.0903 24.3027 71.1481 24.8031 71.9943 25.8049C72.8428 26.8079 73.2659 28.1265 73.2659 29.7619ZM70.8346 29.8492C70.8346 28.8037 70.5996 27.9418 70.1272 27.2634C69.6112 26.556 68.9183 26.2023 68.0497 26.2023C67.4609 26.2023 66.9258 26.3993 66.4479 26.7877C65.9688 27.1795 65.6553 27.691 65.5087 28.3246C65.4348 28.6201 65.3979 28.8619 65.3979 29.0522V30.8432C65.3979 31.6245 65.6374 32.2838 66.1165 32.8222C66.5956 33.3606 67.218 33.6292 67.9836 33.6292C68.8825 33.6292 69.5821 33.2822 70.0824 32.5905C70.5839 31.8976 70.8346 30.9842 70.8346 29.8492Z" fill="#FCF7ED"/>
<path d="M85.6202 29.7619C85.6202 31.5886 85.1266 33.0326 84.1382 34.0927C83.255 35.0363 82.1569 35.5075 80.8462 35.5075C79.4313 35.5075 78.4149 34.9993 77.797 33.983H77.7522V39.6413H75.3658V28.0593C75.3658 26.9108 75.3356 25.7322 75.2773 24.5232H77.3761L77.5094 26.2258H77.5541C78.3489 24.943 79.5567 24.3027 81.1786 24.3027C82.4446 24.3027 83.5024 24.8031 84.3509 25.8049C85.196 26.8079 85.6202 28.1265 85.6202 29.7619ZM83.189 29.8492C83.189 28.8037 82.9528 27.9418 82.4804 27.2634C81.9644 26.556 81.2738 26.2023 80.404 26.2023C79.8141 26.2023 79.2802 26.3993 78.8011 26.7877C78.322 27.1795 78.0097 27.691 77.8631 28.3246C77.7903 28.6201 77.7522 28.8619 77.7522 29.0522V30.8432C77.7522 31.6245 77.9918 32.2838 78.4686 32.8222C78.9477 33.3595 79.5701 33.6292 80.338 33.6292C81.2368 33.6292 81.9364 33.2822 82.4368 32.5905C82.9383 31.8976 83.189 30.9842 83.189 29.8492Z" fill="#FCF7ED"/>
<path d="M99.4333 31.0857C99.4333 32.3528 98.9934 33.3838 98.1103 34.1796C97.1398 35.0494 95.7887 35.4837 94.0526 35.4837C92.4497 35.4837 91.1646 35.1747 90.1919 34.5557L90.7449 32.5666C91.7926 33.2002 92.9422 33.5181 94.1947 33.5181C95.0936 33.5181 95.7932 33.3144 96.2958 32.9091C96.7961 32.5039 97.0457 31.9599 97.0457 31.2816C97.0457 30.6771 96.8398 30.1678 96.4267 29.7548C96.0159 29.3417 95.3298 28.9578 94.3716 28.603C91.7635 27.6302 90.4605 26.2053 90.4605 24.3315C90.4605 23.1069 90.9172 22.1028 91.8318 21.3215C92.7429 20.5391 93.9585 20.1484 95.4786 20.1484C96.8342 20.1484 97.9603 20.3846 98.8591 20.8559L98.2625 22.8013C97.423 22.3446 96.4737 22.1163 95.4115 22.1163C94.572 22.1163 93.916 22.3234 93.4459 22.7353C93.0485 23.1035 92.8493 23.5524 92.8493 24.0841C92.8493 24.6729 93.0765 25.1598 93.5332 25.5426C93.9306 25.8964 94.6526 26.2792 95.7003 26.6922C96.9819 27.2082 97.9233 27.8116 98.5289 28.5033C99.1322 29.1929 99.4333 30.0559 99.4333 31.0857Z" fill="#FCF7ED"/>
<path d="M107.324 26.3131H104.693V31.5282C104.693 32.8546 105.157 33.5173 106.086 33.5173C106.512 33.5173 106.866 33.4803 107.146 33.4065L107.212 35.2187C106.742 35.3944 106.123 35.4829 105.356 35.4829C104.413 35.4829 103.677 35.1952 103.145 34.621C102.616 34.0456 102.349 33.0807 102.349 31.7252V26.3108H100.782V24.5199H102.349V22.5531L104.693 21.8457V24.5199H107.324V26.3131Z" fill="#FCF7ED"/>
<path d="M119.191 29.8044C119.191 31.4554 118.719 32.811 117.776 33.871C116.788 34.9624 115.476 35.5064 113.841 35.5064C112.265 35.5064 111.01 34.9837 110.074 33.9382C109.138 32.8927 108.67 31.573 108.67 29.9824C108.67 28.3179 109.152 26.9545 110.118 25.8945C111.082 24.8333 112.382 24.3027 114.018 24.3027C115.594 24.3027 116.862 24.8255 117.819 25.8721C118.735 26.8873 119.191 28.1981 119.191 29.8044ZM116.715 29.8816C116.715 28.891 116.504 28.0414 116.075 27.3328C115.575 26.4754 114.859 26.0478 113.933 26.0478C112.973 26.0478 112.245 26.4765 111.744 27.3328C111.315 28.0425 111.104 28.9055 111.104 29.9264C111.104 30.917 111.315 31.7666 111.744 32.4741C112.26 33.3315 112.981 33.7591 113.911 33.7591C114.822 33.7591 115.538 33.3225 116.054 32.4517C116.494 31.7297 116.715 30.8711 116.715 29.8816Z" fill="#FCF7ED"/>
<path d="M126.949 26.622C126.713 26.5784 126.461 26.556 126.197 26.556C125.358 26.556 124.708 26.8728 124.252 27.5075C123.854 28.0671 123.655 28.7746 123.655 29.6287V35.2646H121.27L121.292 27.906C121.292 26.6679 121.262 25.5407 121.203 24.5244H123.281L123.369 26.5795H123.435C123.687 25.8732 124.084 25.3046 124.628 24.8781C125.16 24.4941 125.734 24.3027 126.353 24.3027C126.573 24.3027 126.773 24.3184 126.949 24.3464V26.622Z" fill="#FCF7ED"/>
<path d="M137.623 29.3864C137.623 29.814 137.595 30.1744 137.535 30.4688H130.376C130.404 31.5299 130.75 32.3415 131.415 32.9012C132.018 33.4015 132.798 33.6522 133.756 33.6522C134.816 33.6522 135.783 33.4832 136.653 33.1441L137.027 34.8007C136.011 35.244 134.811 35.4645 133.426 35.4645C131.76 35.4645 130.453 34.9742 129.502 33.9948C128.552 33.0153 128.077 31.7001 128.077 30.0501C128.077 28.4304 128.519 27.0816 129.404 26.0059C130.331 24.8574 131.584 24.2832 133.16 24.2832C134.708 24.2832 135.88 24.8574 136.676 26.0059C137.306 26.9182 137.623 28.0465 137.623 29.3864ZM135.347 28.7674C135.363 28.0599 135.207 27.4488 134.883 26.9327C134.47 26.2689 133.836 25.9376 132.982 25.9376C132.202 25.9376 131.567 26.2611 131.082 26.9103C130.685 27.4264 130.449 28.0454 130.376 28.7662H135.347V28.7674Z" fill="#FCF7ED"/>
<path d="M55.7903 11.2026C55.7903 12.5201 55.3952 13.5119 54.6061 14.1779C53.8751 14.7924 52.8364 15.1003 51.4909 15.1003C50.8237 15.1003 50.2529 15.0712 49.7749 15.0129V7.81434C50.3984 7.7136 51.07 7.66211 51.7953 7.66211C53.077 7.66211 54.043 7.94083 54.6945 8.49827C55.4243 9.12847 55.7903 10.0296 55.7903 11.2026ZM54.5535 11.2351C54.5535 10.381 54.3273 9.72621 53.8751 9.26951C53.4229 8.81393 52.7625 8.58558 51.8927 8.58558C51.5233 8.58558 51.2088 8.61021 50.948 8.6617V14.1343C51.0924 14.1566 51.3566 14.1667 51.7405 14.1667C52.6382 14.1667 53.3311 13.9171 53.8192 13.4179C54.3072 12.9186 54.5535 12.191 54.5535 11.2351Z" fill="#FCF7ED"/>
<path d="M62.3492 12.3545C62.3492 13.166 62.1175 13.8309 61.6541 14.3525C61.1683 14.8887 60.5247 15.1562 59.721 15.1562C58.9464 15.1562 58.3296 14.8999 57.8696 14.385C57.4106 13.8712 57.1812 13.2231 57.1812 12.4418C57.1812 11.6247 57.4173 10.9542 57.8919 10.4337C58.3666 9.91315 59.0046 9.65234 59.8083 9.65234C60.5829 9.65234 61.2053 9.90868 61.6765 10.4225C62.1242 10.9217 62.3492 11.5664 62.3492 12.3545ZM61.1325 12.3925C61.1325 11.9056 61.0273 11.4881 60.818 11.14C60.5717 10.7191 60.2213 10.5087 59.7658 10.5087C59.2945 10.5087 58.9363 10.7191 58.69 11.14C58.4796 11.4881 58.3755 11.9123 58.3755 12.4138C58.3755 12.9007 58.4807 13.3182 58.69 13.6664C58.9441 14.0872 59.2979 14.2977 59.7546 14.2977C60.2023 14.2977 60.5538 14.0839 60.8068 13.6552C61.0239 13.3003 61.1325 12.8795 61.1325 12.3925Z" fill="#FCF7ED"/>
<path d="M71.1433 9.75977L69.4922 15.0364H68.4176L67.7337 12.7451C67.5602 12.1731 67.4192 11.6045 67.3095 11.0403H67.2882C67.1863 11.6201 67.0453 12.1877 66.864 12.7451L66.1375 15.0364H65.0506L63.498 9.75977H64.7036L65.3002 12.2683C65.4446 12.8615 65.5633 13.4268 65.6584 13.9618H65.6797C65.767 13.5208 65.9114 12.9589 66.1151 12.2794L66.864 9.76089H67.8199L68.5374 12.2257C68.7109 12.8268 68.8519 13.4055 68.9605 13.963H68.993C69.0725 13.4201 69.1922 12.8414 69.3512 12.2257L69.9915 9.76089H71.1433V9.75977Z" fill="#FCF7ED"/>
<path d="M77.2233 15.0359H76.0503V12.0136C76.0503 11.0823 75.6965 10.6167 74.9869 10.6167C74.6387 10.6167 74.3578 10.7443 74.1395 11.0006C73.9235 11.257 73.8138 11.5592 73.8138 11.9051V15.0348H72.6407V11.267C72.6407 10.8036 72.6261 10.301 72.5981 9.75702H73.6291L73.6839 10.582H73.7164C73.8529 10.3257 74.0567 10.1141 74.3242 9.94507C74.6421 9.74806 74.998 9.64844 75.3876 9.64844C75.8801 9.64844 76.2898 9.80739 76.6155 10.1264C77.0207 10.5171 77.2233 11.1002 77.2233 11.8748V15.0359Z" fill="#FCF7ED"/>
<path d="M80.4591 15.0357H79.2871V7.33789H80.4591V15.0357Z" fill="#FCF7ED"/>
<path d="M87.3654 12.3545C87.3654 13.166 87.1336 13.8309 86.6702 14.3525C86.1844 14.8887 85.5397 15.1562 84.7371 15.1562C83.9614 15.1562 83.3446 14.8999 82.8857 14.385C82.4267 13.8712 82.1973 13.2231 82.1973 12.4418C82.1973 11.6247 82.4335 10.9542 82.9081 10.4337C83.3827 9.91315 84.0207 9.65234 84.8233 9.65234C85.599 9.65234 86.2202 9.90868 86.6926 10.4225C87.1404 10.9217 87.3654 11.5664 87.3654 12.3545ZM86.1475 12.3925C86.1475 11.9056 86.0423 11.4881 85.8329 11.14C85.5878 10.7191 85.2363 10.5087 84.7819 10.5087C84.3095 10.5087 83.9513 10.7191 83.7062 11.14C83.4957 11.4881 83.3916 11.9123 83.3916 12.4138C83.3916 12.9007 83.4968 13.3182 83.7062 13.6664C83.9603 14.0872 84.314 14.2977 84.7707 14.2977C85.2184 14.2977 85.5688 14.0839 85.8218 13.6552C86.04 13.3003 86.1475 12.8795 86.1475 12.3925Z" fill="#FCF7ED"/>
<path d="M93.0429 15.0365H91.9895L91.9022 14.4287H91.8698C91.5093 14.9133 90.9956 15.1562 90.3284 15.1562C89.8303 15.1562 89.4273 14.9962 89.124 14.6783C88.8486 14.3895 88.7109 14.0302 88.7109 13.6037C88.7109 12.9589 88.9796 12.4675 89.5202 12.1272C90.0598 11.787 90.8187 11.6202 91.7959 11.628V11.5295C91.7959 10.8344 91.431 10.4874 90.7 10.4874C90.1795 10.4874 89.7206 10.6184 89.3244 10.878L89.0859 10.1079C89.5762 9.80458 90.1818 9.65234 90.8959 9.65234C92.275 9.65234 92.9667 10.3799 92.9667 11.8351V13.7783C92.9667 14.3055 92.9925 14.7253 93.0429 15.0365ZM91.825 13.2231V12.4093C90.531 12.3869 89.884 12.7418 89.884 13.4727C89.884 13.7481 89.9579 13.954 90.109 14.0917C90.2601 14.2294 90.4527 14.2977 90.6821 14.2977C90.9396 14.2977 91.1802 14.216 91.3996 14.0537C91.6202 13.8902 91.7556 13.6832 91.806 13.4291C91.8183 13.372 91.825 13.3026 91.825 13.2231Z" fill="#FCF7ED"/>
<path d="M99.709 15.0357H98.668L98.6131 14.1884H98.5807C98.2482 14.8331 97.6818 15.1555 96.886 15.1555C96.2502 15.1555 95.7207 14.9059 95.301 14.4067C94.8812 13.9074 94.6719 13.2593 94.6719 12.4634C94.6719 11.6094 94.8991 10.9176 95.3558 10.3893C95.798 9.89675 96.3397 9.65049 96.9845 9.65049C97.693 9.65049 98.1889 9.88891 98.471 10.3669H98.4934V7.33789H99.6676V13.6141C99.6676 14.1279 99.681 14.6014 99.709 15.0357ZM98.4934 12.8104V11.9306C98.4934 11.7784 98.4822 11.6553 98.4609 11.5612C98.3949 11.2792 98.2527 11.0419 98.0367 10.8504C97.8184 10.659 97.5553 10.5628 97.252 10.5628C96.8143 10.5628 96.4718 10.7363 96.2199 11.0844C95.9703 11.4325 95.8438 11.8769 95.8438 12.4198C95.8438 12.9414 95.9636 13.3645 96.2043 13.6903C96.4584 14.0373 96.8009 14.2108 97.2296 14.2108C97.6147 14.2108 97.9225 14.0664 98.1564 13.7765C98.3826 13.5089 98.4934 13.1865 98.4934 12.8104Z" fill="#FCF7ED"/>
<path d="M109.741 12.3545C109.741 13.166 109.509 13.8309 109.046 14.3525C108.56 14.8887 107.917 15.1562 107.113 15.1562C106.339 15.1562 105.722 14.8999 105.261 14.385C104.802 13.8712 104.573 13.2231 104.573 12.4418C104.573 11.6247 104.809 10.9542 105.284 10.4337C105.758 9.91315 106.396 9.65234 107.201 9.65234C107.974 9.65234 108.598 9.90868 109.068 10.4225C109.516 10.9217 109.741 11.5664 109.741 12.3545ZM108.525 12.3925C108.525 11.9056 108.42 11.4881 108.211 11.14C107.963 10.7191 107.614 10.5087 107.157 10.5087C106.687 10.5087 106.329 10.7191 106.082 11.14C105.871 11.4881 105.767 11.9123 105.767 12.4138C105.767 12.9007 105.872 13.3182 106.082 13.6664C106.336 14.0872 106.689 14.2977 107.146 14.2977C107.594 14.2977 107.947 14.0839 108.199 13.6552C108.416 13.3003 108.525 12.8795 108.525 12.3925Z" fill="#FCF7ED"/>
<path d="M116.049 15.0359H114.877V12.0136C114.877 11.0823 114.523 10.6167 113.812 10.6167C113.464 10.6167 113.183 10.7443 112.966 11.0006C112.749 11.257 112.64 11.5592 112.64 11.9051V15.0348H111.466V11.267C111.466 10.8036 111.453 10.301 111.425 9.75702H112.455L112.509 10.582H112.542C112.68 10.3257 112.883 10.1141 113.15 9.94507C113.469 9.74806 113.824 9.64844 114.214 9.64844C114.706 9.64844 115.115 9.80739 115.441 10.1264C115.847 10.5171 116.049 11.1002 116.049 11.8748V15.0359Z" fill="#FCF7ED"/>
<path d="M123.945 10.6381H122.653V13.2015C122.653 13.8529 122.882 14.1787 123.337 14.1787C123.547 14.1787 123.722 14.1608 123.86 14.1238L123.89 15.0137C123.658 15.101 123.354 15.1447 122.979 15.1447C122.515 15.1447 122.155 15.0036 121.894 14.7216C121.632 14.4395 121.502 13.9649 121.502 13.2989V10.6381H120.731V9.75944H121.502V8.79231L122.652 8.44531V9.75832H123.944V10.6381H123.945Z" fill="#FCF7ED"/>
<path d="M130.154 15.0357H128.98V12.0358C128.98 11.09 128.626 10.6165 127.917 10.6165C127.373 10.6165 127.002 10.8907 126.798 11.4392C126.763 11.5545 126.743 11.6956 126.743 11.8612V15.0346H125.571V7.33789H126.743V10.518H126.766C127.135 9.93928 127.664 9.65049 128.351 9.65049C128.836 9.65049 129.238 9.80944 129.557 10.1285C129.955 10.5258 130.154 11.1169 130.154 11.8982V15.0357Z" fill="#FCF7ED"/>
<path d="M136.56 12.1469C136.56 12.3573 136.544 12.5342 136.516 12.6786H132.998C133.014 13.2002 133.182 13.5976 133.507 13.8729C133.805 14.1192 134.189 14.2423 134.659 14.2423C135.18 14.2423 135.654 14.1595 136.082 13.9927L136.266 14.8076C135.765 15.0247 135.176 15.1333 134.495 15.1333C133.678 15.1333 133.034 14.8927 132.568 14.4113C132.1 13.93 131.869 13.2841 131.869 12.4737C131.869 11.6779 132.085 11.0152 132.52 10.4869C132.975 9.9227 133.589 9.64062 134.365 9.64062C135.124 9.64062 135.7 9.9227 136.09 10.4869C136.404 10.9346 136.56 11.4887 136.56 12.1469ZM135.441 11.8435C135.449 11.4954 135.372 11.1954 135.213 10.9424C135.01 10.6167 134.7 10.4533 134.28 10.4533C133.897 10.4533 133.585 10.6122 133.346 10.9312C133.151 11.1853 133.036 11.4887 132.998 11.8435H135.441Z" fill="#FCF7ED"/>
</svg>
