<svg width="152" height="45" viewBox="0 0 152 45" fill="none" xmlns="http://www.w3.org/2000/svg">
<g clip-path="url(#clip0_1915_9660)">
<path d="M145.514 44.7736H5.59914C2.52093 44.7736 0.00244141 42.2551 0.00244141 39.1769V5.5967C0.00244141 2.51849 2.52093 0 5.59914 0H145.514C148.593 0 151.111 2.51849 151.111 5.5967V39.1769C151.111 42.2551 148.593 44.7736 145.514 44.7736Z" fill="black"/>
<path d="M145.514 0H5.59914C2.52093 0 0.00244141 2.51849 0.00244141 5.5967V39.1769C0.00244141 42.2551 2.52093 44.7736 5.59914 44.7736H145.514C148.593 44.7736 151.111 42.2551 151.111 39.1769V5.5967C151.111 2.51849 148.593 0 145.514 0ZM145.514 0.895018C148.107 0.895018 150.216 3.00433 150.216 5.5967V39.1769C150.216 41.7692 148.107 43.8786 145.514 43.8786H5.59914C3.00677 43.8786 0.898383 41.7692 0.898383 39.1769V5.5967C0.898383 3.00433 3.00677 0.895018 5.59914 0.895018H145.514Z" fill="black"/>
<path d="M119.699 33.5809H121.788V19.5868H119.699V33.5809ZM138.512 24.6282L136.118 30.6949H136.046L133.561 24.6282H131.312L135.039 33.1074L132.913 37.8243H135.092L140.835 24.6286L138.512 24.6282ZM126.666 31.9913C125.984 31.9913 125.029 31.6489 125.029 30.8029C125.029 29.7228 126.218 29.3088 127.243 29.3088C128.161 29.3088 128.594 29.5065 129.151 29.7767C128.989 31.0731 127.873 31.9913 126.666 31.9913ZM126.919 24.3221C125.407 24.3221 123.841 24.9884 123.193 26.4646L125.047 27.2386C125.443 26.4646 126.181 26.2128 126.955 26.2128C128.035 26.2128 129.134 26.8604 129.151 28.0129V28.1568C128.773 27.9407 127.963 27.6168 126.973 27.6168C124.974 27.6168 122.94 28.7147 122.94 30.767C122.94 32.6393 124.579 33.8457 126.415 33.8457C127.818 33.8457 128.594 33.2156 129.079 32.4772H129.151V33.558H131.168V28.1926C131.168 25.7081 129.313 24.3221 126.919 24.3221ZM114.011 26.3317H111.04V21.5352H114.011C115.572 21.5352 116.459 22.8277 116.459 23.9334C116.459 25.0178 115.572 26.3317 114.011 26.3317ZM113.957 19.5872H108.952V33.5812H111.04V28.2797H113.957C116.272 28.2797 118.548 26.6042 118.548 23.9339C118.548 21.2641 116.272 19.5872 113.957 19.5872ZM86.6667 31.9937C85.2237 31.9937 84.0161 30.7851 84.0161 29.1267C84.0161 27.449 85.2237 26.2234 86.6667 26.2234C88.0913 26.2234 89.2093 27.4491 89.2093 29.1267C89.2093 30.7851 88.0913 31.9937 86.6667 31.9937ZM89.065 25.4115H88.9928C88.5241 24.8527 87.622 24.3477 86.4865 24.3477C84.1057 24.3477 81.9239 26.4399 81.9239 29.1267C81.9239 31.7952 84.1057 33.869 86.4865 33.869C87.622 33.869 88.5241 33.364 88.9928 32.7873H89.065V33.472C89.065 35.294 88.0913 36.2673 86.5224 36.2673C85.2425 36.2673 84.449 35.3477 84.1241 34.5724L82.3031 35.3297C82.8256 36.5915 84.2138 38.143 86.5225 38.143C88.9754 38.143 91.0492 36.7 91.0492 33.1833V24.6361H89.0651L89.065 25.4115ZM92.4921 33.5805H94.583V19.5864H92.4921V33.5805ZM97.6669 28.9641C97.6131 27.1246 99.0923 26.1871 100.156 26.1871C100.986 26.1871 101.688 26.602 101.923 27.1967L97.6669 28.9641ZM104.159 27.3769C103.762 26.3135 102.554 24.3477 100.083 24.3477C97.6306 24.3477 95.593 26.2772 95.593 29.1084C95.593 31.7773 97.6131 33.8691 100.317 33.8691C102.499 33.8691 103.762 32.5351 104.285 31.7594L102.662 30.6772C102.121 31.4708 101.382 31.9938 100.317 31.9938C99.2541 31.9938 98.4964 31.5067 98.0102 30.551L104.375 27.9183L104.159 27.3769ZM53.4437 25.8085V27.8281H58.2765C58.1322 28.9642 57.7535 29.7935 57.1764 30.3707C56.4728 31.0738 55.3728 31.8494 53.4437 31.8494C50.4681 31.8494 48.1421 29.4512 48.1421 26.4757C48.1421 23.5003 50.4681 21.1017 53.4437 21.1017C55.0487 21.1017 56.2206 21.733 57.0862 22.5445L58.5112 21.1196C57.3026 19.9656 55.698 19.082 53.4437 19.082C49.3676 19.082 45.9414 22.4002 45.9414 26.4757C45.9414 30.5509 49.3676 33.8691 53.4437 33.8691C55.6434 33.8691 57.3027 33.1477 58.6009 31.7953C59.9354 30.4608 60.3503 28.5855 60.3503 27.0704C60.3503 26.6021 60.3139 26.1693 60.2418 25.8085H53.4437ZM65.8452 31.9937C64.4022 31.9937 63.1579 30.8035 63.1579 29.1084C63.1579 27.3953 64.4022 26.2235 65.8452 26.2235C67.2876 26.2235 68.5319 27.3953 68.5319 29.1084C68.5319 30.8035 67.2876 31.9937 65.8452 31.9937ZM65.8452 24.3477C63.2116 24.3477 61.066 26.3493 61.066 29.1084C61.066 31.8494 63.2116 33.8691 65.8452 33.8691C68.4778 33.8691 70.6238 31.8494 70.6238 29.1084C70.6238 26.3493 68.4778 24.3477 65.8452 24.3477ZM76.2696 31.9937C74.8276 31.9937 73.5829 30.8035 73.5829 29.1084C73.5829 27.3953 74.8277 26.2235 76.2696 26.2235C77.7126 26.2235 78.9565 27.3953 78.9565 29.1084C78.9565 30.8035 77.7126 31.9937 76.2696 31.9937ZM76.2696 24.3477C73.637 24.3477 71.4914 26.3493 71.4914 29.1084C71.4914 31.8494 73.637 33.8691 76.2696 33.8691C78.9032 33.8691 81.0488 31.8494 81.0488 29.1084C81.0488 26.3493 78.9032 24.3477 76.2696 24.3477Z" fill="#FCF7ED"/>
<path d="M23.1887 21.7423L11.2725 34.3906C11.2729 34.3932 11.2738 34.3954 11.2742 34.3981C11.6397 35.7716 12.8942 36.7829 14.383 36.7829C14.9781 36.7829 15.5369 36.622 16.0161 36.3395L16.0542 36.3172L29.4681 28.5768L23.1893 21.7422" fill="#EB3131"/>
<path d="M35.2451 19.5897L35.2337 19.5819L29.4425 16.2246L22.918 22.0304L29.4652 28.5768L35.2258 25.2529C36.2358 24.7077 36.9214 23.643 36.9214 22.4152C36.9214 21.1962 36.245 20.1368 35.2451 19.5898" fill="#F6B60B"/>
<path d="M11.2709 10.3848C11.1993 10.6489 11.1616 10.9256 11.1616 11.213V33.5637C11.1616 33.8504 11.1988 34.1281 11.2714 34.3913L23.599 22.0662L11.2714 10.3851" fill="#5778C5"/>
<path d="M23.2772 22.3891L29.4455 16.2227L16.0466 8.45419C15.5596 8.16249 14.9912 7.99414 14.3829 7.99414C12.8941 7.99414 11.638 9.00728 11.2724 10.3823C11.272 10.3837 11.272 10.3846 11.272 10.3858L23.2772 22.3893" fill="#3BAD49"/>
<path d="M53.0517 10.9485H49.7863V11.7566H52.2332C52.1667 12.416 51.9044 12.9337 51.4619 13.3097C51.0194 13.6858 50.4545 13.8746 49.7864 13.8746C49.0535 13.8746 48.4326 13.6193 47.9238 13.1121C47.4252 12.5944 47.1717 11.9542 47.1717 11.183C47.1717 10.4118 47.4252 9.77157 47.9238 9.25391C48.4326 8.74674 49.0535 8.4931 49.7864 8.4931C50.1625 8.4931 50.521 8.5578 50.8497 8.69951C51.1786 8.8411 51.4426 9.03878 51.649 9.29242L52.2699 8.67153C51.9883 8.3514 51.6316 8.10659 51.1889 7.92818C50.7465 7.74975 50.2848 7.66412 49.7863 7.66412C48.8086 7.66412 47.9797 8.00339 47.3028 8.68028C46.6259 9.35883 46.2866 10.1949 46.2866 11.183C46.2866 12.1711 46.6259 13.009 47.3028 13.6859C47.9796 14.3626 48.8086 14.702 49.7863 14.702C50.8129 14.702 51.6315 14.3732 52.2611 13.705C52.8155 13.1489 53.0988 12.3969 53.0988 11.4559C53.0988 11.2967 53.0796 11.1271 53.0516 10.9486L53.0517 10.9485ZM54.3167 7.81439V14.5515H58.25V13.7242H55.1824V11.587H57.9493V10.779H55.1824V8.64346H58.25V7.81436L54.3167 7.81439ZM63.7655 8.64349V7.81439H59.136V8.64349H61.0179V14.5515H61.8837V8.64349H63.7655ZM67.9569 7.81439H67.0911V14.5515H67.9569V7.81439ZM73.6712 8.64349V7.81439H69.0417V8.64349H70.9235V14.5515H71.7892V8.64349H73.6712ZM82.4073 8.69072C81.7391 8.00334 80.9207 7.66406 79.9429 7.66406C78.9635 7.66406 78.1451 8.00333 77.4769 8.68022C76.8088 9.34836 76.4801 10.1861 76.4801 11.1829C76.4801 12.1798 76.8088 13.0176 77.4769 13.6858C78.1451 14.3626 78.9635 14.702 79.9429 14.702C80.9118 14.702 81.7391 14.3626 82.4073 13.6858C83.0754 13.0177 83.4041 12.1799 83.4041 11.1829C83.4041 10.1948 83.0754 9.35873 82.4073 8.69072ZM78.0978 9.25386C78.5963 8.74668 79.2084 8.49304 79.9429 8.49304C80.6758 8.49304 81.2879 8.74669 81.7776 9.25386C82.2761 9.7523 82.5209 10.4028 82.5209 11.1829C82.5209 11.9648 82.2761 12.6136 81.7776 13.1121C81.2879 13.6192 80.6758 13.8746 79.9429 13.8746C79.2084 13.8746 78.5963 13.6192 78.0978 13.1121C77.6098 12.6031 77.365 11.9648 77.365 11.1829C77.365 10.4028 77.6098 9.76278 78.0978 9.25386ZM85.461 10.3557L85.4243 9.05615H85.461L88.8855 14.5514H89.7896V7.81432H88.9239V11.7565L88.9606 13.0561H88.9239L85.6499 7.81432H84.5952V14.5514H85.461V10.3557Z" fill="#FCF7ED" stroke="#FCF7ED" stroke-width="0.29232" stroke-miterlimit="10"/>
</g>
<defs>
<clipPath id="clip0_1915_9660">
<rect width="151.115" height="44.7744" fill="white" transform="translate(-0.000488281)"/>
</clipPath>
</defs>
</svg>
