<svg width="41" height="40" viewBox="0 0 41 40" fill="none" xmlns="http://www.w3.org/2000/svg">
<path d="M2.97039 2.47039C2.18899 3.25179 1.75 4.3116 1.75 5.41667V7.5C1.75 24.7583 15.7417 38.75 33 38.75H35.0833C36.1884 38.75 37.2482 38.311 38.0296 37.5296C38.811 36.7482 39.25 35.6884 39.25 34.5833V27.7521C39.2501 27.3147 39.1125 26.8883 38.8568 26.5334C38.601 26.1786 38.24 25.9132 37.825 25.775L28.4646 22.6542C27.9889 22.496 27.4721 22.5147 27.0091 22.7068C26.546 22.8989 26.1678 23.2516 25.9437 23.7L23.5896 28.4021C18.4885 26.0973 14.4027 22.0115 12.0979 16.9104L16.8 14.5562C17.2484 14.3322 17.6011 13.954 17.7932 13.4909C17.9853 13.0279 18.004 12.5111 17.8458 12.0354L14.725 2.675C14.5869 2.26033 14.3218 1.89959 13.9674 1.64385C13.613 1.38812 13.1871 1.25033 12.75 1.25H5.91667C4.8116 1.25 3.75179 1.68899 2.97039 2.47039Z" stroke="#5870FF" stroke-width="2" stroke-linecap="round" stroke-linejoin="round"/>
</svg>
