<svg width="32" height="25" viewBox="0 0 32 25" fill="none" xmlns="http://www.w3.org/2000/svg">
<rect x="1.42102" y="1.36914" width="12" height="22.9333" fill="#FCF7ED"/>
<path d="M12.114 0.835938H2.72825C1.69103 0.835938 0.840088 1.63184 0.840088 2.60133V23.0705C0.840088 24.0442 1.69103 24.8359 2.72825 24.8359H12.114C13.1555 24.8359 14.0022 24.04 14.0022 23.0705V2.60133C14.0022 1.62761 13.1512 0.835938 12.114 0.835938ZM10.5772 1.53447H12.114C12.7448 1.53447 13.2571 2.01286 13.2571 2.60133V23.079C13.2571 23.6717 12.749 24.1458 12.114 24.1458H2.72825C2.09745 24.1458 1.58519 23.6674 1.58519 23.079V2.60133C1.58519 2.00863 2.09322 1.53447 2.72825 1.53447H10.5772Z" fill="#5870FF"/>
<path d="M3.03284 3.38844C3.30406 3.38844 3.52393 3.16289 3.52393 2.88465C3.52393 2.60641 3.30406 2.38086 3.03284 2.38086C2.76162 2.38086 2.54175 2.60641 2.54175 2.88465C2.54175 3.16289 2.76162 3.38844 3.03284 3.38844Z" fill="#5870FF"/>
<rect x="19.3353" y="2.21289" width="8.13332" height="8.53332" fill="#FCF7ED"/>
<path d="M21.5541 3.96779C21.7739 3.96779 21.952 3.78394 21.952 3.55714C21.952 3.33034 21.7739 3.14648 21.5541 3.14648C21.3343 3.14648 21.1561 3.33034 21.1561 3.55714C21.1561 3.78394 21.3343 3.96779 21.5541 3.96779Z" fill="#5870FF"/>
<path d="M21.5539 6.01796C21.3041 6.01796 21.1051 5.81052 21.1051 5.56074C21.1051 5.31096 21.3083 5.10352 21.5539 5.10352C21.7994 5.10352 22.0026 5.31096 22.0026 5.56074C22.0026 5.81052 21.7994 6.01796 21.5539 6.01796Z" fill="#5870FF"/>
<path d="M20.4659 5.04335C20.2161 5.04335 20.0171 4.83591 20.0171 4.58613C20.0171 4.33635 20.2203 4.12891 20.4659 4.12891C20.7114 4.12891 20.9146 4.33635 20.9146 4.58613C20.9146 4.83591 20.7114 5.04335 20.4659 5.04335Z" fill="#5870FF"/>
<path d="M22.7395 5.02382C22.4897 5.02382 22.2908 4.81638 22.2908 4.5666C22.2908 4.31682 22.494 4.10938 22.7395 4.10938C22.9851 4.10938 23.1883 4.31682 23.1883 4.5666C23.1883 4.81638 22.9851 5.02382 22.7395 5.02382Z" fill="#5870FF"/>
<path d="M29.2718 0.835938H19.8902C18.8488 0.835938 18.0021 1.63184 18.0021 2.60132V23.0705C18.0021 24.0442 18.853 24.8359 19.8902 24.8359H29.2718C30.3132 24.8359 31.1599 24.04 31.1599 23.0705V2.60132C31.1599 1.62761 30.309 0.835938 29.2718 0.835938ZM23.4337 5.22613C23.4337 5.82306 22.9468 6.30991 22.3499 6.30991H20.8512C20.2543 6.30991 19.7675 5.82306 19.7675 5.22613V3.83329C19.7675 3.23636 20.2543 2.7495 20.8512 2.7495H22.3499C22.9468 2.7495 23.4337 3.23636 23.4337 3.83329V5.22613ZM24.5768 10.0058C24.0137 10.0058 23.5565 9.54857 23.5565 8.98551C23.5565 8.42245 24.0137 7.96523 24.5768 7.96523C25.1398 7.96523 25.5971 8.42245 25.5971 8.98551C25.5971 9.54857 25.1398 10.0058 24.5768 10.0058Z" fill="#5870FF"/>
<path d="M24.5809 8.17773C24.1364 8.17773 23.7723 8.54181 23.7723 8.98634C23.7723 9.43086 24.1364 9.79495 24.5809 9.79495C25.0255 9.79495 25.3896 9.43086 25.3896 8.98634C25.3896 8.54181 25.0255 8.17773 24.5809 8.17773Z" fill="#5870FF"/>
</svg>
