<svg width="575" height="120" viewBox="0 0 575 120" fill="none" xmlns="http://www.w3.org/2000/svg">
<path d="M65.125 52.6667H28.375C27.6788 52.6667 27.0111 52.3858 26.5188 51.8857C26.0266 51.3856 25.75 50.7073 25.75 50C25.75 49.2928 26.0266 48.6145 26.5188 48.1144C27.0111 47.6143 27.6788 47.3334 28.375 47.3334H55.78C57.5352 47.3335 59.2402 46.7379 60.6241 45.6412C62.008 44.5445 62.9916 43.0095 63.4188 41.28L67.75 23.9734C67.8483 23.5798 67.8569 23.1686 67.775 22.7712C67.6931 22.3737 67.5229 22.0005 67.2775 21.68C67.0222 21.3513 66.6943 21.0883 66.3204 20.9123C65.9464 20.7362 65.5369 20.6521 65.125 20.6667H27.745C27.2034 19.1106 26.2013 17.7627 24.876 16.8079C23.5508 15.8531 21.9672 15.338 20.3425 15.3334H17.875C17.1788 15.3334 16.5111 15.6143 16.0188 16.1144C15.5266 16.6145 15.25 17.2928 15.25 18C15.25 18.7073 15.5266 19.3856 16.0188 19.8857C16.5111 20.3858 17.1788 20.6667 17.875 20.6667H20.3425C20.9421 20.649 21.5297 20.8404 22.0073 21.2091C22.4849 21.5779 22.8238 22.1017 22.9675 22.6934L23.125 23.9734L27.6663 42C25.5777 42.0955 23.612 43.0299 22.2016 44.5977C20.7912 46.1655 20.0516 48.2383 20.1456 50.36C20.2396 52.4818 21.1594 54.4787 22.7027 55.9114C24.246 57.3442 26.2864 58.0955 28.375 58H28.8475C28.4158 59.2084 28.2771 60.5046 28.4431 61.779C28.6091 63.0534 29.0749 64.2683 29.8012 65.321C30.5275 66.3737 31.4928 67.233 32.6153 67.8264C33.7378 68.4197 34.9846 68.7294 36.25 68.7294C37.5154 68.7294 38.7622 68.4197 39.8847 67.8264C41.0072 67.233 41.9725 66.3737 42.6988 65.321C43.4251 64.2683 43.8909 63.0534 44.0569 61.779C44.2229 60.5046 44.0842 59.2084 43.6525 58H49.8475C49.4158 59.2084 49.2771 60.5046 49.4431 61.779C49.6091 63.0534 50.0749 64.2683 50.8012 65.321C51.5275 66.3737 52.4928 67.233 53.6153 67.8264C54.7379 68.4197 55.9846 68.7294 57.25 68.7294C58.5154 68.7294 59.7621 68.4197 60.8847 67.8264C62.0072 67.233 62.9725 66.3737 63.6988 65.321C64.4251 64.2683 64.8909 63.0534 65.0569 61.779C65.2229 60.5046 65.0842 59.2084 64.6525 58H65.125C65.8212 58 66.4889 57.7191 66.9812 57.219C67.4734 56.7189 67.75 56.0406 67.75 55.3334C67.75 54.6261 67.4734 53.9478 66.9812 53.4478C66.4889 52.9477 65.8212 52.6667 65.125 52.6667ZM61.765 26L58.3262 39.9734C58.1825 40.565 57.8437 41.0889 57.366 41.4576C56.8884 41.8264 56.3009 42.0178 55.7012 42H33.0475L29.11 26H61.765ZM36.25 63.3334C35.7308 63.3334 35.2233 63.177 34.7916 62.884C34.3599 62.5909 34.0235 62.1745 33.8248 61.6872C33.6261 61.1999 33.5742 60.6637 33.6754 60.1465C33.7767 59.6292 34.0267 59.154 34.3938 58.7811C34.761 58.4081 35.2287 58.1542 35.7379 58.0513C36.2471 57.9484 36.7749 58.0012 37.2545 58.203C37.7342 58.4049 38.1442 58.7467 38.4326 59.1852C38.721 59.6237 38.875 60.1393 38.875 60.6667C38.875 61.3739 38.5984 62.0522 38.1062 62.5523C37.6139 63.0524 36.9462 63.3334 36.25 63.3334ZM57.25 63.3334C56.7308 63.3334 56.2233 63.177 55.7916 62.884C55.3599 62.5909 55.0235 62.1745 54.8248 61.6872C54.6261 61.1999 54.5742 60.6637 54.6754 60.1465C54.7767 59.6292 55.0267 59.154 55.3938 58.7811C55.761 58.4081 56.2287 58.1542 56.7379 58.0513C57.2471 57.9484 57.7749 58.0012 58.2545 58.203C58.7342 58.4049 59.1442 58.7467 59.4326 59.1852C59.7211 59.6237 59.875 60.1393 59.875 60.6667C59.875 61.3739 59.5984 62.0522 59.1062 62.5523C58.6139 63.0524 57.9462 63.3334 57.25 63.3334Z" fill="#5870FF"/>
<path d="M210.333 39.3334H207.667V28.6667H213C213.707 28.6667 214.386 28.9477 214.886 29.4478C215.386 29.9479 215.667 30.6261 215.667 31.3334C215.667 32.0406 215.948 32.7189 216.448 33.219C216.948 33.7191 217.626 34 218.333 34C219.041 34 219.719 33.7191 220.219 33.219C220.719 32.7189 221 32.0406 221 31.3334C221 29.2116 220.157 27.1768 218.657 25.6765C217.157 24.1762 215.122 23.3334 213 23.3334H207.667V18C207.667 17.2928 207.386 16.6145 206.886 16.1144C206.386 15.6143 205.707 15.3334 205 15.3334C204.293 15.3334 203.614 15.6143 203.114 16.1144C202.614 16.6145 202.333 17.2928 202.333 18V23.3334H199.667C196.838 23.3334 194.125 24.4572 192.124 26.4576C190.124 28.458 189 31.1711 189 34C189 36.829 190.124 39.5421 192.124 41.5425C194.125 43.5429 196.838 44.6667 199.667 44.6667H202.333V55.3334H197C196.293 55.3334 195.614 55.0524 195.114 54.5523C194.614 54.0522 194.333 53.374 194.333 52.6667C194.333 51.9595 194.052 51.2812 193.552 50.7811C193.052 50.281 192.374 50 191.667 50C190.959 50 190.281 50.281 189.781 50.7811C189.281 51.2812 189 51.9595 189 52.6667C189 54.7884 189.843 56.8233 191.343 58.3236C192.843 59.8239 194.878 60.6667 197 60.6667H202.333V66C202.333 66.7073 202.614 67.3856 203.114 67.8857C203.614 68.3858 204.293 68.6667 205 68.6667C205.707 68.6667 206.386 68.3858 206.886 67.8857C207.386 67.3856 207.667 66.7073 207.667 66V60.6667H210.333C213.162 60.6667 215.875 59.5429 217.876 57.5425C219.876 55.5421 221 52.829 221 50C221 47.1711 219.876 44.458 217.876 42.4576C215.875 40.4572 213.162 39.3334 210.333 39.3334ZM202.333 39.3334H199.667C198.252 39.3334 196.896 38.7715 195.895 37.7713C194.895 36.7711 194.333 35.4145 194.333 34C194.333 32.5856 194.895 31.229 195.895 30.2288C196.896 29.2286 198.252 28.6667 199.667 28.6667H202.333V39.3334ZM210.333 55.3334H207.667V44.6667H210.333C211.748 44.6667 213.104 45.2286 214.105 46.2288C215.105 47.229 215.667 48.5856 215.667 50C215.667 51.4145 215.105 52.7711 214.105 53.7713C213.104 54.7715 211.748 55.3334 210.333 55.3334Z" fill="#5870FF"/>
<path d="M391.64 30.0533C391.625 29.983 391.625 29.9103 391.64 29.84C391.627 29.7784 391.627 29.7149 391.64 29.6533V29.4133L391.48 29.0133C391.415 28.9042 391.334 28.8053 391.24 28.72L391 28.5066H390.867L380.36 21.8666L370.44 15.7333C370.21 15.5513 369.948 15.4154 369.667 15.3333H369.453C369.215 15.2935 368.972 15.2935 368.733 15.3333H368.467C368.157 15.4018 367.86 15.5188 367.587 15.68L347.667 28.08L347.427 28.2666L347.187 28.48L346.92 28.6666L346.787 28.8266L346.627 29.2266V29.4666V29.6266C346.601 29.8035 346.601 29.9831 346.627 30.16V53.44C346.626 53.8932 346.74 54.3391 346.96 54.7357C347.179 55.1323 347.496 55.4664 347.88 55.7066L367.88 68.08L368.28 68.24H368.493C368.944 68.3831 369.429 68.3831 369.88 68.24H370.093L370.493 68.08L390.333 55.8933C390.718 55.6531 391.034 55.319 391.254 54.9224C391.473 54.5258 391.588 54.0798 391.587 53.6266V30.3466C391.587 30.3466 391.64 30.16 391.64 30.0533ZM369 21.12L373.747 24.0533L358.84 33.28L354.067 30.3466L369 21.12ZM366.333 61.12L351.667 52.16V35.12L366.333 44.1866V61.12ZM369 39.4933L363.907 36.4266L378.813 27.1733L383.933 30.3466L369 39.4933ZM386.333 52.08L371.667 61.2V44.1866L386.333 35.12V52.08Z" fill="#5870FF"/>
<path d="M503.667 43.3333V56.6666C503.667 57.3739 503.948 58.0522 504.448 58.5522C504.948 59.0523 505.626 59.3333 506.333 59.3333H509C509 61.455 509.843 63.4899 511.343 64.9902C512.843 66.4904 514.878 67.3333 517 67.3333C519.122 67.3333 521.157 66.4904 522.657 64.9902C524.157 63.4899 525 61.455 525 59.3333H541C541 61.455 541.843 63.4899 543.343 64.9902C544.843 66.4904 546.878 67.3333 549 67.3333C551.122 67.3333 553.157 66.4904 554.657 64.9902C556.157 63.4899 557 61.455 557 59.3333H559.667C560.374 59.3333 561.052 59.0523 561.552 58.5522C562.052 58.0522 562.333 57.3739 562.333 56.6666V24.6666C562.333 22.5449 561.49 20.5101 559.99 19.0098C558.49 17.5095 556.455 16.6666 554.333 16.6666H530.333C528.212 16.6666 526.177 17.5095 524.676 19.0098C523.176 20.5101 522.333 22.5449 522.333 24.6666V30H517C515.758 30 514.533 30.2891 513.422 30.8445C512.311 31.4 511.345 32.2064 510.6 33.2L504.2 41.7333C504.122 41.8492 504.059 41.9747 504.013 42.1066L503.853 42.4C503.736 42.6974 503.672 43.0135 503.667 43.3333ZM546.333 59.3333C546.333 58.8059 546.49 58.2903 546.783 57.8518C547.076 57.4132 547.492 57.0714 547.98 56.8696C548.467 56.6678 549.003 56.615 549.52 56.7179C550.038 56.8208 550.513 57.0747 550.886 57.4477C551.259 57.8206 551.513 58.2958 551.615 58.813C551.718 59.3303 551.666 59.8665 551.464 60.3538C551.262 60.841 550.92 61.2575 550.482 61.5505C550.043 61.8436 549.527 62 549 62C548.293 62 547.614 61.719 547.114 61.2189C546.614 60.7188 546.333 60.0405 546.333 59.3333ZM527.667 24.6666C527.667 23.9594 527.948 23.2811 528.448 22.781C528.948 22.2809 529.626 22 530.333 22H554.333C555.041 22 555.719 22.2809 556.219 22.781C556.719 23.2811 557 23.9594 557 24.6666V54H554.92C554.17 53.175 553.256 52.5159 552.237 52.0648C551.217 51.6138 550.115 51.3808 549 51.3808C547.885 51.3808 546.783 51.6138 545.763 52.0648C544.744 52.5159 543.83 53.175 543.08 54H527.667V24.6666ZM522.333 40.6666H511.667L514.867 36.4C515.115 36.0688 515.437 35.8 515.807 35.6148C516.178 35.4297 516.586 35.3333 517 35.3333H522.333V40.6666ZM514.333 59.3333C514.333 58.8059 514.49 58.2903 514.783 57.8518C515.076 57.4132 515.492 57.0714 515.98 56.8696C516.467 56.6678 517.003 56.615 517.52 56.7179C518.038 56.8208 518.513 57.0747 518.886 57.4477C519.259 57.8206 519.513 58.2958 519.615 58.813C519.718 59.3303 519.666 59.8665 519.464 60.3538C519.262 60.841 518.92 61.2575 518.482 61.5505C518.043 61.8436 517.527 62 517 62C516.293 62 515.614 61.719 515.114 61.2189C514.614 60.7188 514.333 60.0405 514.333 59.3333ZM509 46H522.333V53.4133C520.76 52.0068 518.694 51.2792 516.586 51.3891C514.478 51.499 512.499 52.4374 511.08 54H509V46Z" fill="#A4AEFF"/>
<circle cx="205" cy="99" r="18.5" stroke="#5870FF" stroke-width="5"/>
<circle cx="205" cy="99" r="12" fill="#5870FF"/>
<circle cx="368" cy="99" r="18.5" stroke="#5870FF" stroke-width="5"/>
<circle cx="368" cy="99" r="12" fill="#5870FF"/>
<circle cx="533" cy="99" r="18.5" stroke="#A4AEFF" stroke-width="5"/>
<line x1="64" y1="98.5" x2="189.036" y2="98.5" stroke="#5870FF" stroke-width="5"/>
<line x1="226" y1="98.5" x2="351.036" y2="98.5" stroke="#5870FF" stroke-width="5"/>
<line x1="389" y1="98.5" x2="514.036" y2="98.5" stroke="#A4AEFF" stroke-width="5"/>
<circle cx="46" cy="99" r="18.5" stroke="#5870FF" stroke-width="5"/>
<circle cx="46" cy="99" r="12" fill="#5870FF"/>
</svg>
