<svg width="575" height="120" viewBox="0 0 575 120" fill="none" xmlns="http://www.w3.org/2000/svg">
<path d="M65.125 52.6666H28.375C27.6788 52.6666 27.0111 52.3857 26.5188 51.8856C26.0266 51.3855 25.75 50.7072 25.75 50C25.75 49.2927 26.0266 48.6145 26.5188 48.1144C27.0111 47.6143 27.6788 47.3333 28.375 47.3333H55.78C57.5352 47.3334 59.2402 46.7378 60.6241 45.6411C62.008 44.5444 62.9916 43.0095 63.4188 41.28L67.75 23.9733C67.8483 23.5797 67.8569 23.1685 67.775 22.7711C67.6931 22.3737 67.5229 22.0005 67.2775 21.68C67.0222 21.3513 66.6943 21.0882 66.3204 20.9122C65.9464 20.7361 65.5369 20.652 65.125 20.6666H27.745C27.2034 19.1105 26.2013 17.7626 24.876 16.8078C23.5508 15.853 21.9672 15.338 20.3425 15.3333H17.875C17.1788 15.3333 16.5111 15.6143 16.0188 16.1144C15.5266 16.6145 15.25 17.2927 15.25 18C15.25 18.7072 15.5266 19.3855 16.0188 19.8856C16.5111 20.3857 17.1788 20.6666 17.875 20.6666H20.3425C20.9421 20.6489 21.5297 20.8403 22.0073 21.2091C22.4849 21.5778 22.8238 22.1016 22.9675 22.6933L23.125 23.9733L27.6663 42C25.5777 42.0955 23.612 43.0299 22.2016 44.5977C20.7912 46.1655 20.0516 48.2382 20.1456 50.36C20.2396 52.4817 21.1594 54.4786 22.7027 55.9114C24.246 57.3442 26.2864 58.0955 28.375 58H28.8475C28.4158 59.2083 28.2771 60.5046 28.4431 61.7789C28.6091 63.0533 29.0749 64.2683 29.8012 65.3209C30.5275 66.3736 31.4928 67.233 32.6153 67.8263C33.7378 68.4196 34.9846 68.7294 36.25 68.7294C37.5154 68.7294 38.7622 68.4196 39.8847 67.8263C41.0072 67.233 41.9725 66.3736 42.6988 65.3209C43.4251 64.2683 43.8909 63.0533 44.0569 61.7789C44.2229 60.5046 44.0842 59.2083 43.6525 58H49.8475C49.4158 59.2083 49.2771 60.5046 49.4431 61.7789C49.6091 63.0533 50.0749 64.2683 50.8012 65.3209C51.5275 66.3736 52.4928 67.233 53.6153 67.8263C54.7379 68.4196 55.9846 68.7294 57.25 68.7294C58.5154 68.7294 59.7621 68.4196 60.8847 67.8263C62.0072 67.233 62.9725 66.3736 63.6988 65.3209C64.4251 64.2683 64.8909 63.0533 65.0569 61.7789C65.2229 60.5046 65.0842 59.2083 64.6525 58H65.125C65.8212 58 66.4889 57.719 66.9812 57.2189C67.4734 56.7188 67.75 56.0406 67.75 55.3333C67.75 54.6261 67.4734 53.9478 66.9812 53.4477C66.4889 52.9476 65.8212 52.6666 65.125 52.6666ZM61.765 26L58.3262 39.9733C58.1825 40.565 57.8437 41.0888 57.366 41.4575C56.8884 41.8263 56.3009 42.0177 55.7012 42H33.0475L29.11 26H61.765ZM36.25 63.3333C35.7308 63.3333 35.2233 63.1769 34.7916 62.8839C34.3599 62.5909 34.0235 62.1744 33.8248 61.6871C33.6261 61.1999 33.5742 60.6637 33.6754 60.1464C33.7767 59.6291 34.0267 59.154 34.3938 58.781C34.761 58.4081 35.2287 58.1541 35.7379 58.0512C36.2471 57.9483 36.7749 58.0011 37.2545 58.203C37.7342 58.4048 38.1442 58.7466 38.4326 59.1851C38.721 59.6237 38.875 60.1392 38.875 60.6666C38.875 61.3739 38.5984 62.0522 38.1062 62.5523C37.6139 63.0524 36.9462 63.3333 36.25 63.3333ZM57.25 63.3333C56.7308 63.3333 56.2233 63.1769 55.7916 62.8839C55.3599 62.5909 55.0235 62.1744 54.8248 61.6871C54.6261 61.1999 54.5742 60.6637 54.6754 60.1464C54.7767 59.6291 55.0267 59.154 55.3938 58.781C55.761 58.4081 56.2287 58.1541 56.7379 58.0512C57.2471 57.9483 57.7749 58.0011 58.2545 58.203C58.7342 58.4048 59.1442 58.7466 59.4326 59.1851C59.7211 59.6237 59.875 60.1392 59.875 60.6666C59.875 61.3739 59.5984 62.0522 59.1062 62.5523C58.6139 63.0524 57.9462 63.3333 57.25 63.3333Z" fill="#5870FF"/>
<path d="M210.333 39.3333H207.667V28.6666H213C213.707 28.6666 214.386 28.9476 214.886 29.4477C215.386 29.9478 215.667 30.6261 215.667 31.3333C215.667 32.0406 215.948 32.7188 216.448 33.2189C216.948 33.719 217.626 34 218.333 34C219.041 34 219.719 33.719 220.219 33.2189C220.719 32.7188 221 32.0406 221 31.3333C221 29.2116 220.157 27.1768 218.657 25.6765C217.157 24.1762 215.122 23.3333 213 23.3333H207.667V18C207.667 17.2927 207.386 16.6145 206.886 16.1144C206.386 15.6143 205.707 15.3333 205 15.3333C204.293 15.3333 203.614 15.6143 203.114 16.1144C202.614 16.6145 202.333 17.2927 202.333 18V23.3333H199.667C196.838 23.3333 194.125 24.4571 192.124 26.4575C190.124 28.4579 189 31.171 189 34C189 36.829 190.124 39.5421 192.124 41.5425C194.125 43.5428 196.838 44.6666 199.667 44.6666H202.333V55.3333H197C196.293 55.3333 195.614 55.0524 195.114 54.5523C194.614 54.0522 194.333 53.3739 194.333 52.6666C194.333 51.9594 194.052 51.2811 193.552 50.781C193.052 50.2809 192.374 50 191.667 50C190.959 50 190.281 50.2809 189.781 50.781C189.281 51.2811 189 51.9594 189 52.6666C189 54.7884 189.843 56.8232 191.343 58.3235C192.843 59.8238 194.878 60.6666 197 60.6666H202.333V66C202.333 66.7072 202.614 67.3855 203.114 67.8856C203.614 68.3857 204.293 68.6666 205 68.6666C205.707 68.6666 206.386 68.3857 206.886 67.8856C207.386 67.3855 207.667 66.7072 207.667 66V60.6666H210.333C213.162 60.6666 215.875 59.5428 217.876 57.5424C219.876 55.5421 221 52.829 221 50C221 47.171 219.876 44.4579 217.876 42.4575C215.875 40.4571 213.162 39.3333 210.333 39.3333ZM202.333 39.3333H199.667C198.252 39.3333 196.896 38.7714 195.895 37.7712C194.895 36.771 194.333 35.4145 194.333 34C194.333 32.5855 194.895 31.2289 195.895 30.2287C196.896 29.2285 198.252 28.6666 199.667 28.6666H202.333V39.3333ZM210.333 55.3333H207.667V44.6666H210.333C211.748 44.6666 213.104 45.2286 214.105 46.2287C215.105 47.2289 215.667 48.5855 215.667 50C215.667 51.4145 215.105 52.771 214.105 53.7712C213.104 54.7714 211.748 55.3333 210.333 55.3333Z" fill="#A4AEFF"/>
<path d="M391.64 30.0533C391.625 29.983 391.625 29.9103 391.64 29.84C391.627 29.7784 391.627 29.7149 391.64 29.6533V29.4133L391.48 29.0133C391.415 28.9042 391.334 28.8053 391.24 28.72L391 28.5066H390.867L380.36 21.8666L370.44 15.7333C370.21 15.5513 369.948 15.4154 369.667 15.3333H369.453C369.215 15.2935 368.972 15.2935 368.733 15.3333H368.467C368.157 15.4018 367.86 15.5188 367.587 15.68L347.667 28.08L347.427 28.2666L347.187 28.48L346.92 28.6666L346.787 28.8266L346.627 29.2266V29.4666V29.6266C346.601 29.8035 346.601 29.9831 346.627 30.16V53.44C346.626 53.8932 346.74 54.3391 346.96 54.7357C347.179 55.1323 347.496 55.4664 347.88 55.7066L367.88 68.08L368.28 68.24H368.493C368.944 68.3831 369.429 68.3831 369.88 68.24H370.093L370.493 68.08L390.333 55.8933C390.718 55.6531 391.034 55.319 391.254 54.9224C391.473 54.5258 391.588 54.0798 391.587 53.6266V30.3466C391.587 30.3466 391.64 30.16 391.64 30.0533ZM369 21.12L373.747 24.0533L358.84 33.28L354.067 30.3466L369 21.12ZM366.333 61.12L351.667 52.16V35.12L366.333 44.1866V61.12ZM369 39.4933L363.907 36.4266L378.813 27.1733L383.933 30.3466L369 39.4933ZM386.333 52.08L371.667 61.2V44.1866L386.333 35.12V52.08Z" fill="#A4AEFF"/>
<path d="M503.667 43.3334V56.6667C503.667 57.3739 503.948 58.0522 504.448 58.5523C504.948 59.0524 505.626 59.3334 506.333 59.3334H509C509 61.4551 509.843 63.4899 511.343 64.9902C512.843 66.4905 514.878 67.3334 517 67.3334C519.122 67.3334 521.157 66.4905 522.657 64.9902C524.157 63.4899 525 61.4551 525 59.3334H541C541 61.4551 541.843 63.4899 543.343 64.9902C544.843 66.4905 546.878 67.3334 549 67.3334C551.122 67.3334 553.157 66.4905 554.657 64.9902C556.157 63.4899 557 61.4551 557 59.3334H559.667C560.374 59.3334 561.052 59.0524 561.552 58.5523C562.052 58.0522 562.333 57.3739 562.333 56.6667V24.6667C562.333 22.545 561.49 20.5101 559.99 19.0098C558.49 17.5095 556.455 16.6667 554.333 16.6667H530.333C528.212 16.6667 526.177 17.5095 524.676 19.0098C523.176 20.5101 522.333 22.545 522.333 24.6667V30H517C515.758 30 514.533 30.2892 513.422 30.8446C512.311 31.4 511.345 32.2065 510.6 33.2L504.2 41.7334C504.122 41.8493 504.059 41.9747 504.013 42.1067L503.853 42.4C503.736 42.6974 503.672 43.0136 503.667 43.3334ZM546.333 59.3334C546.333 58.8059 546.49 58.2904 546.783 57.8518C547.076 57.4133 547.492 57.0715 547.98 56.8697C548.467 56.6678 549.003 56.615 549.52 56.7179C550.038 56.8208 550.513 57.0748 550.886 57.4477C551.259 57.8207 551.513 58.2958 551.615 58.8131C551.718 59.3304 551.666 59.8666 551.464 60.3538C551.262 60.8411 550.92 61.2576 550.482 61.5506C550.043 61.8436 549.527 62 549 62C548.293 62 547.614 61.7191 547.114 61.219C546.614 60.7189 546.333 60.0406 546.333 59.3334ZM527.667 24.6667C527.667 23.9594 527.948 23.2812 528.448 22.7811C528.948 22.281 529.626 22 530.333 22H554.333C555.041 22 555.719 22.281 556.219 22.7811C556.719 23.2812 557 23.9594 557 24.6667V54H554.92C554.17 53.1751 553.256 52.5159 552.237 52.0649C551.217 51.6139 550.115 51.3809 549 51.3809C547.885 51.3809 546.783 51.6139 545.763 52.0649C544.744 52.5159 543.83 53.1751 543.08 54H527.667V24.6667ZM522.333 40.6667H511.667L514.867 36.4C515.115 36.0688 515.437 35.8 515.807 35.6149C516.178 35.4297 516.586 35.3334 517 35.3334H522.333V40.6667ZM514.333 59.3334C514.333 58.8059 514.49 58.2904 514.783 57.8518C515.076 57.4133 515.492 57.0715 515.98 56.8697C516.467 56.6678 517.003 56.615 517.52 56.7179C518.038 56.8208 518.513 57.0748 518.886 57.4477C519.259 57.8207 519.513 58.2958 519.615 58.8131C519.718 59.3304 519.666 59.8666 519.464 60.3538C519.262 60.8411 518.92 61.2576 518.482 61.5506C518.043 61.8436 517.527 62 517 62C516.293 62 515.614 61.7191 515.114 61.219C514.614 60.7189 514.333 60.0406 514.333 59.3334ZM509 46H522.333V53.4134C520.76 52.0068 518.694 51.2793 516.586 51.3891C514.478 51.499 512.499 52.4375 511.08 54H509V46Z" fill="#A4AEFF"/>
<circle cx="205" cy="99" r="18.5" stroke="#A4AEFF" stroke-width="5"/>
<circle cx="368" cy="99" r="18.5" stroke="#A4AEFF" stroke-width="5"/>
<circle cx="533" cy="99" r="18.5" stroke="#A4AEFF" stroke-width="5"/>
<line x1="64" y1="98.5" x2="189.036" y2="98.5" stroke="#A4AEFF" stroke-width="5"/>
<line x1="226" y1="98.5" x2="351.036" y2="98.5" stroke="#A4AEFF" stroke-width="5"/>
<line x1="387" y1="98.5" x2="512.036" y2="98.5" stroke="#A4AEFF" stroke-width="5"/>
<circle cx="46" cy="99" r="18.5" stroke="#5870FF" stroke-width="5"/>
<circle cx="46" cy="99" r="12" fill="#5870FF"/>
</svg>
