<svg width="105" height="105" viewBox="0 0 105 105" fill="none" xmlns="http://www.w3.org/2000/svg">
<rect width="105" height="105" rx="52.5" fill="#D4D8DB"/>
<path d="M58.6872 47.7497C60.3281 46.1087 61.25 43.8831 61.25 41.5625C61.25 39.2419 60.3281 37.0163 58.6872 35.3753C57.0462 33.7344 54.8206 32.8125 52.5 32.8125C50.1794 32.8125 47.9538 33.7344 46.3128 35.3753C44.6719 37.0163 43.75 39.2419 43.75 41.5625C43.75 43.8831 44.6719 46.1087 46.3128 47.7497C47.9538 49.3906 50.1794 50.3125 52.5 50.3125C54.8206 50.3125 57.0462 49.3906 58.6872 47.7497Z" stroke="#111111" stroke-width="2.5" stroke-linecap="round" stroke-linejoin="round"/>
<path d="M41.6724 61.3599C44.5441 58.4883 48.4389 56.875 52.5 56.875C56.5611 56.875 60.4559 58.4883 63.3276 61.3599C66.1992 64.2316 67.8125 68.1264 67.8125 72.1875H37.1875C37.1875 68.1264 38.8008 64.2316 41.6724 61.3599Z" stroke="#111111" stroke-width="2.5" stroke-linecap="round" stroke-linejoin="round"/>
</svg>
