<svg width="40" height="41" viewBox="0 0 40 41" fill="none" xmlns="http://www.w3.org/2000/svg">
<path d="M5.09167 18.8333H8.33333C9.21739 18.8333 10.0652 19.1845 10.6904 19.8096C11.3155 20.4348 11.6667 21.2826 11.6667 22.1667V23.8333C11.6667 24.7174 12.0179 25.5652 12.643 26.1904C13.2681 26.8155 14.1159 27.1667 15 27.1667C15.8841 27.1667 16.7319 27.5179 17.357 28.143C17.9821 28.7681 18.3333 29.6159 18.3333 30.5V35.4083M13.3333 7.05833V9.66667C13.3333 10.7717 13.7723 11.8315 14.5537 12.6129C15.3351 13.3943 16.3949 13.8333 17.5 13.8333H18.3333C19.2174 13.8333 20.0652 14.1845 20.6904 14.8096C21.3155 15.4348 21.6667 16.2826 21.6667 17.1667C21.6667 18.0507 22.0179 18.8986 22.643 19.5237C23.2681 20.1488 24.1159 20.5 25 20.5C25.8841 20.5 26.7319 20.1488 27.357 19.5237C27.9821 18.8986 28.3333 18.0507 28.3333 17.1667C28.3333 16.2826 28.6845 15.4348 29.3096 14.8096C29.9348 14.1845 30.7826 13.8333 31.6667 13.8333H33.44M25 34.6467V30.5C25 29.6159 25.3512 28.7681 25.9763 28.143C26.6014 27.5179 27.4493 27.1667 28.3333 27.1667H33.44M35 20.5C35 22.4698 34.612 24.4204 33.8582 26.2403C33.1044 28.0601 31.9995 29.7137 30.6066 31.1066C29.2137 32.4995 27.5601 33.6044 25.7403 34.3582C23.9204 35.112 21.9698 35.5 20 35.5C18.0302 35.5 16.0796 35.112 14.2597 34.3582C12.4399 33.6044 10.7863 32.4995 9.3934 31.1066C8.00052 29.7137 6.89563 28.0601 6.14181 26.2403C5.38799 24.4204 5 22.4698 5 20.5C5 16.5218 6.58035 12.7064 9.3934 9.8934C12.2064 7.08035 16.0218 5.5 20 5.5C23.9782 5.5 27.7936 7.08035 30.6066 9.8934C33.4196 12.7064 35 16.5218 35 20.5Z" stroke="black" stroke-width="2" stroke-linecap="round" stroke-linejoin="round"/>
</svg>
