<svg width="40" height="41" viewBox="0 0 40 41" fill="none" xmlns="http://www.w3.org/2000/svg">
<path d="M22.7917 7.695C22.0817 4.76833 17.9183 4.76833 17.2083 7.695C16.7483 9.58667 14.5817 10.4833 12.9217 9.47C10.3483 7.90333 7.405 10.8483 8.97167 13.42C9.20717 13.8063 9.34815 14.2427 9.38311 14.6937C9.41808 15.1447 9.34606 15.5976 9.17291 16.0156C8.99976 16.4335 8.73037 16.8047 8.38667 17.0988C8.04296 17.393 7.63467 17.6018 7.195 17.7083C4.26833 18.4183 4.26833 22.5817 7.195 23.2917C7.63427 23.3985 8.04214 23.6075 8.38545 23.9016C8.72877 24.1957 8.99783 24.5667 9.17079 24.9844C9.34374 25.4021 9.41569 25.8547 9.38081 26.3054C9.34592 26.7561 9.20517 27.1922 8.97 27.5783C7.40333 30.1517 10.3483 33.095 12.92 31.5283C13.3063 31.2928 13.7427 31.1519 14.1937 31.1169C14.6447 31.0819 15.0976 31.1539 15.5156 31.3271C15.9335 31.5002 16.3047 31.7696 16.5988 32.1133C16.893 32.457 17.1018 32.8653 17.2083 33.305C17.9183 36.2317 22.0817 36.2317 22.7917 33.305C22.8985 32.8657 23.1075 32.4579 23.4016 32.1145C23.6957 31.7712 24.0667 31.5022 24.4844 31.3292C24.9021 31.1563 25.3547 31.0843 25.8054 31.1192C26.2561 31.1541 26.6922 31.2948 27.0783 31.53C29.6517 33.0967 32.595 30.1517 31.0283 27.58C30.7928 27.1937 30.6519 26.7573 30.6169 26.3063C30.5819 25.8553 30.6539 25.4024 30.8271 24.9844C31.0002 24.5665 31.2696 24.1953 31.6133 23.9012C31.957 23.607 32.3653 23.3982 32.805 23.2917C35.7317 22.5817 35.7317 18.4183 32.805 17.7083C32.3657 17.6015 31.9579 17.3925 31.6145 17.0984C31.2712 16.8043 31.0022 16.4333 30.8292 16.0156C30.6563 15.5979 30.5843 15.1453 30.6192 14.6946C30.6541 14.2439 30.7948 13.8078 31.03 13.4217C32.5967 10.8483 29.6517 7.905 27.08 9.47167C26.6937 9.70717 26.2573 9.84815 25.8063 9.88311C25.3553 9.91808 24.9024 9.84606 24.4844 9.67291C24.0665 9.49976 23.6953 9.23037 23.4012 8.88667C23.107 8.54296 22.8982 8.13467 22.7917 7.695Z" stroke="black" stroke-width="2" stroke-linecap="round" stroke-linejoin="round"/>
<path d="M23.5355 24.0355C24.4732 23.0979 25 21.8261 25 20.5C25 19.1739 24.4732 17.9021 23.5355 16.9645C22.5979 16.0268 21.3261 15.5 20 15.5C18.6739 15.5 17.4021 16.0268 16.4645 16.9645C15.5268 17.9021 15 19.1739 15 20.5C15 21.8261 15.5268 23.0979 16.4645 24.0355C17.4021 24.9732 18.6739 25.5 20 25.5C21.3261 25.5 22.5979 24.9732 23.5355 24.0355Z" stroke="black" stroke-width="2" stroke-linecap="round" stroke-linejoin="round"/>
</svg>
