<svg width="16" height="17" viewBox="0 0 16 17" fill="none" xmlns="http://www.w3.org/2000/svg">
<path d="M9.33333 7.16667H12.5093C12.7366 7.16667 12.96 7.22476 13.1585 7.33542C13.357 7.44607 13.5239 7.60562 13.6434 7.79891C13.7629 7.9922 13.831 8.21283 13.8413 8.43984C13.8515 8.66686 13.8036 8.89272 13.702 9.096L11.3687 13.7627C11.2579 13.9843 11.0876 14.1707 10.8768 14.3009C10.666 14.4312 10.4231 14.5001 10.1753 14.5H7.49733C7.38867 14.5 7.28 14.4867 7.174 14.46L4.66667 13.8333M9.33333 7.16667V3.83333C9.33333 3.47971 9.19286 3.14057 8.94281 2.89052C8.69276 2.64048 8.35362 2.5 8 2.5H7.93667C7.60333 2.5 7.33333 2.77 7.33333 3.10333C7.33333 3.57933 7.19267 4.04467 6.928 4.44067L4.66667 7.83333V13.8333M9.33333 7.16667H8M4.66667 13.8333H3.33333C2.97971 13.8333 2.64057 13.6929 2.39052 13.4428C2.14048 13.1928 2 12.8536 2 12.5V8.5C2 8.14638 2.14048 7.80724 2.39052 7.55719C2.64057 7.30714 2.97971 7.16667 3.33333 7.16667H5" stroke="#C94403" stroke-linecap="round" stroke-linejoin="round"/>
</svg>
