<svg width="16" height="17" viewBox="0 0 16 17" fill="none" xmlns="http://www.w3.org/2000/svg">
<path d="M11.3327 3.16667L8.826 2.54C8.72026 2.5135 8.61167 2.50007 8.50267 2.5H5.824C5.57634 2.50001 5.33357 2.569 5.12292 2.69923C4.91226 2.82946 4.74204 3.01579 4.63133 3.23733L2.298 7.904C2.19642 8.10728 2.14848 8.33315 2.15874 8.56016C2.16899 8.78717 2.23709 9.0078 2.35658 9.20109C2.47607 9.39438 2.64298 9.55393 2.84147 9.66458C3.03995 9.77524 3.26342 9.83333 3.49067 9.83333H6.66667H8M11.3327 3.16667L11.3333 9.16667L9.072 12.5587C8.80733 12.9553 8.66667 13.4207 8.66667 13.8973C8.66667 14.23 8.39667 14.5 8.06333 14.5H7.99933C7.64571 14.5 7.30657 14.3595 7.05652 14.1095C6.80648 13.8594 6.666 13.5203 6.666 13.1667V9.83333M11.3327 3.16667H12.6667C13.0203 3.16667 13.3594 3.30714 13.6095 3.55719C13.8595 3.80724 14 4.14638 14 4.5V8.5C14 8.85362 13.8595 9.19276 13.6095 9.44281C13.3594 9.69286 13.0203 9.83333 12.6667 9.83333H11" stroke="#C94403" stroke-linecap="round" stroke-linejoin="round"/>
</svg>
