<svg width="40" height="41" viewBox="0 0 40 41" fill="none" xmlns="http://www.w3.org/2000/svg">
<path d="M20 15.5V20.5M20 20.5V25.5M20 20.5H25M20 20.5H15M35 20.5C35 22.4698 34.612 24.4204 33.8582 26.2403C33.1044 28.0601 31.9995 29.7137 30.6066 31.1066C29.2137 32.4995 27.5601 33.6044 25.7403 34.3582C23.9204 35.112 21.9698 35.5 20 35.5C18.0302 35.5 16.0796 35.112 14.2597 34.3582C12.4399 33.6044 10.7863 32.4995 9.3934 31.1066C8.00052 29.7137 6.89563 28.0601 6.14181 26.2403C5.38799 24.4204 5 22.4698 5 20.5C5 16.5218 6.58035 12.7064 9.3934 9.8934C12.2064 7.08035 16.0218 5.5 20 5.5C23.9782 5.5 27.7936 7.08035 30.6066 9.8934C33.4196 12.7064 35 16.5218 35 20.5Z" stroke="black" stroke-width="2" stroke-linecap="round" stroke-linejoin="round"/>
</svg>
