<svg width="97" height="16" viewBox="0 0 97 16" fill="none" xmlns="http://www.w3.org/2000/svg">
<path d="M7.73922 2.3416C7.97922 1.6048 9.02162 1.6048 9.26082 2.3416L10.1168 4.9752C10.1691 5.13559 10.2708 5.27535 10.4073 5.37449C10.5438 5.47363 10.7081 5.52708 10.8768 5.5272H13.6464C14.4216 5.5272 14.7432 6.5192 14.1168 6.9752L11.8768 8.6024C11.74 8.70163 11.6382 8.84161 11.5859 9.00228C11.5336 9.16296 11.5335 9.33607 11.5856 9.4968L12.4416 12.1304C12.6816 12.8672 11.8376 13.4808 11.2096 13.0248L8.96962 11.3976C8.83298 11.2984 8.66846 11.245 8.49962 11.245C8.33077 11.245 8.16625 11.2984 8.02962 11.3976L5.78962 13.0248C5.16242 13.4808 4.31922 12.8672 4.55842 12.1304L5.41442 9.4968C5.46656 9.33607 5.46646 9.16296 5.41415 9.00228C5.36184 8.84161 5.25999 8.70163 5.12322 8.6024L2.88402 6.976C2.25762 6.52 2.58002 5.528 3.35442 5.528H6.12322C6.29205 5.52805 6.45658 5.47467 6.59323 5.37552C6.72989 5.27637 6.83168 5.13652 6.88402 4.976L7.74002 2.3424L7.73922 2.3416Z" fill="#5870FF"/>
<path d="M27.7392 2.3416C27.9792 1.6048 29.0216 1.6048 29.2608 2.3416L30.1168 4.9752C30.1691 5.13559 30.2708 5.27535 30.4073 5.37449C30.5438 5.47363 30.7081 5.52708 30.8768 5.5272H33.6464C34.4216 5.5272 34.7432 6.5192 34.1168 6.9752L31.8768 8.6024C31.74 8.70163 31.6382 8.84161 31.5859 9.00228C31.5336 9.16296 31.5335 9.33607 31.5856 9.4968L32.4416 12.1304C32.6816 12.8672 31.8376 13.4808 31.2096 13.0248L28.9696 11.3976C28.833 11.2984 28.6685 11.245 28.4996 11.245C28.3308 11.245 28.1663 11.2984 28.0296 11.3976L25.7896 13.0248C25.1624 13.4808 24.3192 12.8672 24.5584 12.1304L25.4144 9.4968C25.4666 9.33607 25.4665 9.16296 25.4141 9.00228C25.3618 8.84161 25.26 8.70163 25.1232 8.6024L22.884 6.976C22.2576 6.52 22.58 5.528 23.3544 5.528H26.1232C26.2921 5.52805 26.4566 5.47467 26.5932 5.37552C26.7299 5.27637 26.8317 5.13652 26.884 4.976L27.74 2.3424L27.7392 2.3416Z" fill="#5870FF"/>
<path d="M47.7392 2.3416C47.9792 1.6048 49.0216 1.6048 49.2608 2.3416L50.1168 4.9752C50.1691 5.13559 50.2708 5.27535 50.4073 5.37449C50.5438 5.47363 50.7081 5.52708 50.8768 5.5272H53.6464C54.4216 5.5272 54.7432 6.5192 54.1168 6.9752L51.8768 8.6024C51.74 8.70163 51.6382 8.84161 51.5859 9.00228C51.5336 9.16296 51.5335 9.33607 51.5856 9.4968L52.4416 12.1304C52.6816 12.8672 51.8376 13.4808 51.2096 13.0248L48.9696 11.3976C48.833 11.2984 48.6685 11.245 48.4996 11.245C48.3308 11.245 48.1663 11.2984 48.0296 11.3976L45.7896 13.0248C45.1624 13.4808 44.3192 12.8672 44.5584 12.1304L45.4144 9.4968C45.4666 9.33607 45.4665 9.16296 45.4141 9.00228C45.3618 8.84161 45.26 8.70163 45.1232 8.6024L42.884 6.976C42.2576 6.52 42.58 5.528 43.3544 5.528H46.1232C46.2921 5.52805 46.4566 5.47467 46.5932 5.37552C46.7299 5.27637 46.8317 5.13652 46.884 4.976L47.74 2.3424L47.7392 2.3416Z" fill="#5870FF"/>
<path d="M67.7392 2.3416C67.9792 1.6048 69.0216 1.6048 69.2608 2.3416L70.1168 4.9752C70.1691 5.13559 70.2708 5.27535 70.4073 5.37449C70.5438 5.47363 70.7081 5.52708 70.8768 5.5272H73.6464C74.4216 5.5272 74.7432 6.5192 74.1168 6.9752L71.8768 8.6024C71.74 8.70163 71.6382 8.84161 71.5859 9.00228C71.5336 9.16296 71.5335 9.33607 71.5856 9.4968L72.4416 12.1304C72.6816 12.8672 71.8376 13.4808 71.2096 13.0248L68.9696 11.3976C68.833 11.2984 68.6685 11.245 68.4996 11.245C68.3308 11.245 68.1663 11.2984 68.0296 11.3976L65.7896 13.0248C65.1624 13.4808 64.3192 12.8672 64.5584 12.1304L65.4144 9.4968C65.4666 9.33607 65.4665 9.16296 65.4141 9.00228C65.3618 8.84161 65.26 8.70163 65.1232 8.6024L62.884 6.976C62.2576 6.52 62.58 5.528 63.3544 5.528H66.1232C66.2921 5.52805 66.4566 5.47467 66.5932 5.37552C66.7299 5.27637 66.8317 5.13652 66.884 4.976L67.74 2.3424L67.7392 2.3416Z" fill="#5870FF"/>
<path d="M87.7392 2.3416C87.9792 1.6048 89.0216 1.6048 89.2608 2.3416L90.1168 4.9752C90.1691 5.13559 90.2708 5.27535 90.4073 5.37449C90.5438 5.47363 90.7081 5.52708 90.8768 5.5272H93.6464C94.4216 5.5272 94.7432 6.5192 94.1168 6.9752L91.8768 8.6024C91.74 8.70163 91.6382 8.84161 91.5859 9.00228C91.5336 9.16296 91.5335 9.33607 91.5856 9.4968L92.4416 12.1304C92.6816 12.8672 91.8376 13.4808 91.2096 13.0248L88.9696 11.3976C88.833 11.2984 88.6685 11.245 88.4996 11.245C88.3308 11.245 88.1663 11.2984 88.0296 11.3976L85.7896 13.0248C85.1624 13.4808 84.3192 12.8672 84.5584 12.1304L85.4144 9.4968C85.4666 9.33607 85.4665 9.16296 85.4141 9.00228C85.3618 8.84161 85.26 8.70163 85.1232 8.6024L82.884 6.976C82.2576 6.52 82.58 5.528 83.3544 5.528H86.1232C86.2921 5.52805 86.4566 5.47467 86.5932 5.37552C86.7299 5.27637 86.8317 5.13652 86.884 4.976L87.74 2.3424L87.7392 2.3416Z" fill="#5870FF"/>
</svg>
