<svg width="16" height="16" viewBox="0 0 16 16" fill="none" xmlns="http://www.w3.org/2000/svg">
<path d="M9.41421 9.41421C9.78929 9.03914 10 8.53043 10 8C10 7.46957 9.78929 6.96086 9.41421 6.58579C9.03914 6.21071 8.53043 6 8 6C7.46957 6 6.96086 6.21071 6.58579 6.58579C6.21071 6.96086 6 7.46957 6 8C6 8.53043 6.21071 9.03914 6.58579 9.41421C6.96086 9.78929 7.46957 10 8 10C8.53043 10 9.03914 9.78929 9.41421 9.41421Z" stroke="#C94403" stroke-linecap="round" stroke-linejoin="round"/>
<path d="M1.63866 7.99992C2.488 5.29525 5.01533 3.33325 8 3.33325C10.9853 3.33325 13.512 5.29525 14.3613 7.99992C13.512 10.7046 10.9853 12.6666 8 12.6666C5.01533 12.6666 2.488 10.7046 1.63866 7.99992Z" stroke="#C94503" stroke-linecap="round" stroke-linejoin="round"/>
</svg>
