<svg width="33" height="30" viewBox="0 0 33 30" fill="none" xmlns="http://www.w3.org/2000/svg">
<path d="M28.1667 28.3327H4.83333C3.94928 28.3327 3.10143 27.9815 2.47631 27.3564C1.85119 26.7312 1.5 25.8834 1.5 24.9993V4.99935C1.5 4.11529 1.85119 3.26745 2.47631 2.64233C3.10143 2.0172 3.94928 1.66602 4.83333 1.66602H21.5C22.3841 1.66602 23.2319 2.0172 23.857 2.64233C24.4821 3.26745 24.8333 4.11529 24.8333 4.99935V6.66602M28.1667 28.3327C27.2826 28.3327 26.4348 27.9815 25.8096 27.3564C25.1845 26.7312 24.8333 25.8834 24.8333 24.9993V6.66602M28.1667 28.3327C29.0507 28.3327 29.8986 27.9815 30.5237 27.3564C31.1488 26.7312 31.5 25.8834 31.5 24.9993V9.99935C31.5 9.11529 31.1488 8.26745 30.5237 7.64233C29.8986 7.0172 29.0507 6.66602 28.1667 6.66602H24.8333M18.1667 1.66602H11.5M8.16667 21.666H18.1667M8.16667 8.33268H18.1667V14.9993H8.16667V8.33268Z" stroke="#5870FF" stroke-width="1.5" stroke-linecap="round" stroke-linejoin="round"/>
</svg>
