<svg width="324" height="120" viewBox="0 0 324 120" fill="none" xmlns="http://www.w3.org/2000/svg">
<path d="M0.504361 92.7461V1.59352C0.504361 0.713406 1.21453 0.0032196 2.09465 0.0032196H67.2926C68.1728 0.0032196 68.883 0.713406 68.883 1.59352V17.3179C68.883 18.198 68.1728 18.9082 67.2926 18.9082H21.0693V40.1442H64.8615C65.7416 40.1442 66.4517 40.8544 66.4517 41.7345V57.5895C66.4517 58.4697 65.7416 59.1799 64.8615 59.1799H21.0693V92.7461C21.0693 93.6262 20.3592 94.3364 19.479 94.3364H2.09029C1.21453 94.3364 0.5 93.6262 0.5 92.7461" fill="#5870FF"/>
<path d="M83.9488 94.3332H101.433C102.392 94.3332 103.167 93.5577 103.167 92.5991V1.73409C103.167 0.775549 102.392 0 101.433 0H83.9488C82.9903 0 82.2147 0.775549 82.2147 1.73409V92.5991C82.2147 93.5577 82.9903 94.3332 83.9488 94.3332Z" fill="#5870FF"/>
<path d="M316.028 17.0051C304.007 17.0051 295.729 21.4885 291.328 30.3506L289.864 19.0312C289.759 18.2382 289.088 17.6456 288.287 17.6456H273.713C272.833 17.6456 272.122 18.3558 272.122 19.2359V92.747C272.122 93.6272 272.833 94.3373 273.713 94.3373H291.354C292.234 94.3373 292.944 93.6272 292.944 92.747V60.6578C292.944 51.4297 294.164 46.1273 297.018 42.9205C299.998 39.5744 305.27 38.0843 314.111 38.0843H321.91C322.79 38.0843 323.5 37.3741 323.5 36.494V18.5955C323.5 17.7197 322.79 17.0051 321.91 17.0051H316.028Z" fill="#5870FF"/>
<path d="M238.344 56.9626C238.344 69.9987 231.961 76.8915 219.892 76.8915C205.161 76.8915 202.233 65.5546 201.802 58.7969L201.78 58.5224C201.767 58.4048 200.521 46.7934 206.725 39.844C209.845 36.3453 214.398 34.5721 220.254 34.5721C226.11 34.5721 230.323 36.341 233.438 39.8353C236.697 43.4908 238.348 48.8412 238.348 55.7339V56.9626H238.344ZM225.443 17.009C214.503 17.009 205.532 21.6928 200.26 30.0059C199.497 26.9647 198.447 22.6513 197.65 18.9087C197.493 18.1723 196.844 17.6495 196.094 17.6495H184.326C183.45 17.6495 182.736 18.3597 182.736 19.2398V118.318C182.736 119.198 183.446 119.908 184.326 119.908H201.584C202.477 119.908 203.192 119.172 203.174 118.283L202.403 85.1523C207.588 91.1868 215.322 94.3456 225.081 94.3456C234.841 94.3456 243.036 91.0735 248.962 84.8778C255.236 78.3206 258.547 68.7134 258.547 57.0933V55.7427C258.547 31.496 246.174 17.0177 225.443 17.0177" fill="#5870FF"/>
<path d="M140.384 17.6319H124.154C122.808 17.6319 121.714 18.7996 121.714 20.2287V51.0413C121.714 52.4748 122.808 53.6424 124.154 53.6424H140.384C141.73 53.6424 142.824 52.4748 142.824 51.0413V20.2287C142.824 18.7952 141.73 17.6319 140.384 17.6319Z" fill="#5870FF"/>
<path d="M161.747 58.3223H145.518C144.171 58.3223 143.078 59.49 143.078 60.9234V91.736C143.078 93.1695 144.171 94.3372 145.518 94.3372H161.747C163.094 94.3372 164.187 93.1695 164.187 91.736V60.9234C164.187 59.49 163.094 58.3223 161.747 58.3223Z" fill="#5870FF"/>
</svg>
