<svg width="15" height="18" viewBox="0 0 15 18" fill="none" xmlns="http://www.w3.org/2000/svg">
<path d="M9.85686 7.19036C10.482 6.56523 10.8332 5.71739 10.8332 4.83333C10.8332 3.94928 10.482 3.10143 9.85686 2.47631C9.23174 1.85119 8.38389 1.5 7.49984 1.5C6.61578 1.5 5.76794 1.85119 5.14281 2.47631C4.51769 3.10143 4.1665 3.94928 4.1665 4.83333C4.1665 5.71739 4.51769 6.56523 5.14281 7.19036C5.76794 7.81548 6.61578 8.16667 7.49984 8.16667C8.38389 8.16667 9.23174 7.81548 9.85686 7.19036Z" stroke="#C94403" stroke-width="1.5" stroke-linecap="round" stroke-linejoin="round"/>
<path d="M3.37505 12.3752C4.46901 11.2812 5.95274 10.6667 7.49984 10.6667C9.04693 10.6667 10.5307 11.2812 11.6246 12.3752C12.7186 13.4692 13.3332 14.9529 13.3332 16.5H1.6665C1.6665 14.9529 2.28109 13.4692 3.37505 12.3752Z" stroke="#C94403" stroke-width="1.5" stroke-linecap="round" stroke-linejoin="round"/>
</svg>
