<svg width="318" height="320" viewBox="0 0 318 320" fill="none" xmlns="http://www.w3.org/2000/svg">
<path d="M0 160.092L0.243556 149.493L3.18145 149.559L3.01908 156.429L6.38827 156.51L6.51005 151.187L8.78831 151.238L8.66146 156.561L12.122 156.642L12.2844 149.569L15.2222 149.635L14.9685 160.443L0 160.092Z" fill="#F3EEE4"/>
<path d="M8.32146 140.765L0.512451 144.693L1.14671 140.004L6.52524 137.721L1.92812 134.189L2.48627 130.039L9.06735 135.884L17.3483 131.855L16.7191 136.523L11.1274 138.822L15.9224 142.45L15.3237 146.869L8.32146 140.765Z" fill="#F3EEE4"/>
<path d="M10.478 128.181C5.76417 126.974 3.8005 123.087 4.94725 118.612C5.96714 114.644 8.91518 112.487 12.2438 113.345C12.5736 113.431 12.9643 113.553 13.1571 113.624L12.3503 116.775C12.1118 116.689 11.8937 116.633 11.782 116.607C9.81837 116.105 8.34181 117.206 7.83947 119.165C7.23058 121.545 8.58029 123.701 11.4421 124.437C14.3292 125.178 16.4959 123.879 17.0946 121.539C17.6375 119.424 16.8206 117.851 14.9889 117.384C14.9026 117.363 14.7707 117.328 14.522 117.287L15.339 114.111C15.6333 114.162 15.8717 114.223 16.0493 114.273C19.3779 115.126 20.9154 118.459 19.8955 122.448C18.7487 126.918 15.1563 129.379 10.4831 128.181" fill="#F3EEE4"/>
<path d="M8.60059 106.799L9.97059 103.329L15.3694 105.465L17.7289 99.4977L12.3351 97.3615L13.7051 93.8909L27.6284 99.4013L26.2584 102.872L20.4384 100.568L18.0739 106.535L23.8939 108.839L22.5188 112.31L8.60059 106.799Z" fill="#F3EEE4"/>
<path d="M29.0948 85.0568L22.2904 83.8238L22.2702 83.8644L26.9535 88.9435L29.0999 85.0568H29.0948ZM31.4999 85.5033L28.6077 90.7448L30.7845 93.1144L28.9375 96.4633L18.6219 84.1688L20.8646 80.1045L36.7668 82.2813L34.6661 86.0868L31.4999 85.5084V85.5033Z" fill="#F3EEE4"/>
<path d="M26.4867 70.7174L29.6681 66.3942L41.2472 67.6222L41.2624 67.6019L33.0932 61.7362L35.1684 58.915L47.2295 67.7845L44.6113 71.3415L31.236 69.9461L31.2208 69.9613L40.6231 76.7657L38.5478 79.5868L26.4867 70.7174Z" fill="#F3EEE4"/>
<path d="M44.2104 60.0567C40.6028 56.6216 40.8007 52.1564 43.972 48.8328C46.58 46.0979 50.1319 45.3064 52.603 47.6607C52.8516 47.8941 53.1002 48.1631 53.2119 48.3051L50.9691 50.6595C50.8017 50.4718 50.6393 50.3145 50.5226 50.2028C49.2389 48.98 47.4173 49.4722 46.1893 50.7559C44.4337 52.6029 44.5758 55.1551 46.849 57.3218C49.0055 59.3768 51.5628 59.2652 53.1611 57.5856C54.3231 56.3679 54.7442 54.4397 53.5062 53.2625L53.3438 53.1052L50.6748 55.9061L49.1425 54.4448L54.2571 49.0764L59.7422 54.3027L57.7481 56.3932C57.3675 56.0025 56.6267 55.2313 55.9367 54.5716L55.9214 54.5868C56.8906 56.1091 56.4542 58.0829 54.7747 59.8436C51.8266 62.9388 47.6152 63.299 44.2054 60.0516" fill="#F3EEE4"/>
<path d="M52.9379 40.3643L61.0615 33.5549L62.949 35.8078L57.6821 40.2172L59.8437 42.7999L63.9232 39.38L65.3846 41.1255L61.305 44.5454L63.5275 47.1941L68.9517 42.6528L70.8342 44.9006L62.5532 51.8419L52.9379 40.3643Z" fill="#F3EEE4"/>
<path d="M71.8033 25.888L80.6323 20.479L82.1646 22.9805L76.5172 26.441L78.4301 29.5667L83.1084 26.6998L84.4124 28.836L79.7392 31.6978L82.804 36.7059L79.6225 38.6544L71.8033 25.888Z" fill="#F3EEE4"/>
<path d="M98.4016 19.9664C97.1382 17.267 94.7686 16.4399 92.6222 17.4446C90.481 18.4493 89.593 20.7986 90.8565 23.498C92.1402 26.238 94.5301 27.1057 96.6714 26.101C98.8126 25.0963 99.6803 22.7064 98.3966 19.9664M87.3401 25.1166C85.3054 20.7681 87.2691 16.7089 91.369 14.7858C95.4688 12.8627 99.8477 13.9536 101.888 18.3021C103.963 22.7318 102.014 26.8367 97.9145 28.7547C93.8147 30.6778 89.4154 29.5463 87.3401 25.1115" fill="#F3EEE4"/>
<path d="M112.817 14.3038C114.314 13.8218 114.852 12.9084 114.431 11.5841C114.025 10.3257 113 9.82339 111.356 10.3511L108.281 11.3405L109.57 15.3491L112.817 14.3038V14.3038ZM103.826 9.69147L110.473 7.5502C114.243 6.3375 116.78 7.24068 117.643 9.92487C118.226 11.7465 117.82 13.1418 116.602 13.9638L116.618 14.0095C118.13 13.8827 119.119 14.8061 119.637 16.4095L120.778 19.9614L117.227 21.1031L116.115 17.6578C115.699 16.3588 115.04 15.9478 113.695 16.3791L110.25 17.4853L111.96 22.7927L108.408 23.9344L103.821 9.68132L103.826 9.69147Z" fill="#F3EEE4"/>
<path d="M130.302 10.0772C129.633 5.2568 132.484 1.96372 137.056 1.32946C141.11 0.766239 144.226 2.67409 144.703 6.0788C144.748 6.41877 144.784 6.82469 144.789 7.03273L141.567 7.47925C141.557 7.23062 141.521 7.00229 141.506 6.89066C141.227 4.88639 139.649 3.93247 137.64 4.21154C135.204 4.5515 133.722 6.61666 134.133 9.5444C134.544 12.4975 136.569 14.0096 138.959 13.6747C141.12 13.3753 142.267 12.0206 142.008 10.1482C141.998 10.0569 141.978 9.92496 141.922 9.67633L145.169 9.22473C145.23 9.51396 145.266 9.76259 145.291 9.94018C145.763 13.3449 143.267 16.0342 139.187 16.6024C134.61 17.2367 130.972 14.8519 130.307 10.0721" fill="#F3EEE4"/>
<path d="M149.351 0.22326L153.08 0.16237L153.176 5.96712L159.59 5.86056L159.494 0.0608894L163.228 0L163.467 14.9685L159.737 15.0294L159.636 8.77309L153.222 8.87964L153.324 15.136L149.589 15.1969L149.351 0.22326Z" fill="#F3EEE4"/>
<path d="M177.283 10.8383L175.817 4.07958H175.771L172.874 10.3461L177.283 10.8383V10.8383ZM177.796 13.2332L171.849 12.5685L170.494 15.4861L166.694 15.065L174.097 0.822021L178.709 1.3345L182.794 16.8561L178.476 16.3741L177.796 13.2281V13.2332Z" fill="#F3EEE4"/>
<path d="M189.532 2.92773L194.743 4.2064L198.047 15.3745L198.067 15.3795L200.36 5.58655L203.76 6.42378L200.188 20.9661L195.9 19.9107L192.064 7.01744L192.039 7.01237L189.36 18.3022L185.955 17.465L189.532 2.92773Z" fill="#F3EEE4"/>
<path d="M206.175 15.2223C207.976 10.5745 212.178 9.0573 216.46 10.7165C219.982 12.0815 222.072 15.065 220.839 18.2465C220.717 18.5661 220.56 18.8959 220.474 19.0583L217.44 17.8811C217.551 17.6579 217.632 17.4448 217.693 17.2925C218.333 15.6384 217.181 14.1415 215.527 13.5022C213.152 12.5838 210.843 13.6899 209.707 16.6177C208.631 19.3983 209.707 21.7171 211.873 22.5594C213.441 23.1683 215.385 22.8233 215.999 21.23L216.08 21.0169L212.472 19.6215L213.238 17.6477L220.154 20.3268L217.419 27.395L214.725 26.3498C214.943 25.8474 215.374 24.8681 215.719 23.9751L215.699 23.965C214.664 25.4415 212.67 25.7967 210.402 24.9138C206.414 23.3662 204.475 19.6165 206.175 15.2223" fill="#F3EEE4"/>
<path d="M227.715 15.7905L237.107 20.7175L235.742 23.3154L229.658 20.1238L228.09 23.1023L232.804 25.5784L231.749 27.5928L227.035 25.1167L225.426 28.1814L231.693 31.4694L230.328 34.0724L220.758 29.044L227.715 15.7905Z" fill="#F3EEE4"/>
<path d="M242.318 35.483L244.977 37.472C244.007 38.7659 243.911 39.9989 245.915 41.4958C247.94 43.0079 248.94 42.6171 249.513 41.856C249.893 41.3436 249.919 40.8514 249.569 40.3338C249.178 39.7554 248.072 38.6492 247.179 37.7511C246.128 36.6855 245.103 35.549 244.753 34.5747C244.358 33.5092 244.581 32.3726 245.438 31.2258C247.128 28.9679 250.066 28.7192 253.532 31.307C257.342 34.1536 257.398 36.6652 255.379 39.3647L252.735 37.3908C253.755 36.0259 253.603 34.7472 251.964 33.5193C250.34 32.3066 249.198 32.3929 248.6 33.1946C248.163 33.7781 248.082 34.2297 248.366 34.7219C248.671 35.2648 249.782 36.4014 250.68 37.33C251.867 38.5579 252.725 39.5372 253.146 40.4505C253.663 41.5465 253.476 42.744 252.633 43.8755C251.106 45.9153 248.6 46.8794 244.312 43.6827C240.192 40.6027 240.664 37.6902 242.313 35.483" fill="#F3EEE4"/>
<path d="M262.689 38.9688L252.73 50.1504L255.515 52.6308L265.474 41.4492L262.689 38.9688Z" fill="#F3EEE4"/>
<path d="M269.55 45.0781L273.219 49.0055L269.875 60.1583L269.89 60.1735L277.162 53.2271L279.557 55.7844L268.617 66.0036L265.603 62.7816L269.439 49.8884L269.424 49.8731L261.006 57.8597L258.616 55.2973L269.55 45.0781Z" fill="#F3EEE4"/>
<path d="M276.918 64.3597C280.866 61.508 285.108 62.4873 287.812 66.2371C290.207 69.5555 289.979 73.2038 287.193 75.2131C286.914 75.411 286.569 75.6343 286.391 75.7357L284.489 73.0972C284.707 72.9704 284.889 72.8384 284.981 72.7674C286.625 71.5801 286.726 69.7432 285.539 68.0992C284.098 66.1051 281.581 65.7652 279.181 67.4954C276.766 69.2409 276.375 71.7374 277.791 73.6909C279.069 75.4617 280.8 75.8423 282.332 74.7361C282.408 74.6854 282.515 74.6042 282.707 74.4368L284.626 77.0956C284.402 77.2884 284.194 77.4356 284.047 77.5421C281.261 79.5514 277.715 78.6026 275.304 75.2638C272.6 71.5192 273.011 67.1859 276.923 64.3597" fill="#F3EEE4"/>
<path d="M294.424 76.5171L299.625 85.757L297.067 87.198L293.698 81.2055L290.76 82.8597L293.373 87.4974L291.389 88.6137L288.781 83.976L285.762 85.6707L289.238 91.8357L286.675 93.2768L281.378 83.8593L294.424 76.5171Z" fill="#F3EEE4"/>
<path d="M298.838 104.562C301.126 106.794 302.172 107.256 303.45 106.779C304.688 106.317 305.14 105.323 304.673 104.064C304.14 102.633 302.978 102.121 301.274 102.755C301.04 102.842 300.634 102.994 300.127 103.258L299 100.228C299.305 100.066 299.822 99.8275 300.375 99.6195C303.339 98.5133 306.079 99.4114 307.469 103.146C308.748 106.576 307.54 109.138 305.023 110.077C302.786 110.909 300.934 110.316 298.102 107.464C296.281 105.642 295.885 105.617 295.372 105.81L298.057 113.015L295.327 114.03L291.196 102.943C294.586 101.68 295.799 101.614 298.843 104.562" fill="#F3EEE4"/>
<path d="M305.871 124.173C308.849 123.422 310.209 122.118 309.783 120.418C309.362 118.744 307.55 118.262 304.572 119.007C301.614 119.753 300.117 120.976 300.558 122.737C301.01 124.523 302.912 124.914 305.871 124.168M303.709 115.491C308.321 114.329 311.615 115.659 312.629 119.698C313.654 123.757 311.386 126.512 306.774 127.669C302.273 128.8 298.782 127.71 297.712 123.452C296.651 119.236 299.208 116.623 303.709 115.491" fill="#F3EEE4"/>
<path d="M308.748 140.542C311.792 140.126 313.289 138.979 313.051 137.244C312.817 135.529 311.072 134.849 308.027 135.265C305.008 135.676 303.379 136.726 303.628 138.532C303.877 140.359 305.729 140.958 308.748 140.542M307.56 131.677C312.274 131.033 315.395 132.718 315.963 136.843C316.531 140.993 313.974 143.475 309.265 144.119C304.668 144.748 301.319 143.277 300.72 138.923C300.132 134.615 302.963 132.301 307.56 131.672" fill="#F3EEE4"/>
<path d="M312.629 156.779C313.761 156.586 314.537 155.729 314.492 154.156C314.446 152.542 313.583 151.609 312.355 151.644C311.061 151.68 310.331 152.588 310.371 154.085C310.417 155.815 311.31 156.815 312.629 156.779ZM306.129 148.625C306.332 148.62 306.698 148.63 306.88 148.65L306.967 151.857C306.718 151.842 306.581 151.847 306.51 151.847C305.51 151.872 304.896 152.776 304.937 154.303C304.993 156.373 306.403 157.154 309.631 157.068C309.95 157.058 310.31 157.028 310.447 157.023V156.977C309.006 156.764 308.068 155.653 308.007 153.425C307.916 150.015 309.483 148.173 312.076 148.102C315.303 148.016 317.282 150.441 317.379 154.08C317.49 158.129 315.207 160.554 310.026 160.696C304.749 160.838 302.116 158.519 302.004 154.425C301.908 150.852 303.511 148.696 306.124 148.625" fill="#F3EEE4"/>
<path d="M16.8662 200.132L15.6637 196.052L18.4747 195.22L21.9352 206.941L19.1242 207.768L17.9216 203.714L6.3781 207.119L5.32269 203.542L16.8662 200.132Z" fill="#F3EEE4"/>
<path d="M22.9399 209.884L24.3911 213.319L19.043 215.577L21.5395 221.489L26.8876 219.231L28.3387 222.671L14.5423 228.496L13.0911 225.056L18.8553 222.62L16.3588 216.709L10.5947 219.144L9.14349 215.709L22.9399 209.884Z" fill="#F3EEE4"/>
<path d="M30.0639 225.979L35.2395 235.234L32.6771 236.665L29.3231 230.668L26.3852 232.312L28.9832 236.96L26.9941 238.071L24.3962 233.423L21.3771 235.108L24.8326 241.288L22.2701 242.719L16.9982 233.286L30.0639 225.979Z" fill="#F3EEE4"/>
<path d="M40.9377 244.17L44.6316 248.706L38.9182 257.484L38.9487 257.52L48.6909 253.704L52.2681 258.098L40.6485 267.546L38.2941 264.649L47.4782 257.297L47.4528 257.261L35.9397 261.757L33.9152 259.265L40.6485 248.894L40.618 248.858L31.5354 256.332L29.3231 253.618L40.9377 244.17Z" fill="#F3EEE4"/>
<path d="M55.135 274.102L57.9917 267.805L57.9562 267.774L51.8876 271.078L55.135 274.102V274.102ZM54.1202 276.329L49.7412 272.25L46.915 273.782L44.1191 271.174L58.56 264.167L61.9545 267.333L55.9671 282.225L52.7857 279.262L54.1151 276.334L54.1202 276.329Z" fill="#F3EEE4"/>
<path d="M70.1492 283.103C71.4177 284.027 72.4782 283.925 73.2951 282.804C74.0714 281.738 73.8786 280.612 72.4782 279.592L69.865 277.689L67.3889 281.094L70.1492 283.103V283.103ZM68.5762 273.123L74.2236 277.233C77.4254 279.562 78.1916 282.144 76.5323 284.428C75.4059 285.975 74.0359 286.467 72.6557 285.97L72.6304 286.006C73.6249 287.152 73.4625 288.497 72.4731 289.857L70.276 292.876L67.2569 290.679L69.388 287.751C70.1897 286.645 70.1339 285.874 68.9923 285.047L66.0645 282.915L62.7867 287.421L59.7676 285.224L68.5762 273.117V273.123Z" fill="#F3EEE4"/>
<path d="M82.1443 282.779L85.4019 284.6L81.7739 291.095L81.8094 291.115L91.0798 287.771L94.9767 289.948L86.3051 292.871L88.0505 303.227L83.8188 300.863L82.9359 293.673L79.7849 294.647L78.1003 297.666L74.8427 295.849L82.1443 282.779Z" fill="#F3EEE4"/>
<path d="M98.0109 291.278L107.789 295.393L106.647 298.097L100.315 295.433L99.0105 298.534L103.917 300.599L103.034 302.699L98.1276 300.634L96.7881 303.821L103.308 306.566L102.172 309.27L92.2062 305.079L98.0109 291.278Z" fill="#F3EEE4"/>
<path d="M113.67 300.452L109.605 299.203L110.463 296.397L122.143 299.98L121.281 302.786L117.237 301.543L113.71 313.051L110.143 311.955L113.67 300.452Z" fill="#F3EEE4"/>
<path d="M132.322 302.182L142.561 303.709L142.125 306.617L135.579 305.637L135.037 309.26L140.461 310.072L140.09 312.543L134.666 311.736L133.798 317.541L130.11 316.993L132.322 302.182Z" fill="#F3EEE4"/>
<path d="M156.703 311.98C156.82 309.001 155.094 307.18 152.73 307.089C150.365 306.997 148.503 308.672 148.381 311.65C148.26 314.674 149.99 316.542 152.349 316.633C154.714 316.724 156.581 315.004 156.698 311.98M144.515 311.478C144.703 306.683 148.315 303.978 152.841 304.156C157.362 304.333 160.752 307.312 160.564 312.112C160.371 316.998 156.754 319.748 152.233 319.566C147.712 319.388 144.322 316.364 144.515 311.473" fill="#F3EEE4"/>
<path d="M171.869 311.072C173.432 310.945 174.173 310.173 174.056 308.793C173.95 307.479 173.067 306.748 171.342 306.891L168.12 307.154L168.465 311.351L171.864 311.072H171.869ZM164.167 304.531L171.128 303.963C175.076 303.638 177.339 305.099 177.573 307.91C177.73 309.813 177.009 311.087 175.639 311.609V311.655C177.146 311.873 177.897 313 178.039 314.679L178.344 318.399L174.624 318.703L174.33 315.095C174.219 313.735 173.671 313.187 172.265 313.299L168.657 313.593L169.114 319.15L165.395 319.454L164.172 304.531H164.167Z" fill="#F3EEE4"/>
<path d="M190.055 310.61L187.787 301.725L191.404 300.802L193.637 309.555C194.145 311.538 195.743 312.188 197.661 311.696C199.579 311.209 200.67 309.869 200.162 307.885L197.93 299.132L201.126 298.315L203.395 307.2C204.338 310.904 202.283 313.705 198.229 314.74C194.175 315.775 191.004 314.309 190.06 310.605" fill="#F3EEE4"/>
<path d="M207.829 306.469L210.93 305.277C211.508 306.784 212.503 307.525 214.837 306.627C217.196 305.719 217.399 304.668 217.054 303.775C216.826 303.181 216.425 302.897 215.796 302.918C215.095 302.943 213.573 303.283 212.34 303.562C210.879 303.882 209.372 304.146 208.357 303.922C207.246 303.694 206.403 302.897 205.886 301.558C204.871 298.924 206.231 296.306 210.265 294.753C214.705 293.043 216.861 294.337 218.069 297.483L214.989 298.671C214.375 297.077 213.213 296.524 211.3 297.26C209.412 297.986 208.875 299 209.235 299.934C209.499 300.614 209.834 300.924 210.407 300.949C211.026 300.979 212.584 300.65 213.847 300.381C215.517 300.03 216.805 299.828 217.805 299.954C219.008 300.102 219.921 300.893 220.428 302.212C221.342 304.592 220.824 307.231 215.831 309.149C211.031 310.996 208.819 309.042 207.829 306.475" fill="#F3EEE4"/>
<path d="M219.819 291.039L229.257 286.198L230.597 288.812L224.482 291.947L226.015 294.946L230.754 292.516L231.794 294.54L227.055 296.971L228.633 300.046L234.93 296.819L236.27 299.432L226.654 304.364L219.819 291.039Z" fill="#F3EEE4"/>
<path d="M244.287 291.024C246.017 289.887 246.514 287.868 244.774 285.229C243.008 282.55 240.933 282.337 239.091 283.55L237 284.925L242.003 292.526L244.281 291.024H244.287ZM232.271 284.524L237.305 281.211C241.293 278.582 245.164 279.085 247.869 283.19C250.583 287.315 249.66 290.999 245.936 293.449L240.501 297.027L232.271 284.524V284.524Z" fill="#F3EEE4"/>
<path d="M252.096 270.535L256.317 266.486L265.532 271.458L265.567 271.428L260.96 262.031L265.05 258.103L275.416 268.911L272.727 271.494L264.644 262.939L264.613 262.974L270.032 274.076L267.719 276.299L256.83 270.443L256.794 270.474L264.994 278.912L262.462 281.343L252.096 270.535Z" fill="#F3EEE4"/>
<path d="M280.571 250.68C278.227 248.838 275.741 249.168 274.279 251.025C272.818 252.887 273.082 255.384 275.421 257.225C277.801 259.098 280.323 258.798 281.789 256.936C283.25 255.079 282.951 252.552 280.571 250.68M273.011 260.25C269.236 257.281 269.17 252.77 271.971 249.208C274.772 245.651 279.171 244.657 282.946 247.625C286.792 250.649 286.894 255.191 284.093 258.748C281.292 262.305 276.857 263.274 273.011 260.245" fill="#F3EEE4"/>
<path d="M293.074 240.557C293.784 239.39 293.536 238.309 292.445 237.65C291.552 237.107 290.522 237.442 289.776 238.665L288.086 241.445L291.333 243.419L293.069 240.557H293.074ZM287.782 237.614C288.477 236.467 288.36 235.519 287.406 234.94C286.452 234.362 285.483 234.651 284.641 236.031L283.164 238.462L286.158 240.278L287.777 237.614H287.782ZM278.917 240.248L282.342 234.605C284.174 231.591 286.503 230.556 288.604 231.83C290.024 232.692 290.623 233.986 290.237 235.321L290.258 235.331C291.404 234.138 293.003 233.829 294.616 234.808C296.971 236.239 297.346 238.73 295.388 241.958L291.719 248.006L278.917 240.237V240.248Z" fill="#F3EEE4"/>
<path d="M288.796 222.7L287.134 226.039L300.539 232.71L302.201 229.372L288.796 222.7Z" fill="#F3EEE4"/>
<path d="M290.557 219.089L291.963 215.633L303.11 220.164L305.683 213.842L308.403 214.948L304.425 224.726L290.557 219.089Z" fill="#F3EEE4"/>
<path d="M295.575 206.272L298.594 196.108L301.411 196.945L299.452 203.532L302.679 204.491L304.196 199.386L306.378 200.035L304.861 205.14L308.174 206.124L310.194 199.34L313.005 200.178L309.925 210.539L295.575 206.272Z" fill="#F3EEE4"/>
<path d="M11.8023 179.328C11.8023 181.89 9.72192 183.971 7.15951 183.971C4.5971 183.971 2.51672 181.89 2.51672 179.328C2.51672 176.766 4.5971 174.685 7.15951 174.685C9.72192 174.685 11.8023 176.766 11.8023 179.328Z" fill="#F3EEE4"/>
<path d="M315.207 179.328C315.207 181.89 313.127 183.971 310.564 183.971C308.002 183.971 305.921 181.89 305.921 179.328C305.921 176.766 308.002 174.685 310.564 174.685C313.127 174.685 315.207 176.766 315.207 179.328Z" fill="#F3EEE4"/>
<path d="M152.299 64.2429H111.863C108.509 64.2429 105.784 67.1453 105.784 70.7175V147.483C105.784 151.055 108.514 153.963 111.863 153.963H152.299C155.653 153.963 158.377 151.06 158.377 147.483V70.7175C158.377 67.1453 155.647 64.2429 152.299 64.2429Z" fill="#F3EEE4"/>
<path d="M205.521 165.618H165.085C161.731 165.618 159.006 168.52 159.006 172.092V248.858C159.006 252.43 161.736 255.338 165.085 255.338H205.521C208.875 255.338 211.599 252.43 211.599 248.858V172.092C211.599 168.52 208.869 165.618 205.521 165.618Z" fill="#F3EEE4"/>
</svg>
