<svg width="17" height="18" viewBox="0 0 17 18" fill="none" xmlns="http://www.w3.org/2000/svg">
<path d="M16 16.5L11 11.5M12.6667 7.33333C12.6667 8.09938 12.5158 8.85792 12.2226 9.56565C11.9295 10.2734 11.4998 10.9164 10.9581 11.4581C10.4164 11.9998 9.77339 12.4295 9.06565 12.7226C8.35792 13.0158 7.59938 13.1667 6.83333 13.1667C6.06729 13.1667 5.30875 13.0158 4.60101 12.7226C3.89328 12.4295 3.25022 11.9998 2.70854 11.4581C2.16687 10.9164 1.73719 10.2734 1.44404 9.56565C1.15088 8.85792 1 8.09938 1 7.33333C1 5.78624 1.61458 4.30251 2.70854 3.20854C3.80251 2.11458 5.28624 1.5 6.83333 1.5C8.38043 1.5 9.86416 2.11458 10.9581 3.20854C12.0521 4.30251 12.6667 5.78624 12.6667 7.33333Z" stroke="#C94403" stroke-width="1.5" stroke-linecap="round" stroke-linejoin="round"/>
</svg>
