<svg width="324" height="121" viewBox="0 0 324 121" fill="none" xmlns="http://www.w3.org/2000/svg">
<path d="M0.504361 93.6542V2.50161C0.504361 1.6215 1.21453 0.911316 2.09465 0.911316H67.2926C68.1728 0.911316 68.883 1.6215 68.883 2.50161V18.226C68.883 19.1061 68.1728 19.8163 67.2926 19.8163H21.0693V41.0523H64.8615C65.7416 41.0523 66.4517 41.7625 66.4517 42.6426V58.4976C66.4517 59.3778 65.7416 60.088 64.8615 60.088H21.0693V93.6542C21.0693 94.5343 20.3592 95.2445 19.479 95.2445H2.09029C1.21453 95.2445 0.5 94.5343 0.5 93.6542" fill="#212121"/>
<path d="M83.9488 95.2413H101.433C102.392 95.2413 103.167 94.4657 103.167 93.5072V2.64217C103.167 1.68363 102.392 0.908081 101.433 0.908081H83.9488C82.9903 0.908081 82.2147 1.68363 82.2147 2.64217V93.5072C82.2147 94.4657 82.9903 95.2413 83.9488 95.2413Z" fill="#212121"/>
<path d="M316.028 17.9132C304.007 17.9132 295.729 22.3966 291.328 31.2587L289.864 19.9392C289.759 19.1463 289.088 18.5537 288.287 18.5537H273.713C272.833 18.5537 272.122 19.2639 272.122 20.144V93.6551C272.122 94.5352 272.833 95.2454 273.713 95.2454H291.354C292.234 95.2454 292.944 94.5352 292.944 93.6551V61.5659C292.944 52.3378 294.164 47.0354 297.018 43.8286C299.998 40.4824 305.27 38.9924 314.111 38.9924H321.91C322.79 38.9924 323.5 38.2822 323.5 37.4021V19.5036C323.5 18.6278 322.79 17.9132 321.91 17.9132H316.028Z" fill="#212121"/>
<path d="M238.344 57.8707C238.344 70.9068 231.961 77.7996 219.892 77.7996C205.161 77.7996 202.233 66.4627 201.802 59.705L201.78 59.4305C201.767 59.3129 200.521 47.7015 206.725 40.7521C209.845 37.2534 214.398 35.4801 220.254 35.4801C226.11 35.4801 230.323 37.2491 233.438 40.7434C236.697 44.3989 238.348 49.7493 238.348 56.642V57.8707H238.344ZM225.443 17.9171C214.503 17.9171 205.532 22.6009 200.26 30.914C199.497 27.8728 198.447 23.5594 197.65 19.8168C197.493 19.0804 196.844 18.5576 196.094 18.5576H184.326C183.45 18.5576 182.736 19.2678 182.736 20.1479V119.226C182.736 120.106 183.446 120.816 184.326 120.816H201.584C202.477 120.816 203.192 120.08 203.174 119.191L202.403 86.0604C207.588 92.0949 215.322 95.2537 225.081 95.2537C234.841 95.2537 243.036 91.9816 248.962 85.7859C255.236 79.2287 258.547 69.6215 258.547 58.0014V56.6507C258.547 32.4041 246.174 17.9258 225.443 17.9258" fill="#212121"/>
<path d="M140.384 18.54H124.154C122.808 18.54 121.714 19.7077 121.714 21.1368V51.9494C121.714 53.3828 122.808 54.5505 124.154 54.5505H140.384C141.73 54.5505 142.824 53.3828 142.824 51.9494V21.1368C142.824 19.7033 141.73 18.54 140.384 18.54Z" fill="#212121"/>
<path d="M161.747 59.2304H145.518C144.171 59.2304 143.078 60.3981 143.078 61.8315V92.6441C143.078 94.0776 144.171 95.2453 145.518 95.2453H161.747C163.094 95.2453 164.187 94.0776 164.187 92.6441V61.8315C164.187 60.3981 163.094 59.2304 161.747 59.2304Z" fill="#212121"/>
</svg>
