<svg width="398" height="185" viewBox="0 0 398 185" fill="none" xmlns="http://www.w3.org/2000/svg">
<rect x="0.5" y="0.908081" width="397" height="184" fill="#212121"/>
<path d="M42.5044 136.654V45.5016C42.5044 44.6215 43.2145 43.9113 44.0946 43.9113H109.293C110.173 43.9113 110.883 44.6215 110.883 45.5016V61.226C110.883 62.1061 110.173 62.8163 109.293 62.8163H63.0693V84.0523H106.861C107.742 84.0523 108.452 84.7625 108.452 85.6426V101.498C108.452 102.378 107.742 103.088 106.861 103.088H63.0693V136.654C63.0693 137.534 62.3592 138.245 61.479 138.245H44.0903C43.2145 138.245 42.5 137.534 42.5 136.654" fill="white"/>
<path d="M125.949 138.241H143.433C144.392 138.241 145.167 137.466 145.167 136.507V45.6422C145.167 44.6836 144.392 43.9081 143.433 43.9081H125.949C124.99 43.9081 124.215 44.6836 124.215 45.6422V136.507C124.215 137.466 124.99 138.241 125.949 138.241Z" fill="white"/>
<path d="M358.028 60.9132C346.007 60.9132 337.729 65.3966 333.328 74.2587L331.864 62.9392C331.759 62.1463 331.088 61.5537 330.287 61.5537H315.713C314.833 61.5537 314.122 62.2639 314.122 63.144V136.655C314.122 137.535 314.833 138.245 315.713 138.245H333.354C334.234 138.245 334.944 137.535 334.944 136.655V104.566C334.944 95.3378 336.164 90.0354 339.018 86.8286C341.998 83.4824 347.27 81.9924 356.111 81.9924H363.91C364.79 81.9924 365.5 81.2822 365.5 80.4021V62.5036C365.5 61.6278 364.79 60.9132 363.91 60.9132H358.028Z" fill="white"/>
<path d="M280.344 100.871C280.344 113.907 273.961 120.8 261.892 120.8C247.161 120.8 244.233 109.463 243.802 102.705L243.78 102.431C243.767 102.313 242.521 90.7015 248.725 83.7521C251.845 80.2534 256.398 78.4801 262.254 78.4801C268.11 78.4801 272.323 80.2491 275.438 83.7434C278.697 87.3989 280.348 92.7493 280.348 99.642V100.871H280.344ZM267.443 60.9171C256.503 60.9171 247.532 65.6009 242.26 73.914C241.497 70.8728 240.447 66.5594 239.65 62.8168C239.493 62.0804 238.844 61.5576 238.094 61.5576H226.326C225.45 61.5576 224.736 62.2678 224.736 63.1479V162.226C224.736 163.106 225.446 163.816 226.326 163.816H243.584C244.477 163.816 245.192 163.08 245.174 162.191L244.403 129.06C249.588 135.095 257.322 138.254 267.081 138.254C276.841 138.254 285.036 134.982 290.962 128.786C297.236 122.229 300.547 112.622 300.547 101.001V99.6507C300.547 75.4041 288.173 60.9258 267.443 60.9258" fill="white"/>
<path d="M182.384 61.54H166.154C164.808 61.54 163.714 62.7077 163.714 64.1368V94.9494C163.714 96.3828 164.808 97.5505 166.154 97.5505H182.384C183.73 97.5505 184.824 96.3828 184.824 94.9494V64.1368C184.824 62.7033 183.73 61.54 182.384 61.54Z" fill="white"/>
<path d="M203.747 102.23H187.517C186.171 102.23 185.078 103.398 185.078 104.832V135.644C185.078 137.078 186.171 138.245 187.517 138.245H203.747C205.094 138.245 206.187 137.078 206.187 135.644V104.832C206.187 103.398 205.094 102.23 203.747 102.23Z" fill="white"/>
</svg>
