<svg width="17" height="18" viewBox="0 0 17 18" fill="none" xmlns="http://www.w3.org/2000/svg">
<path d="M1 1.5H2.66667L3 3.16667M3 3.16667H16L12.6667 9.83333H4.33333M3 3.16667L4.33333 9.83333M4.33333 9.83333L2.4225 11.7442C1.8975 12.2692 2.26917 13.1667 3.01167 13.1667H12.6667M12.6667 13.1667C12.2246 13.1667 11.8007 13.3423 11.4882 13.6548C11.1756 13.9674 11 14.3913 11 14.8333C11 15.2754 11.1756 15.6993 11.4882 16.0118C11.8007 16.3244 12.2246 16.5 12.6667 16.5C13.1087 16.5 13.5326 16.3244 13.8452 16.0118C14.1577 15.6993 14.3333 15.2754 14.3333 14.8333C14.3333 14.3913 14.1577 13.9674 13.8452 13.6548C13.5326 13.3423 13.1087 13.1667 12.6667 13.1667ZM6 14.8333C6 15.2754 5.8244 15.6993 5.51184 16.0118C5.19928 16.3244 4.77536 16.5 4.33333 16.5C3.89131 16.5 3.46738 16.3244 3.15482 16.0118C2.84226 15.6993 2.66667 15.2754 2.66667 14.8333C2.66667 14.3913 2.84226 13.9674 3.15482 13.6548C3.46738 13.3423 3.89131 13.1667 4.33333 13.1667C4.77536 13.1667 5.19928 13.3423 5.51184 13.6548C5.8244 13.9674 6 14.3913 6 14.8333Z" stroke="#C94403" stroke-width="1.5" stroke-linecap="round" stroke-linejoin="round"/>
</svg>
