<svg width="28" height="25" viewBox="0 0 28 25" fill="none" xmlns="http://www.w3.org/2000/svg">
<rect x="0.523926" y="1.25391" width="11.1667" height="23.1667" fill="#FCF7ED"/>
<path d="M6.10698 2.83262C6.27272 2.83262 6.40708 2.69826 6.40708 2.53252C6.40708 2.36678 6.27272 2.23242 6.10698 2.23242C5.94124 2.23242 5.80688 2.36678 5.80688 2.53252C5.80688 2.69826 5.94124 2.83262 6.10698 2.83262Z" fill="#5870FF"/>
<path d="M1.83956 0.835938C0.939266 0.835938 0.214355 1.50628 0.214355 2.33642V23.3354C0.214355 24.1656 0.939266 24.8359 1.83956 24.8359H10.3748C11.2751 24.8359 12 24.1656 12 23.3354V2.33642C12 1.50628 11.2751 0.835938 10.3748 0.835938H1.83956ZM1.62131 1.57254H10.593C11.4076 1.57254 11.4076 2.29745 11.4076 2.71057V22.9613C11.4076 23.3783 11.4076 24.0993 10.593 24.0993H1.62131C0.806755 24.0993 0.806755 23.3744 0.806755 22.9613V2.71057C0.806755 2.29355 0.806755 1.57254 1.62131 1.57254Z" fill="#5870FF"/>
<rect x="17.2388" y="2.10352" width="3.93333" height="5.86667" fill="#FCF7ED"/>
<path d="M26.1604 0.835938H17.6252C16.7249 0.835938 16 1.50629 16 2.33643V23.3354C16 24.1656 16.7249 24.8359 17.6252 24.8359H26.1604C27.0607 24.8359 27.7856 24.1656 27.7856 23.3354V2.33643C27.7856 1.50629 27.0607 0.835938 26.1604 0.835938ZM20.4157 6.94311C20.4157 7.34065 20.0883 7.66802 19.6908 7.66802H18.393C17.9955 7.66802 17.6681 7.34065 17.6681 6.94311V3.36143C17.6681 2.9639 17.9955 2.63652 18.393 2.63652H19.6908C20.0883 2.63652 20.4157 2.9639 20.4157 3.36143V6.94311Z" fill="#5870FF"/>
<path d="M18.4903 4.01555C18.2448 4.01555 18.046 3.81679 18.046 3.57125C18.046 3.32572 18.2448 3.12695 18.4903 3.12695C18.7359 3.12695 18.9346 3.32572 18.9346 3.57125C18.9346 3.81679 18.7359 4.01555 18.4903 4.01555Z" fill="#5870FF"/>
<path d="M19.6596 3.91834C19.8512 3.91834 20.0065 3.76304 20.0065 3.57147C20.0065 3.37991 19.8512 3.22461 19.6596 3.22461C19.468 3.22461 19.3127 3.37991 19.3127 3.57147C19.3127 3.76304 19.468 3.91834 19.6596 3.91834Z" fill="#5870FF"/>
<path d="M18.4903 7.09563C18.2448 7.09563 18.046 6.89687 18.046 6.65133C18.046 6.4058 18.2448 6.20703 18.4903 6.20703C18.7359 6.20703 18.9346 6.4058 18.9346 6.65133C18.9346 6.89687 18.7359 7.09563 18.4903 7.09563Z" fill="#5870FF"/>
<path d="M18.4902 5.60951C18.2719 5.60951 18.0927 5.43023 18.0927 5.21198C18.0927 4.99373 18.2719 4.81445 18.4902 4.81445C18.7084 4.81445 18.8877 4.99373 18.8877 5.21198C18.8877 5.43023 18.7084 5.60951 18.4902 5.60951Z" fill="#5870FF"/>
</svg>
