<svg width="32" height="32" viewBox="0 0 32 32" fill="none" xmlns="http://www.w3.org/2000/svg">
<path d="M19.8333 12.6667H27.7733C28.3414 12.6667 28.9001 12.8119 29.3963 13.0885C29.8925 13.3652 30.3098 13.764 30.6085 14.2473C30.9073 14.7305 31.0775 15.2821 31.1032 15.8496C31.1288 16.4171 31.0089 16.9818 30.755 17.49L24.9217 29.1567C24.6448 29.7108 24.219 30.1768 23.692 30.5024C23.165 30.828 22.5578 31.0003 21.9383 31H15.2433C14.9717 31 14.7 30.9667 14.435 30.9L8.16667 29.3333M19.8333 12.6667V4.33333C19.8333 3.44928 19.4821 2.60143 18.857 1.97631C18.2319 1.35119 17.3841 1 16.5 1H16.3417C15.5083 1 14.8333 1.675 14.8333 2.50833C14.8333 3.69833 14.4817 4.86167 13.82 5.85167L8.16667 14.3333V29.3333M19.8333 12.6667H16.5M8.16667 29.3333H4.83333C3.94928 29.3333 3.10143 28.9821 2.47631 28.357C1.85119 27.7319 1.5 26.8841 1.5 26V16C1.5 15.1159 1.85119 14.2681 2.47631 13.643C3.10143 13.0179 3.94928 12.6667 4.83333 12.6667H9" stroke="#5870FF" stroke-width="1.5" stroke-linecap="round" stroke-linejoin="round"/>
</svg>
